<?xml version="1.0" encoding="utf-8"?>
<!-- Generator: Adobe Illustrator 15.1.0, SVG Export Plug-In . SVG Version: 6.00 Build 0)  -->
<!DOCTYPE svg PUBLIC "-//W3C//DTD SVG 1.1//EN" "http://www.w3.org/Graphics/SVG/1.1/DTD/svg11.dtd">
<svg version="1.1" id="Calque_1" xmlns="http://www.w3.org/2000/svg" xmlns:xlink="http://www.w3.org/1999/xlink" x="0px" y="0px"
	 width="800px" height="600px" viewBox="0 0 800 600" enable-background="new 0 0 800 600" xml:space="preserve">
<path d="M181.117,83.412c-13.124,62.695-9.579,127.067-14.082,190.604c-2.099,29.617-6.845,58.868-10.486,88.309
	c-3.517,28.434-5.813,57.562-1.203,86.009c2.983,18.406,12.312,34.59,27.122,45.924c14.246,10.901,32.311,16.107,49.753,19.019
	c18.637,3.104,37.6,3.549,56.454,3.404c11.039-0.083,22.117-0.12,33.136-0.776c15.644-0.938,31.16-3.333,46.642-5.664
	c18.238-2.748,36.521-5.123,54.913-6.566c19.771-1.552,39.61-1.91,59.396-3.247c19.416-1.312,38.77-3.646,58.18-5.118
	c19.188-1.454,38.396-2.664,57.604-3.898c1.353-0.087,4.238-1.09,4.34-2.814c3.738-63.45,0.83-127.098-4.963-190.333
	c-2.896-31.641-6.593-63.205-10.631-94.719c-1.646-12.83-3.211-25.651-4.637-38.506c-1.146-10.294-2.503-20.598-5.235-30.607
	c-5.29-19.377-17.661-34.372-36.558-41.729c-26.095-10.16-54.843-14.626-82.539-17.649c-56.837-6.202-113.772-2.049-170.742-3.674
	c-33.833-0.965-71.285-5.252-103.175,8.78c-4.902,2.157-0.464,5.312,3.194,3.703c23.163-10.191,50.395-9.133,75.146-8.386
	c26.019,0.785,51.933,0.876,77.966,0.651c58.562-0.507,118.34-0.532,175.31,14.782c12.033,3.235,24.133,6.762,34.228,14.331
	c7.896,5.921,13.354,14.499,16.922,23.573c7.863,20.01,7.933,42.72,10.706,63.788c8.326,63.229,15.318,126.699,17.936,190.448
	c1.454,35.441,1.397,70.96-0.688,106.374c1.446-0.938,2.894-1.876,4.34-2.812c-31.965,2.062-64.158,3.475-95.979,7.232
	c-16.433,1.942-32.985,2.604-49.5,3.355c-16.527,0.752-32.926,2.041-49.392,3.585c-31.5,2.954-62.481,10.378-94.228,10.792
	c-18.741,0.242-37.476,0.654-56.181-0.829c-18.547-1.478-37.444-4.854-54.167-13.337c-16.593-8.42-28.69-22.438-34.346-40.176
	c-3.956-12.403-4.755-25.961-5.05-38.889c-0.338-14.786,0.75-29.587,2.265-44.281c3.023-29.344,8.372-58.399,10.867-87.803
	c5.752-67.785,1.123-136.732,15.134-203.666C189.573,79.292,181.732,80.476,181.117,83.412L181.117,83.412z"/>
<path d="M279,227h-75v-74h75V227z M208,223h67v-66h-67V223z"/>
<path d="M368,227h-75v-74h75V227z M297,223h67v-66h-67V223z"/>
<path d="M457,227h-74v-74h74V227z M387,223h66v-66h-66V223z"/>
<path d="M545,227h-74v-74h74V227z M475,223h66v-66h-66V223z"/>
<path d="M279,333h-75v-74h75V333z M208,329h67v-66h-67V329z"/>
<path d="M368,333h-75v-74h75V333z M297,329h67v-66h-67V329z"/>
<path d="M457,333h-74v-74h74V333z M387,329h66v-66h-66V329z"/>
<path d="M545,333h-74v-74h74V333z M475,329h66v-66h-66V329z"/>
<path d="M279,439h-75v-75h75V439z M208,435h67v-67h-67V435z"/>
<path d="M368,439h-75v-75h75V439z M297,435h67v-67h-67V435z"/>
<path d="M457,439h-74v-75h74V439z M387,435h66v-67h-66V435z"/>
<path d="M545,439h-74v-75h74V439z M475,435h66v-67h-66V435z"/>
<path d="M303.05,183c1.622,13.129,9.879,25.35,21.947,31.138c2.729,1.309,6.658,0.958,8.141-2.135c11.164-23.29,23.171-46.169,37-68
	c4.12-6.503-6.182-12.468-10.271-6.006c-13.829,21.831-25.836,44.71-37,68c2.714-0.712,5.427-1.423,8.141-2.135
	c-7.976-3.825-14.938-11.845-16.053-20.862C314.022,175.487,302.111,175.396,303.05,183L303.05,183z"/>
</svg>
