<?xml version="1.0" encoding="utf-8"?>
<!-- Generator: Adobe Illustrator 15.1.0, SVG Export Plug-In . SVG Version: 6.00 Build 0)  -->
<!DOCTYPE svg PUBLIC "-//W3C//DTD SVG 1.1//EN" "http://www.w3.org/Graphics/SVG/1.1/DTD/svg11.dtd">
<svg version="1.1" id="Calque_1" xmlns="http://www.w3.org/2000/svg" xmlns:xlink="http://www.w3.org/1999/xlink" x="0px" y="0px"
	 width="800px" height="600px" viewBox="0 0 800 600" enable-background="new 0 0 800 600" xml:space="preserve">
<path d="M186.905,272.639c0.095-36.712,1.259-73.434-0.438-110.128c-0.842-18.201-2.814-36.226-5.255-54.273
	c-2.581-19.084-4.893-38.242-3.292-57.518c0.229-2.75-5.645-1.773-5.839,0.562c-1.466,17.647,0.281,35.226,2.562,52.726
	c2.439,18.703,4.788,37.302,5.83,56.148c2.081,37.641,0.69,75.375,0.593,113.045C181.059,276,186.899,274.943,186.905,272.639
	L186.905,272.639z"/>
<path d="M180.946,553.816c1.621-40.077,2.917-80.166,3.887-120.268c0.077-3.183-5.824-2.437-5.892,0.367
	c-0.971,40.098-2.267,80.188-3.887,120.264C174.926,557.359,180.832,556.622,180.946,553.816L180.946,553.816z"/>
<path d="M173.497,53.192c31.101,0.844,62.01,5.235,93.145,5.222c16.08-0.007,31.882-2.056,47.833-3.817
	c16.475-1.819,32.977-3.351,49.493-4.654c64.976-5.125,130.386-5.737,195.53-5.75c1.745,0,4.046-0.575,5.101-2.11
	c1.035-1.506-0.866-2.274-2.095-2.274c-64.483,0.013-129.188,0.719-193.521,5.55c-15.859,1.191-31.697,2.651-47.517,4.318
	c-16.646,1.755-33.146,4.127-49.913,4.341c-31.763,0.406-63.331-4.349-95.053-5.209C173.589,48.729,168.268,53.05,173.497,53.192
	L173.497,53.192z"/>
<path d="M564.896,544.224c-0.024-132.459-5.05-264.854-4.997-397.319c0.013-35.59,0.271-71.251,3.997-106.681
	c0.095-0.888-5.604-0.271-5.798,1.553c-3.323,31.666-3.879,63.523-3.979,95.339c-0.106,32.801,0.114,65.604,0.521,98.402
	c0.821,66.3,2.426,132.587,3.474,198.884c0.586,37.122,0.979,74.248,0.989,111.375C559.104,546.848,564.898,545.974,564.896,544.224
	L564.896,544.224z"/>
<path d="M179.499,557.197c64.048-0.006,128.12-0.604,192.063-4.538c15.697-0.967,31.385-2.168,47.05-3.589
	c16.276-1.479,32.466-3.791,48.77-5.013c15.853-1.185,31.761-1.405,47.646-1.087c15.271,0.312,30.195,4.054,45.472,4.227
	c2.906,0.033,8.229-4.336,3.002-4.396c-14.621-0.166-28.916-3.781-43.526-4.177c-15.89-0.429-31.784-0.107-47.647,0.878
	c-15.658,0.974-31.173,3.227-46.78,4.727c-16.312,1.566-32.651,2.828-49.006,3.893c-64.581,4.189-129.342,4.678-194.036,4.684
	c-1.747,0-4.046,0.573-5.1,2.112C176.369,556.423,178.269,557.197,179.499,557.197L179.499,557.197z"/>
<path d="M277.725,120.781c-6.498-0.273-12.609-9.741-10.308-15.859c0.759-2.018,2.431-1.245,4.174-0.173
	c1.808,1.112,2.52,3.439,2.949,5.375c0.874,3.934,0.255,8.197-0.245,12.14c-0.046,0.36,3.724,0.07,3.863-1.035
	c0.659-5.195,1.656-11.545-1.368-16.196c-2.39-3.675-7.937-3.324-11.327-1.462c-3.783,2.078-2.238,7.679-0.866,10.714
	c1.943,4.3,5.752,7.768,10.593,7.972C275.946,122.288,279.588,120.859,277.725,120.781L277.725,120.781z"/>
<path d="M278.167,121.306c0.062-4.992,1.21-14.158,6.324-16.625c1.77-0.854,4.358,0.836,5.428,2.087
	c1.441,1.685,0.557,4.418-0.27,6.134c-2.337,4.85-8.051,6.618-12.957,7.439c-1.92,0.321-3.121,2.8-0.47,2.355
	c6.391-1.07,12.971-3.223,16.669-8.917c3.283-5.055,1.213-10.152-4.588-11.482c-10.307-2.362-13.923,12.014-14.017,19.433
	C274.265,123.483,278.149,122.722,278.167,121.306L278.167,121.306z"/>
<path d="M276.28,122.908c5.473-0.178,10.715-2.771,16.255-2.002c1.394,0.193,2.428,1.041,2.962,2.311
	c1.374,3.268-1.077,5.611-4.188,6.049c-5.86,0.825-9.653-4.219-13.312-7.908c-1.212-1.222-4.872,0.347-3.541,1.688
	c4.933,4.975,8.989,9.474,16.496,8.997c5.29-0.336,9.441-3.667,8.593-9.192c-1.429-9.306-17.646-2.893-22.909-2.722
	C274.458,120.2,273.646,122.993,276.28,122.908L276.28,122.908z"/>
<path d="M274.212,122.77c2.766,4.164,4.473,11.262,1.974,15.863c-2.909,5.356-7.13-2.762-7.123-5.553
	c0.012-4.389,4.458-8.408,7.934-10.404c2.267-1.302-1.068-2.208-2.467-1.405c-4.563,2.621-9.339,7.475-9.354,13.059
	c-0.014,4.981,3.701,8.292,8.468,8.176c10.684-0.262,7.887-15.679,4.134-21.328C276.958,119.943,273.228,121.288,274.212,122.77
	L274.212,122.77z"/>
<path d="M275.765,121.115c-2.363,0.721-4.49,1.79-6.663,2.953c-2.28,1.222-4.948,2.315-7.37,0.773
	c-1.624-1.034-2.178-2.965-2.015-4.767c0.775-8.602,10.708-0.141,13.783,1.943c1.061,0.719,4.523-0.831,3.604-1.455
	c-5.744-3.894-14.213-10.79-19.967-2.868c-2.846,3.918-0.776,8.582,3.655,9.826c5.575,1.565,10.502-3.184,15.434-4.688
	C278.485,122.143,278.054,120.417,275.765,121.115L275.765,121.115z"/>
<g>
	<path d="M276.92,123.341c0.925-1.595,0.463-4.33-1.85-3.418c-2.544,0.911-0.462,3.646,1.619,3.418c0-0.456,0-0.912,0.231-1.139"/>
	<path d="M278.836,123.039c0.506-0.924,0.692-2.239,0.148-3.187c-0.935-1.627-3.418-0.974-4.796-0.433
		c-1.251,0.491-2.786,1.599-2.007,3.102c0.686,1.325,2.306,1.825,3.704,1.72c0.741-0.056,2.731-0.374,2.736-1.417
		c0.001-0.175-0.046-0.542,0.068-0.696c0.517-0.699-0.443-0.846-0.964-0.825c-0.783,0.033-2.066,0.29-2.572,0.973
		c-0.371,0.501-0.393,0.974-0.395,1.583c0.912-0.472,1.824-0.944,2.736-1.417c-0.192,0.009-0.203,0.014-0.033,0.015
		c-0.166-0.021-0.2-0.024-0.102-0.011c-0.148-0.036-0.311-0.091-0.444-0.165c-0.334-0.184-0.616-0.452-0.848-0.751
		c-0.133-0.172-0.263-0.542-0.241-0.761c0.008-0.083,0.089-0.313,0.092-0.318c0.154-0.218-0.02-0.001-0.142,0.047
		c-0.291,0.114-0.676,0.214-0.987,0.129c0.125,0.034,0.099,0.042,0.241,0.169c0.214,0.192,0.291,0.507,0.353,0.779
		c0.159,0.707-0.034,1.446-0.376,2.069c-0.386,0.704,1.381,0.581,1.593,0.547C277.363,124.07,278.432,123.774,278.836,123.039
		L278.836,123.039z"/>
</g>
<path d="M280.324,151.045c-5.212-4.147-4.649-14.342,0.246-18.582c-0.188,0.163,0.57,0.182,1.035,0.414
	c1.013,0.506,1.848,1.513,2.471,2.409c1.199,1.727,0.856,4.016,0.256,5.868c-1.355,4.181-4.928,7.678-7.895,10.76
	c-0.737,0.766,2.871,0.268,3.479-0.363c3.694-3.839,8.005-8.123,8.804-13.621c0.684-4.706-4.188-7.793-8.308-6.689
	c-8.338,2.234-10.193,15.945-3.736,21.082C277.463,152.952,280.789,151.415,280.324,151.045L280.324,151.045z"/>
<path d="M280.126,151.647c2.897-3.742,9.701-10.929,14.921-8.419c3.916,1.883,3.768,6.827,0.541,9.08
	c-4.607,3.216-11.143,0.55-15.568-1.615c-1.244-0.608-4.758,1.145-3.044,1.983c6.043,2.958,12.364,4.55,18.851,2.123
	c5.332-1.995,7.782-6.73,4.462-11.621c-6.137-9.041-19.79,3.106-23.791,8.274C275.362,152.92,279.288,152.73,280.126,151.647
	L280.126,151.647z"/>
<path d="M277.006,152.786c4.716,3.241,11.315,4.054,15.057,8.672c0.924,1.14,1.069,2.489,0.533,3.827
	c-1.44,3.598-4.983,2.126-7.424,0.492c-4.641-3.107-4.621-9.233-5.339-14.195c-0.253-1.753-4.127-0.789-3.863,1.035
	c0.961,6.645,1.426,12.648,7.752,16.322c4.737,2.751,10.626,1.598,12.761-3.735c3.282-8.198-12.012-11.544-16.491-14.623
	C278.609,149.632,275.204,151.547,277.006,152.786L277.006,152.786z"/>
<path d="M275.909,151.984c-0.201,3.953-4.021,15.802-9.676,13.21c-3.646-1.671-2.636-6.731-0.624-9.22
	c2.451-3.032,7.763-3.518,11.34-3.103c1.659,0.192,4.043-2.148,1.434-2.45c-5.322-0.616-11.396,0.666-15.492,4.245
	c-3.129,2.735-4.45,8.899-0.829,11.761c8.92,7.051,17.354-7.395,17.732-14.849C279.884,149.798,275.984,150.507,275.909,151.984
	L275.909,151.984z"/>
<path d="M279.403,150.901c-3.811-1.346-7.994-1.063-11.698-2.721c-3.939-1.763-4.554-7.821,0-9.232
	c4.857-1.506,7.043,9.53,8.068,12.396c0.44,1.233,4.267,0.094,3.863-1.035c-2.239-6.267-4.115-15.644-12.942-12.907
	c-4.155,1.288-7.508,4.954-5.463,9.411c2.445,5.332,10.501,4.235,15.07,5.849C277.373,153.041,280.887,151.425,279.403,150.901
	L279.403,150.901z"/>
<g>
	<path d="M277.773,153.423c1.705-0.745,2.979-3.217,0.567-3.833c-2.596-0.753-2.565,2.665-0.753,3.697
		c0.275-0.368,0.548-0.734,0.873-0.783"/>
	<path d="M278.919,153.8c1.173-0.551,2.542-1.665,2.668-3.057c0.148-1.641-1.786-2.2-3.114-2.158
		c-1.482,0.047-3.724,0.662-4.062,2.363c-0.23,1.159,0.37,2.424,1.365,3.036c0.901,0.555,2.948,0.062,3.578-0.77
		c0.055-0.073,0.11-0.146,0.166-0.218c0.315-0.331,0.196-0.302-0.356,0.084c0.289-0.099,1.712-0.774,1.105-1.27
		c-0.628-0.514-1.865-0.102-2.515,0.121c-0.819,0.281-1.42,0.751-1.936,1.432c1.193-0.256,2.386-0.513,3.578-0.77
		c-0.595-0.366-0.929-0.872-1.099-1.543c-0.069-0.273-0.085-0.555-0.031-0.83c0.011-0.057,0.136-0.38,0.089-0.309
		c0.103-0.114,0.094-0.119-0.024-0.015c-0.543,0.334-1.121,0.495-1.734,0.483c0.666,0.032,1.243,0.552,1.123,1.244
		c-0.055,0.315-0.213,0.61-0.405,0.861c-0.298,0.388-0.376,0.417-0.688,0.563c-0.414,0.194-1.267,0.919-0.422,1.196
		C277.075,154.528,278.135,154.168,278.919,153.8L278.919,153.8z"/>
</g>
<path d="M279.145,185.173c-6.497-0.273-12.609-9.741-10.308-15.858c0.759-2.018,2.431-1.245,4.174-0.172
	c1.808,1.112,2.519,3.439,2.949,5.375c0.874,3.934,0.255,8.197-0.245,12.14c-0.046,0.36,3.724,0.07,3.863-1.035
	c0.659-5.195,1.656-11.545-1.368-16.196c-2.39-3.675-7.937-3.324-11.327-1.462c-3.783,2.078-2.237,7.679-0.865,10.713
	c1.943,4.3,5.752,7.768,10.593,7.972C277.366,186.68,281.009,185.251,279.145,185.173L279.145,185.173z"/>
<path d="M279.587,185.698c0.063-4.992,1.211-14.157,6.325-16.624c1.769-0.854,4.357,0.835,5.428,2.086
	c1.441,1.685,0.557,4.418-0.27,6.134c-2.337,4.85-8.051,6.618-12.957,7.438c-1.92,0.321-3.121,2.799-0.47,2.355
	c6.391-1.069,12.971-3.222,16.669-8.916c3.283-5.054,1.214-10.152-4.588-11.481c-10.306-2.361-13.923,12.013-14.017,19.432
	C275.686,187.875,279.569,187.114,279.587,185.698L279.587,185.698z"/>
<path d="M277.7,187.3c5.473-0.178,10.715-2.771,16.255-2.002c1.394,0.193,2.428,1.042,2.962,2.312
	c1.374,3.268-1.077,5.612-4.188,6.05c-5.86,0.824-9.654-4.22-13.312-7.909c-1.212-1.222-4.871,0.347-3.541,1.688
	c4.933,4.975,8.989,9.475,16.496,8.999c5.291-0.335,9.441-3.668,8.593-9.192c-1.429-9.307-17.646-2.894-22.909-2.724
	C275.879,184.592,275.066,187.385,277.7,187.3L277.7,187.3z"/>
<path d="M275.632,187.164c2.766,4.163,4.473,11.261,1.974,15.862c-2.908,5.355-7.131-2.762-7.123-5.553
	c0.012-4.389,4.458-8.407,7.934-10.403c2.267-1.302-1.068-2.208-2.467-1.405c-4.563,2.621-9.339,7.474-9.354,13.058
	c-0.014,4.981,3.701,8.292,8.468,8.175c10.684-0.262,7.888-15.677,4.134-21.327C278.378,184.337,274.648,185.682,275.632,187.164
	L275.632,187.164z"/>
<path d="M277.186,185.509c-2.363,0.72-4.49,1.789-6.663,2.952c-2.28,1.221-4.949,2.315-7.37,0.772
	c-1.624-1.034-2.178-2.964-2.015-4.766c0.775-8.603,10.709-0.141,13.783,1.944c1.061,0.719,4.523-0.831,3.604-1.455
	c-5.744-3.894-14.213-10.791-19.967-2.868c-2.846,3.917-0.777,8.581,3.655,9.825c5.575,1.565,10.502-3.183,15.434-4.687
	C279.906,186.537,279.474,184.811,277.186,185.509L277.186,185.509z"/>
<g>
	<path d="M278.341,187.734c0.925-1.595,0.463-4.331-1.85-3.417c-2.544,0.911-0.463,3.645,1.618,3.417c0-0.457,0-0.912,0.231-1.14"/>
	<path d="M280.256,187.432c0.506-0.924,0.692-2.24,0.148-3.187c-0.935-1.628-3.418-0.973-4.795-0.433
		c-1.251,0.491-2.786,1.599-2.008,3.102c0.686,1.325,2.306,1.824,3.704,1.72c0.742-0.056,2.731-0.374,2.736-1.417
		c0.001-0.176-0.046-0.543,0.068-0.697c0.516-0.699-0.442-0.846-0.964-0.825c-0.782,0.033-2.067,0.29-2.572,0.973
		c-0.371,0.502-0.393,0.974-0.395,1.583c0.912-0.472,1.824-0.944,2.736-1.417c-0.192,0.009-0.203,0.014-0.033,0.015
		c-0.166-0.021-0.2-0.024-0.102-0.011c-0.148-0.036-0.311-0.091-0.444-0.165c-0.334-0.184-0.616-0.452-0.848-0.752
		c-0.133-0.171-0.262-0.542-0.241-0.761c0.008-0.082,0.089-0.313,0.092-0.317c0.155-0.218-0.02-0.001-0.142,0.047
		c-0.291,0.114-0.676,0.213-0.988,0.128c0.125,0.034,0.099,0.042,0.241,0.169c0.214,0.192,0.292,0.508,0.353,0.779
		c0.159,0.708-0.034,1.447-0.376,2.069c-0.386,0.704,1.381,0.581,1.593,0.547C278.783,188.463,279.853,188.167,280.256,187.432
		L280.256,187.432z"/>
</g>
<path d="M281.744,215.438c-5.212-4.147-4.65-14.342,0.246-18.581c-0.188,0.163,0.57,0.182,1.035,0.415
	c1.013,0.506,1.848,1.513,2.471,2.409c1.199,1.727,0.856,4.016,0.256,5.867c-1.355,4.181-4.928,7.677-7.895,10.76
	c-0.737,0.766,2.871,0.268,3.479-0.363c3.694-3.839,8.005-8.123,8.804-13.62c0.684-4.705-4.188-7.794-8.308-6.69
	c-8.339,2.234-10.193,15.944-3.736,21.081C278.884,217.345,282.209,215.808,281.744,215.438L281.744,215.438z"/>
<path d="M281.547,216.04c2.897-3.742,9.701-10.928,14.921-8.418c3.916,1.883,3.768,6.826,0.541,9.079
	c-4.607,3.216-11.142,0.551-15.567-1.614c-1.244-0.609-4.758,1.144-3.045,1.982c6.044,2.958,12.364,4.55,18.851,2.123
	c5.332-1.995,7.782-6.729,4.462-11.619c-6.137-9.042-19.789,3.104-23.791,8.271C276.782,217.312,280.708,217.123,281.547,216.04
	L281.547,216.04z"/>
<path d="M278.426,217.179c4.716,3.242,11.315,4.055,15.058,8.673c0.923,1.14,1.069,2.489,0.533,3.827
	c-1.44,3.597-4.983,2.126-7.424,0.491c-4.641-3.107-4.621-9.233-5.339-14.195c-0.253-1.753-4.127-0.789-3.863,1.035
	c0.961,6.646,1.426,12.648,7.752,16.322c4.738,2.751,10.627,1.598,12.761-3.735c3.282-8.198-12.012-11.543-16.491-14.623
	C280.03,214.025,276.624,215.94,278.426,217.179L278.426,217.179z"/>
<path d="M277.329,216.377c-0.2,3.952-4.02,15.803-9.676,13.211c-3.646-1.671-2.636-6.731-0.624-9.221
	c2.451-3.032,7.763-3.517,11.34-3.102c1.659,0.192,4.043-2.148,1.434-2.45c-5.322-0.616-11.396,0.665-15.492,4.244
	c-3.13,2.735-4.449,8.899-0.829,11.761c8.919,7.051,17.355-7.395,17.732-14.849C281.304,214.191,277.404,214.9,277.329,216.377
	L277.329,216.377z"/>
<path d="M280.823,215.294c-3.811-1.345-7.994-1.063-11.698-2.721c-3.939-1.762-4.554-7.821,0-9.232
	c4.857-1.505,7.043,9.53,8.067,12.396c0.44,1.233,4.267,0.094,3.863-1.035c-2.239-6.267-4.115-15.643-12.942-12.907
	c-4.156,1.288-7.507,4.954-5.463,9.411c2.445,5.332,10.501,4.236,15.069,5.849C278.793,217.434,282.307,215.818,280.823,215.294
	L280.823,215.294z"/>
<g>
	<path d="M279.194,217.816c1.705-0.745,2.978-3.217,0.566-3.832c-2.596-0.755-2.565,2.663-0.753,3.697
		c0.275-0.368,0.549-0.734,0.873-0.782"/>
	<path d="M280.34,218.193c1.173-0.552,2.542-1.665,2.667-3.057c0.155-1.721-1.896-2.185-3.243-2.155
		c-1.463,0.033-3.668,0.748-3.942,2.422c-0.188,1.146,0.389,2.368,1.375,2.973c0.902,0.555,2.947,0.062,3.578-0.77
		c0.055-0.073,0.11-0.146,0.166-0.218c0.315-0.331,0.196-0.303-0.356,0.084c0.289-0.099,1.712-0.774,1.105-1.27
		c-0.628-0.514-1.864-0.101-2.515,0.121c-0.819,0.28-1.419,0.751-1.936,1.431c1.193-0.256,2.386-0.513,3.578-0.77
		c-0.621-0.382-0.962-0.924-1.117-1.629c-0.06-0.27-0.061-0.53,0-0.797c0.013-0.059,0.158-0.372,0.099-0.286
		c0.103-0.113,0.095-0.114-0.023-0.003c-0.545,0.343-1.127,0.51-1.747,0.503c0.658,0.036,1.231,0.553,1.111,1.242
		c-0.055,0.315-0.212,0.61-0.405,0.861c-0.298,0.388-0.376,0.417-0.688,0.563c-0.414,0.195-1.267,0.919-0.422,1.196
		C278.496,218.921,279.557,218.561,280.34,218.193L280.34,218.193z"/>
</g>
<path d="M270.622,245.367c-6.497-0.273-12.608-9.741-10.307-15.858c0.759-2.018,2.432-1.244,4.174-0.172
	c1.808,1.112,2.52,3.439,2.949,5.375c0.874,3.934,0.255,8.197-0.245,12.14c-0.046,0.36,3.723,0.07,3.863-1.035
	c0.659-5.195,1.657-11.545-1.367-16.195c-2.39-3.675-7.937-3.324-11.327-1.462c-3.783,2.078-2.238,7.679-0.866,10.713
	c1.943,4.3,5.752,7.768,10.593,7.972C268.843,246.874,272.485,245.445,270.622,245.367L270.622,245.367z"/>
<path d="M271.063,245.892c0.063-4.993,1.211-14.157,6.326-16.625c1.77-0.854,4.357,0.835,5.428,2.086
	c1.442,1.685,0.557,4.418-0.27,6.134c-2.337,4.85-8.051,6.618-12.958,7.439c-1.92,0.321-3.121,2.799-0.47,2.355
	c6.392-1.07,12.971-3.222,16.669-8.917c3.283-5.054,1.214-10.152-4.588-11.481c-10.306-2.361-13.924,12.013-14.017,19.433
	C267.162,248.069,271.046,247.308,271.063,245.892L271.063,245.892z"/>
<path d="M269.177,247.494c5.474-0.178,10.716-2.771,16.255-2.002c1.394,0.193,2.428,1.041,2.962,2.311
	c1.374,3.269-1.077,5.612-4.188,6.05c-5.86,0.824-9.654-4.22-13.312-7.909c-1.212-1.223-4.871,0.347-3.541,1.688
	c4.933,4.975,8.989,9.475,16.497,8.999c5.29-0.336,9.441-3.668,8.593-9.192c-1.429-9.307-17.646-2.894-22.91-2.723
	C267.355,244.786,266.542,247.579,269.177,247.494L269.177,247.494z"/>
<path d="M267.109,247.357c2.765,4.164,4.473,11.261,1.974,15.862c-2.909,5.355-7.13-2.762-7.123-5.553
	c0.012-4.389,4.459-8.407,7.935-10.403c2.267-1.302-1.068-2.208-2.467-1.405c-4.563,2.621-9.339,7.474-9.355,13.058
	c-0.014,4.981,3.701,8.292,8.468,8.175c10.684-0.262,7.887-15.677,4.134-21.327C269.855,244.53,266.125,245.875,267.109,247.357
	L267.109,247.357z"/>
<path d="M268.663,245.703c-2.363,0.72-4.49,1.789-6.663,2.952c-2.28,1.221-4.948,2.315-7.37,0.773
	c-1.623-1.034-2.178-2.964-2.016-4.767c0.774-8.603,10.71-0.141,13.784,1.944c1.061,0.719,4.523-0.831,3.604-1.455
	c-5.744-3.895-14.213-10.791-19.968-2.868c-2.846,3.917-0.776,8.582,3.655,9.825c5.575,1.564,10.501-3.183,15.434-4.688
	C271.383,246.73,270.951,245.004,268.663,245.703L268.663,245.703z"/>
<g>
	<path d="M269.818,247.928c0.924-1.595,0.463-4.331-1.85-3.417c-2.544,0.91-0.463,3.646,1.618,3.417c0-0.456,0-0.912,0.232-1.14"/>
	<path d="M271.733,247.625c0.506-0.924,0.692-2.24,0.148-3.187c-0.935-1.628-3.418-0.972-4.795-0.432
		c-1.251,0.491-2.786,1.599-2.008,3.101c0.686,1.325,2.306,1.825,3.704,1.72c0.742-0.056,2.731-0.374,2.736-1.417
		c0.001-0.176-0.045-0.543,0.068-0.697c0.517-0.699-0.442-0.846-0.964-0.825c-0.782,0.033-2.067,0.29-2.572,0.973
		c-0.371,0.502-0.393,0.974-0.396,1.583c0.912-0.472,1.824-0.944,2.736-1.417c-0.192,0.009-0.203,0.014-0.033,0.015
		c-0.166-0.021-0.199-0.024-0.102-0.011c-0.148-0.036-0.311-0.091-0.445-0.165c-0.334-0.184-0.615-0.452-0.847-0.751
		c-0.133-0.172-0.262-0.542-0.241-0.761c0.008-0.083,0.089-0.313,0.092-0.317c0.155-0.218-0.02-0.001-0.142,0.047
		c-0.291,0.114-0.676,0.213-0.988,0.128c0.125,0.034,0.099,0.042,0.241,0.169c0.214,0.192,0.291,0.507,0.352,0.778
		c0.159,0.708-0.034,1.447-0.375,2.069c-0.386,0.704,1.381,0.581,1.593,0.547C270.26,248.656,271.33,248.361,271.733,247.625
		L271.733,247.625z"/>
</g>
<path d="M237.951,246.767c-6.498-0.273-12.609-9.741-10.308-15.859c0.759-2.018,2.432-1.244,4.174-0.172
	c1.808,1.112,2.52,3.439,2.95,5.375c0.874,3.934,0.254,8.197-0.245,12.141c-0.046,0.36,3.724,0.07,3.863-1.035
	c0.659-5.195,1.656-11.546-1.367-16.196c-2.39-3.675-7.937-3.324-11.327-1.462c-3.783,2.078-2.237,7.679-0.866,10.714
	c1.943,4.3,5.752,7.768,10.593,7.972C236.172,248.274,239.814,246.845,237.951,246.767L237.951,246.767z"/>
<path d="M238.393,247.292c0.063-4.992,1.211-14.157,6.325-16.625c1.77-0.854,4.357,0.835,5.428,2.086
	c1.442,1.685,0.557,4.418-0.27,6.134c-2.337,4.85-8.051,6.618-12.957,7.439c-1.92,0.321-3.121,2.799-0.47,2.355
	c6.391-1.07,12.971-3.223,16.669-8.917c3.283-5.054,1.214-10.152-4.587-11.481c-10.306-2.361-13.924,12.013-14.017,19.433
	C234.491,249.469,238.375,248.708,238.393,247.292L238.393,247.292z"/>
<path d="M236.506,248.894c5.474-0.178,10.715-2.771,16.255-2.002c1.394,0.193,2.428,1.041,2.962,2.311
	c1.374,3.269-1.077,5.612-4.188,6.05c-5.86,0.825-9.654-4.219-13.312-7.909c-1.212-1.222-4.871,0.347-3.541,1.688
	c4.933,4.975,8.989,9.475,16.496,8.999c5.29-0.336,9.441-3.668,8.593-9.192c-1.429-9.307-17.646-2.894-22.909-2.723
	C234.685,246.186,233.872,248.979,236.506,248.894L236.506,248.894z"/>
<path d="M234.438,248.757c2.765,4.164,4.473,11.261,1.974,15.862c-2.909,5.355-7.131-2.761-7.123-5.552
	c0.012-4.39,4.458-8.407,7.935-10.403c2.267-1.302-1.068-2.208-2.467-1.405c-4.563,2.621-9.339,7.474-9.355,13.059
	c-0.014,4.981,3.701,8.292,8.468,8.175c10.683-0.263,7.888-15.676,4.135-21.327C237.185,245.93,233.454,247.275,234.438,248.757
	L234.438,248.757z"/>
<path d="M235.992,247.103c-2.363,0.72-4.491,1.789-6.664,2.952c-2.28,1.221-4.948,2.315-7.37,0.773
	c-1.623-1.034-2.178-2.964-2.016-4.767c0.774-8.603,10.71-0.14,13.784,1.944c1.061,0.719,4.523-0.831,3.604-1.455
	c-5.744-3.894-14.213-10.79-19.968-2.868c-2.846,3.917-0.776,8.581,3.655,9.824c5.575,1.564,10.502-3.183,15.435-4.687
	C238.712,248.13,238.28,246.405,235.992,247.103L235.992,247.103z"/>
<g>
	<path d="M237.146,249.328c0.925-1.595,0.463-4.331-1.85-3.418c-2.544,0.911-0.463,3.645,1.618,3.418c0-0.457,0-0.912,0.231-1.14"/>
	<path d="M239.062,249.025c0.506-0.924,0.692-2.24,0.148-3.188c-0.935-1.628-3.418-0.973-4.795-0.433
		c-1.251,0.491-2.786,1.599-2.008,3.102c0.686,1.325,2.306,1.825,3.704,1.72c0.741-0.055,2.731-0.374,2.736-1.417
		c0.001-0.176-0.046-0.543,0.068-0.697c0.517-0.699-0.442-0.846-0.964-0.825c-0.782,0.033-2.067,0.29-2.572,0.973
		c-0.371,0.502-0.393,0.974-0.395,1.583c0.912-0.472,1.824-0.944,2.736-1.417c-0.192,0.009-0.203,0.014-0.033,0.015
		c-0.166-0.021-0.2-0.024-0.102-0.011c-0.148-0.036-0.311-0.091-0.444-0.165c-0.334-0.184-0.615-0.452-0.847-0.751
		c-0.133-0.172-0.263-0.542-0.241-0.761c0.008-0.082,0.089-0.313,0.092-0.317c0.155-0.218-0.02-0.001-0.142,0.047
		c-0.291,0.114-0.676,0.213-0.988,0.128c0.125,0.034,0.099,0.042,0.241,0.169c0.214,0.192,0.291,0.508,0.353,0.779
		c0.159,0.708-0.034,1.447-0.376,2.069c-0.386,0.704,1.381,0.581,1.593,0.547C237.589,250.057,238.658,249.761,239.062,249.025
		L239.062,249.025z"/>
</g>
<path d="M340.886,322.259c-3.335-0.141-6.396-5.293-5.247-8.35c0.398-1.06,1.168-0.261-1.089-0.159
	c0.586-0.025,1.126,0.23,1.609,0.527c0.948,0.582,1.311,1.82,1.536,2.832c0.47,2.115,0.137,4.406-0.131,6.522
	c-0.05,0.36,3.724,0.07,3.859-1.032c0.354-2.791,0.894-6.205-0.731-8.705c-1.604-2.465-5.521-1.729-7.659-0.549
	c-2.193,1.201-1.511,4.163-0.685,6.002c1.112,2.459,3.267,4.271,6.002,4.385c0.896,0.039,1.965-0.282,2.731-0.73
	C341.732,322.625,341.59,322.288,340.886,322.259L340.886,322.259z"/>
<path d="M341.435,322.784c0.021-1.546,0.281-3.071,0.688-4.562c0.324-1.19,0.956-3.271,2.183-3.859
	c-0.265,0.127,0.037,0.068,0.246,0.115c0.592,0.137,1.093,0.5,1.479,0.948c0.663,0.774,0.219,2.106-0.158,2.892
	c-1.099,2.279-3.701,3.108-6.017,3.5c-0.769,0.127-1.993,0.477-2.178,1.39c-0.174,0.879,1.118,1.063,1.705,0.966
	c3.787-0.635,7.713-1.916,9.907-5.293c1.934-2.977,0.62-5.963-2.768-6.738c-6.29-1.438-8.907,6.229-8.972,11.065
	C337.533,324.961,341.417,324.199,341.435,322.784L341.435,322.784z"/>
<path d="M339.441,324.385c2.854-0.092,5.627-1.479,8.507-1.08c1.797,0.25,1.407,2.979-0.269,3.213
	c-2.779,0.396-4.687-2.252-6.418-3.998c-1.212-1.223-4.871,0.35-3.541,1.688c2.876,2.901,5.235,5.367,9.604,5.089
	c3.297-0.211,6.132-2.328,5.595-5.822c-0.849-5.524-9.951-1.97-13.125-1.865C337.62,321.678,336.807,324.471,339.441,324.385
	L339.441,324.385z"/>
<path d="M337.587,324.036c1.39,2.093,2.305,5.784,1.044,8.104c-0.729,1.342-2.09-2.392-2.089-3.025
	c0.006-2.201,2.191-4.17,3.938-5.174c0.616-0.355,1.067-1.269,0.28-1.713c-0.854-0.484-1.968-0.145-2.75,0.31
	c-2.573,1.479-5.348,4.276-5.354,7.437c-0.009,3.158,2.396,4.938,5.345,4.863c6.495-0.158,5.637-8.652,3.151-12.395
	C340.333,321.209,336.603,322.555,337.587,324.036L337.587,324.036z"/>
<path d="M339.141,322.382c-1.423,0.435-2.709,1.062-4.018,1.763c-0.85,0.455-1.672,0.883-2.585,0.301
	c-0.795-0.506-1.107-1.45-1.027-2.351c0.076-0.421,0.231-0.812,0.466-1.175c0.395-0.322,0.429-0.45,0.105-0.386
	c0.737,0.103,1.518,0.591,2.138,0.972c1.034,0.635,1.977,1.414,2.979,2.094c1.062,0.719,4.521-0.832,3.604-1.455
	c-1.872-1.268-3.663-2.934-5.921-3.465c-2.396-0.562-5.007,0.256-6.469,2.271c-1.634,2.25-0.506,4.953,2.072,5.682
	c3.439,0.973,6.074-1.604,9.116-2.527c0.479-0.146,1.907-0.611,1.702-1.375C341.104,321.98,339.617,322.236,339.141,322.382
	L339.141,322.382z"/>
<g>
	<path d="M339.867,323.975c0.498-0.854,0.25-2.326-0.994-1.836c-1.367,0.489-0.248,1.959,0.871,1.836c0-0.244,0-0.488,0.124-0.607"
		/>
	<path d="M341.783,323.672c0.333-0.619,0.383-1.436-0.049-2.013c-0.765-1.019-2.775-0.415-3.689-0.046
		c-0.799,0.322-2.146,1.084-1.623,2.15c0.449,0.91,1.59,1.17,2.521,1.105c0.675-0.043,1.349-0.207,1.946-0.521
		c0.359-0.188,0.783-0.445,0.786-0.896c0,0.021,0.048-0.296-0.04-0.168c0.486-0.705-0.416-0.851-0.964-0.824
		c-0.514,0.021-1.029,0.142-1.509,0.324c-0.332,0.127-0.848,0.336-1.063,0.646c-0.249,0.36-0.28,0.623-0.283,1.059
		c0.908-0.475,1.82-0.944,2.732-1.416c-0.177,0.009-0.144,0.011,0.104,0.004c0.303,0.029,0.012-0.021-0.065-0.059
		c0.088,0.039,0.079,0.025-0.028-0.037c-0.084-0.059-0.151-0.131-0.225-0.201c-0.071-0.073-0.099-0.154-0.139-0.307
		c-0.051-0.174-0.045,0.061-0.01-0.111c0.038-0.163-0.052,0.025-0.134,0.096c-0.549,0.354-1.165,0.518-1.847,0.477
		c-0.072-0.004-0.347-0.142-0.198-0.018c0.062,0.055,0.109,0.189,0.148,0.376c0.067,0.339-0.033,0.67-0.201,0.979
		c-0.38,0.707,1.376,0.582,1.593,0.547C340.304,324.704,341.386,324.408,341.783,323.672L341.783,323.672z"/>
</g>
<path d="M356.423,330.891c-3.335-0.141-6.396-5.293-5.248-8.35c0.398-1.059,1.169-0.262-1.089-0.159
	c0.586-0.026,1.126,0.229,1.609,0.527c0.944,0.583,1.311,1.819,1.536,2.833c0.47,2.113,0.137,4.406-0.135,6.525
	c-0.046,0.356,3.728,0.066,3.863-1.035c0.354-2.793,0.895-6.207-0.731-8.705c-1.604-2.465-5.521-1.729-7.66-0.549
	c-2.193,1.205-1.514,4.164-0.685,6c1.112,2.461,3.267,4.271,6.001,4.387c0.897,0.037,1.962-0.283,2.732-0.731
	C357.27,331.257,357.128,330.92,356.423,330.891L356.423,330.891z"/>
<path d="M356.972,331.416c0.021-1.545,0.281-3.071,0.688-4.561c0.324-1.191,0.957-3.271,2.183-3.861
	c-0.265,0.128,0.037,0.068,0.246,0.117c0.592,0.136,1.093,0.498,1.479,0.949c0.659,0.772,0.219,2.105-0.158,2.891
	c-1.102,2.279-3.701,3.109-6.021,3.499c-0.765,0.128-1.989,0.477-2.175,1.39c-0.174,0.879,1.119,1.064,1.705,0.967
	c3.787-0.636,7.714-1.916,9.907-5.293c1.934-2.978,0.621-5.964-2.771-6.738c-6.29-1.438-8.904,6.229-8.968,11.064
	C353.07,333.593,356.954,332.831,356.972,331.416L356.972,331.416z"/>
<path d="M354.979,333.018c2.854-0.093,5.631-1.479,8.511-1.08c1.797,0.25,1.404,2.979-0.269,3.213
	c-2.78,0.395-4.687-2.254-6.418-3.998c-1.212-1.223-4.872,0.35-3.541,1.688c2.877,2.901,5.235,5.367,9.604,5.091
	c3.297-0.213,6.132-2.328,5.595-5.822c-0.849-5.526-9.951-1.971-13.125-1.864C353.157,330.311,352.344,333.104,354.979,333.018
	L354.979,333.018z"/>
<path d="M353.125,332.668c1.39,2.093,2.305,5.783,1.045,8.104c-0.729,1.347-2.091-2.388-2.089-3.021
	c0.006-2.201,2.192-4.17,3.938-5.173c0.62-0.354,1.071-1.269,0.284-1.716c-0.854-0.482-1.968-0.143-2.75,0.312
	c-2.576,1.479-5.348,4.277-5.354,7.438c-0.008,3.158,2.396,4.936,5.346,4.863c6.495-0.16,5.637-8.652,3.151-12.396
	C355.871,329.842,352.14,331.188,353.125,332.668L353.125,332.668z"/>
<path d="M354.678,331.014c-1.423,0.438-2.709,1.062-4.018,1.764c-0.854,0.455-1.672,0.885-2.585,0.304
	c-0.795-0.511-1.107-1.454-1.027-2.354c0.076-0.42,0.231-0.812,0.466-1.174c0.395-0.322,0.429-0.451,0.104-0.387
	c0.737,0.104,1.518,0.591,2.138,0.973c1.034,0.635,1.973,1.414,2.979,2.094c1.062,0.722,4.521-0.832,3.604-1.455
	c-1.872-1.269-3.663-2.934-5.921-3.465c-2.398-0.562-5.007,0.254-6.469,2.271c-1.633,2.25-0.506,4.957,2.071,5.685
	c3.441,0.969,6.076-1.604,9.117-2.529c0.479-0.146,1.907-0.612,1.702-1.377C356.641,330.611,355.154,330.868,354.678,331.014
	L354.678,331.014z"/>
<g>
	<path d="M355.405,332.605c0.498-0.855,0.249-2.326-0.994-1.836c-1.367,0.486-0.249,1.959,0.87,1.836c0-0.244,0-0.487,0.124-0.61"/>
	<path d="M357.32,332.305c0.333-0.619,0.383-1.436-0.049-2.014c-0.765-1.018-2.775-0.415-3.689-0.046
		c-0.799,0.323-2.146,1.084-1.623,2.149c0.449,0.916,1.59,1.17,2.518,1.106c0.679-0.043,1.353-0.207,1.95-0.521
		c0.359-0.188,0.783-0.444,0.786-0.896c0,0.021,0.048-0.295-0.04-0.168c0.488-0.705-0.417-0.85-0.964-0.823
		c-0.514,0.021-1.029,0.142-1.509,0.323c-0.333,0.128-0.847,0.336-1.063,0.646c-0.249,0.357-0.285,0.623-0.288,1.057
		c0.912-0.475,1.824-0.942,2.736-1.416c-0.177,0.009-0.144,0.011,0.104,0.004c0.303,0.032,0.012-0.021-0.065-0.059
		c0.088,0.039,0.079,0.026-0.028-0.035c-0.083-0.059-0.151-0.133-0.225-0.203c-0.071-0.073-0.103-0.154-0.139-0.305
		c-0.051-0.174-0.049,0.059-0.01-0.112c0.037-0.164-0.052,0.026-0.134,0.095c-0.549,0.355-1.165,0.518-1.847,0.477
		c-0.072-0.006-0.347-0.142-0.198-0.018c0.062,0.055,0.109,0.193,0.148,0.376c0.067,0.341-0.033,0.673-0.201,0.979
		c-0.38,0.705,1.376,0.58,1.593,0.549C355.842,333.336,356.924,333.04,357.32,332.305L357.32,332.305z"/>
</g>
<path d="M374.55,328.301c-3.334-0.141-6.396-5.292-5.248-8.35c0.398-1.059,1.169-0.26-1.089-0.158
	c0.586-0.025,1.126,0.23,1.609,0.527c0.944,0.582,1.311,1.818,1.536,2.832c0.47,2.115,0.137,4.406-0.135,6.522
	c-0.046,0.36,3.728,0.07,3.863-1.032c0.354-2.791,0.895-6.205-0.731-8.705c-1.604-2.465-5.521-1.729-7.66-0.549
	c-2.193,1.201-1.514,4.161-0.685,6c1.112,2.461,3.267,4.271,6.001,4.387c0.897,0.037,1.962-0.283,2.732-0.731
	C375.397,328.667,375.255,328.33,374.55,328.301L374.55,328.301z"/>
<path d="M375.099,328.826c0.021-1.545,0.281-3.071,0.688-4.561c0.324-1.191,0.957-3.271,2.183-3.861
	c-0.265,0.129,0.037,0.07,0.246,0.117c0.592,0.137,1.093,0.5,1.479,0.951c0.663,0.771,0.219,2.104-0.158,2.889
	c-1.098,2.279-3.701,3.109-6.021,3.498c-0.765,0.129-1.989,0.478-2.175,1.391c-0.174,0.879,1.119,1.064,1.705,0.966
	c3.787-0.635,7.714-1.916,9.907-5.292c1.934-2.979,0.62-5.963-2.769-6.738c-6.289-1.438-8.907,6.229-8.971,11.064
	C371.197,331.003,375.081,330.241,375.099,328.826L375.099,328.826z"/>
<path d="M373.105,330.427c2.854-0.092,5.627-1.479,8.507-1.079c1.797,0.25,1.404,2.979-0.269,3.213
	c-2.779,0.396-4.688-2.252-6.418-3.998c-1.212-1.224-4.871,0.349-3.541,1.688c2.876,2.899,5.235,5.367,9.604,5.089
	c3.297-0.21,6.132-2.326,5.595-5.82c-0.849-5.525-9.951-1.972-13.125-1.867C371.284,327.721,370.471,330.514,373.105,330.427
	L373.105,330.427z"/>
<path d="M371.251,330.079c1.391,2.092,2.305,5.782,1.045,8.104c-0.729,1.344-2.091-2.391-2.089-3.024
	c0.006-2.201,2.192-4.17,3.938-5.173c0.62-0.356,1.071-1.266,0.284-1.713c-0.854-0.485-1.968-0.146-2.75,0.309
	c-2.575,1.479-5.348,4.275-5.354,7.438c-0.008,3.156,2.396,4.938,5.346,4.861c6.494-0.16,5.639-8.65,3.151-12.393
	C373.997,327.253,370.267,328.598,371.251,330.079L371.251,330.079z"/>
<path d="M372.805,328.425c-1.423,0.435-2.709,1.062-4.018,1.763c-0.854,0.455-1.672,0.881-2.585,0.301
	c-0.795-0.508-1.107-1.451-1.027-2.352c0.076-0.421,0.231-0.812,0.466-1.175c0.395-0.321,0.429-0.45,0.104-0.386
	c0.737,0.104,1.518,0.591,2.138,0.972c1.034,0.636,1.977,1.414,2.979,2.095c1.061,0.719,4.521-0.83,3.604-1.455
	c-1.872-1.269-3.663-2.934-5.921-3.465c-2.396-0.562-5.007,0.254-6.469,2.271c-1.634,2.25-0.506,4.957,2.073,5.682
	c3.438,0.972,6.074-1.604,9.115-2.526c0.479-0.146,1.907-0.611,1.702-1.375C374.768,328.023,373.281,328.279,372.805,328.425
	L372.805,328.425z"/>
<g>
	<path d="M373.532,330.018c0.498-0.854,0.249-2.326-0.994-1.836c-1.367,0.488-0.249,1.959,0.87,1.836c0-0.244,0-0.488,0.124-0.608"
		/>
	<path d="M375.447,329.715c0.333-0.619,0.383-1.436-0.049-2.014c-0.766-1.018-2.774-0.414-3.689-0.045
		c-0.799,0.322-2.146,1.084-1.623,2.148c0.449,0.912,1.59,1.172,2.518,1.107c0.679-0.043,1.353-0.207,1.95-0.521
		c0.359-0.188,0.783-0.445,0.786-0.896c0,0.021,0.048-0.296-0.04-0.169c0.488-0.705-0.417-0.85-0.964-0.824
		c-0.514,0.021-1.029,0.143-1.509,0.324c-0.333,0.128-0.847,0.336-1.063,0.646c-0.249,0.358-0.281,0.622-0.288,1.057
		c0.912-0.473,1.824-0.943,2.736-1.415c-0.177,0.009-0.144,0.011,0.104,0.004c0.303,0.03,0.012-0.021-0.065-0.058
		c0.088,0.039,0.079,0.024-0.028-0.037c-0.083-0.06-0.151-0.133-0.225-0.203c-0.071-0.073-0.103-0.153-0.139-0.305
		c-0.051-0.175-0.049,0.059-0.01-0.115c0.037-0.16-0.052,0.029-0.134,0.099c-0.549,0.354-1.165,0.517-1.847,0.476
		c-0.072-0.004-0.347-0.141-0.198-0.017c0.062,0.054,0.109,0.19,0.148,0.376c0.067,0.339-0.033,0.67-0.201,0.979
		c-0.38,0.707,1.376,0.582,1.593,0.549C373.969,330.747,375.051,330.451,375.447,329.715L375.447,329.715z"/>
</g>
<path d="M384.045,316.217c-3.335-0.141-6.396-5.293-5.248-8.35c0.398-1.059,1.169-0.262-1.089-0.159
	c0.586-0.026,1.126,0.229,1.609,0.526c0.944,0.584,1.311,1.82,1.536,2.834c0.47,2.113,0.137,4.406-0.135,6.521
	c-0.046,0.36,3.728,0.07,3.863-1.031c0.354-2.793,0.89-6.207-0.735-8.705c-1.603-2.465-5.518-1.729-7.656-0.549
	c-2.193,1.201-1.514,4.161-0.685,6c1.112,2.461,3.267,4.271,6.001,4.387c0.897,0.037,1.962-0.283,2.732-0.731
	C384.892,316.583,384.75,316.246,384.045,316.217L384.045,316.217z"/>
<path d="M384.594,316.742c0.021-1.545,0.281-3.071,0.688-4.561c0.32-1.191,0.957-3.271,2.183-3.861
	c-0.265,0.128,0.036,0.068,0.245,0.117c0.592,0.136,1.094,0.498,1.479,0.949c0.659,0.771,0.219,2.104-0.158,2.889
	c-1.102,2.279-3.701,3.111-6.02,3.5c-0.765,0.129-1.993,0.478-2.175,1.391c-0.174,0.879,1.119,1.064,1.705,0.966
	c3.787-0.635,7.713-1.916,9.907-5.293c1.934-2.978,0.62-5.963-2.771-6.737c-6.29-1.438-8.903,6.229-8.968,11.064
	C380.692,318.919,384.576,318.157,384.594,316.742L384.594,316.742z"/>
<path d="M382.601,318.343c2.854-0.092,5.628-1.479,8.511-1.079c1.798,0.25,1.404,2.979-0.268,3.213
	c-2.783,0.396-4.688-2.254-6.418-4c-1.212-1.223-4.871,0.35-3.541,1.688c2.876,2.901,5.235,5.368,9.604,5.089
	c3.297-0.21,6.132-2.327,5.595-5.822c-0.849-5.527-9.951-1.969-13.125-1.865C380.779,315.636,379.966,318.43,382.601,318.343
	L382.601,318.343z"/>
<path d="M380.747,317.994c1.39,2.093,2.305,5.783,1.045,8.104c-0.729,1.344-2.091-2.387-2.089-3.021
	c0.006-2.201,2.191-4.173,3.938-5.177c0.62-0.354,1.071-1.266,0.284-1.713c-0.854-0.481-1.968-0.142-2.75,0.312
	c-2.576,1.479-5.348,4.273-5.354,7.438c-0.012,3.156,2.396,4.937,5.346,4.86c6.494-0.161,5.637-8.647,3.151-12.396
	C383.493,315.167,379.762,316.514,380.747,317.994L380.747,317.994z"/>
<path d="M382.3,316.34c-1.423,0.434-2.709,1.062-4.018,1.764c-0.854,0.455-1.673,0.881-2.585,0.301
	c-0.796-0.508-1.108-1.452-1.027-2.353c0.075-0.421,0.231-0.812,0.466-1.175c0.395-0.322,0.425-0.45,0.104-0.386
	c0.733,0.103,1.518,0.591,2.138,0.972c1.034,0.635,1.973,1.414,2.976,2.096c1.062,0.719,4.523-0.832,3.604-1.455
	c-1.872-1.27-3.663-2.935-5.921-3.467c-2.398-0.562-5.007,0.256-6.469,2.271c-1.638,2.25-0.506,4.958,2.069,5.683
	c3.442,0.972,6.078-1.604,9.119-2.526c0.479-0.146,1.907-0.612,1.702-1.377C384.263,315.938,382.776,316.193,382.3,316.34
	L382.3,316.34z"/>
<g>
	<path d="M383.027,317.934c0.498-0.854,0.249-2.328-0.994-1.838c-1.368,0.49-0.249,1.961,0.87,1.838c0-0.244,0-0.49,0.124-0.613"/>
	<path d="M384.942,317.63c0.333-0.618,0.383-1.437-0.053-2.014c-0.761-1.019-2.771-0.414-3.688-0.046
		c-0.799,0.324-2.147,1.084-1.623,2.15c0.449,0.912,1.59,1.17,2.518,1.106c0.679-0.043,1.353-0.207,1.95-0.521
		c0.359-0.188,0.783-0.445,0.786-0.896c0,0.021,0.048-0.296-0.04-0.169c0.488-0.705-0.417-0.851-0.964-0.824
		c-0.514,0.021-1.029,0.142-1.509,0.324c-0.333,0.128-0.852,0.336-1.063,0.646c-0.249,0.359-0.285,0.625-0.288,1.057
		c0.912-0.473,1.824-0.942,2.736-1.414c-0.177,0.009-0.145,0.011,0.1,0.004c0.307,0.029,0.016-0.022-0.062-0.059
		c0.088,0.039,0.079,0.025-0.028-0.037c-0.083-0.059-0.152-0.131-0.225-0.203c-0.072-0.071-0.103-0.152-0.143-0.303
		c-0.047-0.175-0.046,0.059-0.007-0.115c0.038-0.162-0.052,0.029-0.134,0.098c-0.548,0.355-1.164,0.518-1.847,0.475
		c-0.072-0.005-0.351-0.14-0.198-0.016c0.062,0.052,0.109,0.191,0.148,0.376c0.067,0.339-0.033,0.67-0.201,0.979
		c-0.38,0.705,1.376,0.58,1.593,0.547C383.464,318.662,384.546,318.366,384.942,317.63L384.942,317.63z"/>
</g>
<path d="M377.14,301.542c-3.335-0.142-6.396-5.292-5.247-8.35c0.398-1.058,1.168-0.261-1.089-0.159
	c0.586-0.026,1.126,0.231,1.609,0.528c0.948,0.583,1.311,1.82,1.536,2.833c0.469,2.115,0.137,4.406-0.132,6.526
	c-0.046,0.359,3.724,0.07,3.859-1.035c0.354-2.792,0.895-6.206-0.731-8.706c-1.604-2.465-5.521-1.726-7.659-0.549
	c-2.193,1.205-1.511,4.165-0.681,6.001c1.108,2.46,3.263,4.271,6.001,4.387c0.896,0.037,1.962-0.283,2.729-0.729
	C377.986,301.908,377.844,301.57,377.14,301.542L377.14,301.542z"/>
<path d="M377.688,302.066c0.021-1.545,0.281-3.071,0.688-4.562c0.324-1.192,0.957-3.269,2.183-3.861
	c-0.265,0.127,0.037,0.069,0.246,0.117c0.595,0.136,1.097,0.499,1.479,0.951c0.663,0.774,0.219,2.107-0.158,2.889
	c-1.098,2.279-3.701,3.11-6.017,3.5c-0.769,0.129-1.993,0.479-2.178,1.392c-0.174,0.879,1.118,1.063,1.705,0.966
	c3.787-0.635,7.713-1.915,9.907-5.292c1.937-2.977,0.62-5.963-2.768-6.739c-6.29-1.44-8.908,6.229-8.973,11.065
	C373.787,304.244,377.67,303.482,377.688,302.066L377.688,302.066z"/>
<path d="M375.695,303.668c2.854-0.092,5.627-1.479,8.507-1.079c1.797,0.249,1.407,2.978-0.269,3.212
	c-2.779,0.393-4.688-2.252-6.418-3.998c-1.212-1.223-4.867,0.346-3.541,1.688c2.878,2.901,5.235,5.366,9.604,5.089
	c3.297-0.21,6.132-2.327,5.595-5.822c-0.849-5.528-9.951-1.969-13.125-1.867C373.874,300.961,373.061,303.754,375.695,303.668
	L375.695,303.668z"/>
<path d="M373.841,303.32c1.394,2.092,2.309,5.783,1.044,8.104c-0.729,1.344-2.09-2.387-2.089-3.023
	c0.006-2.198,2.191-4.17,3.938-5.174c0.617-0.354,1.067-1.266,0.28-1.713c-0.854-0.484-1.968-0.142-2.75,0.312
	c-2.572,1.479-5.348,4.273-5.354,7.438c-0.009,3.156,2.396,4.938,5.345,4.861c6.494-0.161,5.643-8.646,3.151-12.396
	C376.587,300.494,372.857,301.839,373.841,303.32L373.841,303.32z"/>
<path d="M375.395,301.666c-1.423,0.434-2.709,1.061-4.018,1.762c-0.85,0.455-1.672,0.883-2.585,0.301
	c-0.795-0.506-1.107-1.453-1.027-2.351c0.076-0.421,0.231-0.812,0.47-1.174c0.391-0.322,0.425-0.451,0.104-0.386
	c0.737,0.103,1.52,0.591,2.138,0.971c1.034,0.635,1.977,1.415,2.979,2.094c1.062,0.719,4.521-0.832,3.604-1.455
	c-1.872-1.268-3.662-2.934-5.921-3.465c-2.396-0.564-5.007,0.255-6.469,2.268c-1.634,2.25-0.506,4.957,2.072,5.681
	c3.439,0.969,6.078-1.604,9.12-2.529c0.478-0.146,1.903-0.611,1.698-1.376C377.357,301.266,375.871,301.521,375.395,301.666
	L375.395,301.666z"/>
<g>
	<path d="M376.121,303.259c0.498-0.856,0.25-2.327-0.994-1.837c-1.367,0.489-0.248,1.96,0.871,1.837c0-0.245,0-0.489,0.124-0.612"/>
	<path d="M378.037,302.956c0.333-0.619,0.383-1.437-0.049-2.013c-0.765-1.021-2.774-0.416-3.689-0.045
		c-0.799,0.319-2.146,1.084-1.623,2.146c0.449,0.915,1.59,1.171,2.521,1.106c0.675-0.043,1.349-0.203,1.946-0.521
		c0.359-0.188,0.783-0.444,0.786-0.896c0,0.021,0.052-0.297-0.04-0.168c0.486-0.705-0.416-0.849-0.964-0.823
		c-0.514,0.021-1.025,0.14-1.509,0.323c-0.332,0.127-0.848,0.336-1.062,0.646c-0.249,0.36-0.284,0.624-0.287,1.058
		c0.912-0.473,1.82-0.942,2.732-1.416c-0.177,0.01-0.144,0.013,0.104,0.004c0.303,0.033,0.012-0.021-0.065-0.056
		c0.088,0.038,0.079,0.024-0.028-0.036c-0.084-0.061-0.151-0.132-0.225-0.205c-0.071-0.072-0.099-0.152-0.139-0.305
		c-0.047-0.174-0.045,0.059-0.006-0.113c0.034-0.162-0.056,0.027-0.138,0.098c-0.549,0.355-1.165,0.516-1.847,0.473
		c-0.072-0.004-0.347-0.138-0.198-0.014c0.062,0.052,0.109,0.191,0.148,0.376c0.069,0.339-0.033,0.67-0.201,0.979
		c-0.38,0.707,1.376,0.582,1.593,0.547C376.558,303.988,377.64,303.691,378.037,302.956L378.037,302.956z"/>
</g>
<path d="M364.192,291.184c-3.335-0.14-6.397-5.292-5.247-8.349c0.396-1.058,1.168-0.261-1.089-0.159
	c0.586-0.026,1.126,0.231,1.605,0.528c0.948,0.583,1.312,1.82,1.536,2.833c0.469,2.115,0.137,4.406-0.132,6.525
	c-0.046,0.36,3.724,0.07,3.862-1.035c0.354-2.792,0.892-6.206-0.733-8.705c-1.604-2.465-5.521-1.725-7.66-0.549
	c-2.193,1.205-1.511,4.165-0.681,6c1.108,2.46,3.263,4.271,6.001,4.387c0.896,0.038,1.962-0.284,2.729-0.732
	C365.039,291.55,364.896,291.213,364.192,291.184L364.192,291.184z"/>
<path d="M364.74,291.709c0.02-1.545,0.281-3.071,0.686-4.56c0.324-1.192,0.957-3.27,2.187-3.861
	c-0.269,0.127,0.036,0.069,0.246,0.117c0.592,0.136,1.093,0.499,1.479,0.951c0.663,0.774,0.219,2.107-0.158,2.889
	c-1.098,2.279-3.7,3.111-6.017,3.5c-0.769,0.128-1.993,0.477-2.175,1.39c-0.178,0.878,1.118,1.064,1.705,0.965
	c3.783-0.635,7.713-1.916,9.903-5.292c1.938-2.977,0.62-5.963-2.768-6.739c-6.29-1.44-8.908,6.229-8.968,11.066
	C360.839,293.886,364.723,293.125,364.74,291.709L364.74,291.709z"/>
<path d="M362.747,293.311c2.854-0.093,5.627-1.479,8.507-1.08c1.797,0.249,1.407,2.976-0.265,3.212
	c-2.783,0.392-4.688-2.253-6.418-3.999c-1.212-1.223-4.871,0.347-3.541,1.688c2.876,2.901,5.231,5.367,9.603,5.088
	c3.297-0.21,6.132-2.327,5.595-5.823c-0.849-5.527-9.947-1.968-13.125-1.866C360.926,290.603,360.113,293.396,362.747,293.311
	L362.747,293.311z"/>
<path d="M360.894,292.962c1.394,2.092,2.309,5.783,1.048,8.104c-0.729,1.344-2.094-2.387-2.093-3.024
	c0.01-2.201,2.191-4.17,3.938-5.172c0.62-0.356,1.07-1.266,0.284-1.713c-0.855-0.486-1.972-0.142-2.75,0.308
	c-2.576,1.479-5.352,4.278-5.356,7.437c-0.009,3.157,2.396,4.935,5.345,4.862c6.494-0.16,5.642-8.646,3.151-12.393
	C363.64,290.135,359.909,291.48,360.894,292.962L360.894,292.962z"/>
<path d="M362.447,291.308c-1.423,0.434-2.709,1.061-4.021,1.762c-0.85,0.456-1.672,0.882-2.585,0.301
	c-0.795-0.507-1.104-1.455-1.023-2.351c0.072-0.421,0.229-0.812,0.466-1.174c0.391-0.322,0.425-0.451,0.104-0.386
	c0.737,0.103,1.521,0.591,2.142,0.972c1.03,0.635,1.973,1.414,2.976,2.094c1.062,0.719,4.523-0.832,3.604-1.455
	c-1.872-1.268-3.663-2.934-5.925-3.465c-2.396-0.565-5.007,0.255-6.469,2.268c-1.634,2.25-0.506,4.957,2.072,5.682
	c3.441,0.968,6.078-1.603,9.12-2.53c0.478-0.146,1.907-0.612,1.702-1.376C364.41,290.906,362.923,291.162,362.447,291.308
	L362.447,291.308z"/>
<g>
	<path d="M363.173,292.9c0.498-0.856,0.25-2.326-0.994-1.836c-1.363,0.49-0.248,1.959,0.871,1.836c0-0.244,0-0.489,0.124-0.612"/>
	<path d="M365.089,292.597c0.333-0.619,0.383-1.435-0.049-2.013c-0.761-1.018-2.775-0.415-3.689-0.045
		c-0.799,0.323-2.146,1.083-1.623,2.149c0.449,0.915,1.594,1.17,2.521,1.11c0.675-0.044,1.349-0.208,1.95-0.522
		c0.355-0.188,0.782-0.446,0.786-0.894c0,0.021,0.048-0.297-0.04-0.168c0.482-0.705-0.416-0.848-0.964-0.825
		c-0.518,0.021-1.029,0.141-1.513,0.324c-0.332,0.128-0.848,0.337-1.062,0.649c-0.248,0.36-0.284,0.624-0.287,1.055
		c0.912-0.472,1.824-0.944,2.736-1.417c-0.181,0.01-0.146,0.011,0.099,0.004c0.304,0.032,0.013-0.022-0.064-0.055
		c0.092,0.039,0.079,0.026-0.024-0.037c-0.083-0.058-0.155-0.131-0.229-0.204c-0.067-0.074-0.099-0.154-0.139-0.303
		c-0.047-0.174-0.045,0.056-0.006-0.114c0.038-0.164-0.052,0.029-0.134,0.096c-0.553,0.356-1.165,0.514-1.851,0.473
		c-0.068-0.004-0.347-0.138-0.194-0.014c0.062,0.052,0.105,0.193,0.146,0.376c0.071,0.338-0.033,0.669-0.201,0.981
		c-0.38,0.706,1.376,0.581,1.594,0.547C363.61,293.629,364.692,293.334,365.089,292.597L365.089,292.597z"/>
</g>
<path d="M348.654,290.32c-3.335-0.14-6.397-5.292-5.247-8.349c0.396-1.058,1.168-0.261-1.089-0.159
	c0.586-0.026,1.126,0.231,1.605,0.528c0.948,0.583,1.312,1.82,1.536,2.833c0.47,2.114,0.137,4.406-0.131,6.525
	c-0.046,0.36,3.724,0.07,3.863-1.035c0.354-2.792,0.89-6.206-0.735-8.706c-1.604-2.465-5.518-1.725-7.66-0.549
	c-2.189,1.205-1.511,4.165-0.681,6c1.11,2.46,3.263,4.271,6.001,4.387c0.896,0.038,1.962-0.284,2.729-0.732
	C349.501,290.687,349.359,290.35,348.654,290.32L348.654,290.32z"/>
<path d="M349.203,290.846c0.02-1.545,0.281-3.071,0.686-4.56c0.324-1.192,0.957-3.27,2.187-3.861
	c-0.269,0.127,0.037,0.069,0.246,0.117c0.592,0.136,1.093,0.5,1.479,0.951c0.663,0.774,0.218,2.107-0.158,2.889
	c-1.099,2.279-3.697,3.111-6.017,3.5c-0.765,0.128-1.993,0.477-2.174,1.39c-0.174,0.878,1.118,1.064,1.705,0.965
	c3.787-0.635,7.713-1.916,9.903-5.292c1.938-2.977,0.621-5.963-2.767-6.739c-6.29-1.44-8.908,6.229-8.968,11.066
	C345.302,293.023,349.186,292.261,349.203,290.846L349.203,290.846z"/>
<path d="M347.209,292.447c2.854-0.093,5.627-1.479,8.507-1.08c1.798,0.25,1.408,2.977-0.265,3.212
	c-2.783,0.393-4.688-2.253-6.418-3.999c-1.212-1.223-4.871,0.346-3.541,1.688c2.876,2.901,5.231,5.367,9.603,5.089
	c3.297-0.21,6.132-2.328,5.599-5.823c-0.853-5.527-9.951-1.968-13.125-1.866C345.388,289.74,344.575,292.533,347.209,292.447
	L347.209,292.447z"/>
<path d="M345.356,292.099c1.39,2.092,2.305,5.783,1.044,8.104c-0.729,1.343-2.094-2.387-2.093-3.025
	c0.01-2.201,2.191-4.17,3.938-5.172c0.62-0.356,1.071-1.266,0.284-1.713c-0.855-0.486-1.97-0.142-2.75,0.308
	c-2.576,1.479-5.352,4.278-5.356,7.437c-0.008,3.157,2.397,4.935,5.35,4.862c6.49-0.161,5.638-8.65,3.147-12.396
	C348.102,289.272,344.372,290.617,345.356,292.099L345.356,292.099z"/>
<path d="M346.909,290.444c-1.423,0.434-2.709,1.061-4.021,1.762c-0.85,0.456-1.673,0.882-2.585,0.301
	c-0.796-0.507-1.104-1.455-1.023-2.351c0.076-0.421,0.229-0.812,0.466-1.174c0.391-0.322,0.425-0.451,0.104-0.386
	c0.737,0.103,1.521,0.591,2.142,0.972c1.034,0.635,1.973,1.414,2.976,2.094c1.062,0.719,4.523-0.832,3.604-1.455
	c-1.872-1.268-3.663-2.934-5.921-3.465c-2.399-0.565-5.011,0.255-6.473,2.268c-1.634,2.25-0.506,4.957,2.073,5.682
	c3.442,0.968,6.078-1.603,9.119-2.53c0.478-0.146,1.907-0.612,1.702-1.376C348.872,290.043,347.386,290.299,346.909,290.444
	L346.909,290.444z"/>
<g>
	<path d="M347.636,292.037c0.497-0.856,0.249-2.327-0.994-1.837c-1.364,0.49-0.249,1.96,0.87,1.837c0-0.245,0-0.489,0.124-0.612"/>
	<path d="M349.552,291.734c0.333-0.619,0.383-1.435-0.05-2.013c-0.761-1.018-2.773-0.415-3.688-0.045
		c-0.803,0.323-2.146,1.083-1.623,2.149c0.445,0.915,1.59,1.17,2.518,1.11c0.675-0.044,1.349-0.208,1.95-0.522
		c0.355-0.188,0.783-0.446,0.786-0.894c0,0.02,0.048-0.296-0.04-0.169c0.484-0.705-0.417-0.847-0.964-0.825
		c-0.518,0.021-1.029,0.141-1.513,0.324c-0.333,0.128-0.847,0.337-1.062,0.649c-0.249,0.36-0.285,0.624-0.288,1.056
		c0.912-0.472,1.824-0.944,2.736-1.417c-0.181,0.01-0.146,0.011,0.1,0.004c0.303,0.032,0.012-0.022-0.062-0.055
		c0.088,0.039,0.075,0.026-0.028-0.037c-0.083-0.058-0.155-0.131-0.229-0.204c-0.067-0.074-0.099-0.154-0.139-0.303
		c-0.047-0.174-0.046,0.056-0.007-0.115c0.038-0.164-0.052,0.029-0.134,0.096c-0.548,0.356-1.164,0.514-1.851,0.473
		c-0.068-0.004-0.347-0.138-0.195-0.014c0.062,0.052,0.105,0.193,0.146,0.376c0.072,0.339-0.033,0.67-0.2,0.981
		c-0.379,0.706,1.376,0.581,1.597,0.547C348.073,292.767,349.155,292.471,349.552,291.734L349.552,291.734z"/>
</g>
<path d="M335.707,304.132c-3.335-0.141-6.397-5.292-5.247-8.35c0.398-1.058,1.168-0.261-1.089-0.159
	c0.586-0.026,1.126,0.231,1.609,0.528c0.944,0.583,1.311,1.82,1.532,2.833c0.474,2.114,0.141,4.407-0.131,6.525
	c-0.046,0.36,3.728,0.07,3.863-1.034c0.354-2.793,0.89-6.207-0.735-8.706c-1.603-2.465-5.518-1.725-7.657-0.549
	c-2.192,1.205-1.514,4.165-0.684,6c1.112,2.461,3.263,4.271,6.001,4.387c0.897,0.037,1.962-0.283,2.732-0.731
	C336.553,304.498,336.411,304.161,335.707,304.132L335.707,304.132z"/>
<path d="M336.256,304.657c0.021-1.546,0.281-3.071,0.688-4.56c0.32-1.192,0.956-3.27,2.183-3.861
	c-0.265,0.127,0.037,0.069,0.246,0.117c0.592,0.136,1.093,0.5,1.479,0.951c0.663,0.774,0.223,2.107-0.154,2.889
	c-1.103,2.28-3.701,3.112-6.021,3.5c-0.765,0.127-1.993,0.477-2.175,1.39c-0.174,0.879,1.119,1.063,1.705,0.966
	c3.787-0.635,7.713-1.916,9.907-5.292c1.934-2.977,0.62-5.963-2.771-6.739c-6.29-1.44-8.903,6.23-8.968,11.066
	C332.354,306.834,336.238,306.072,336.256,304.657L336.256,304.657z"/>
<path d="M334.262,306.258c2.854-0.092,5.627-1.479,8.507-1.08c1.802,0.25,1.408,2.979-0.265,3.213
	c-2.783,0.396-4.687-2.252-6.418-3.998c-1.212-1.223-4.871,0.35-3.541,1.688c2.876,2.901,5.235,5.367,9.604,5.089
	c3.297-0.211,6.132-2.328,5.595-5.822c-0.853-5.528-9.951-1.97-13.125-1.865C332.44,303.551,331.627,306.344,334.262,306.258
	L334.262,306.258z"/>
<path d="M332.408,305.909c1.39,2.093,2.305,5.782,1.044,8.104c-0.729,1.342-2.09-2.391-2.089-3.025
	c0.006-2.2,2.188-4.17,3.937-5.174c0.62-0.355,1.071-1.269,0.284-1.713c-0.855-0.484-1.968-0.145-2.75,0.31
	c-2.575,1.479-5.348,4.276-5.355,7.437c-0.009,3.158,2.396,4.938,5.349,4.863c6.495-0.159,5.636-8.652,3.147-12.395
	C335.154,303.082,331.424,304.428,332.408,305.909L332.408,305.909z"/>
<path d="M333.961,304.255c-1.423,0.435-2.709,1.062-4.018,1.763c-0.854,0.455-1.672,0.883-2.585,0.301
	c-0.796-0.506-1.108-1.45-1.027-2.351c0.076-0.421,0.229-0.812,0.466-1.175c0.391-0.322,0.425-0.45,0.105-0.386
	c0.733,0.103,1.518,0.591,2.138,0.972c1.034,0.635,1.973,1.414,2.976,2.094c1.062,0.719,4.523-0.832,3.604-1.455
	c-1.872-1.268-3.663-2.934-5.921-3.465c-2.399-0.562-5.007,0.256-6.469,2.268c-1.638,2.25-0.51,4.957,2.069,5.686
	c3.443,0.971,6.078-1.604,9.119-2.527c0.479-0.146,1.907-0.611,1.702-1.375C335.924,303.854,334.438,304.109,333.961,304.255
	L333.961,304.255z"/>
<g>
	<path d="M334.688,305.848c0.497-0.854,0.249-2.326-0.991-1.837c-1.367,0.49-0.248,1.96,0.871,1.837c0-0.244,0-0.488,0.12-0.611"/>
	<path d="M336.604,305.545c0.337-0.619,0.387-1.436-0.05-2.013c-0.761-1.019-2.771-0.415-3.688-0.046
		c-0.799,0.322-2.146,1.084-1.623,2.15c0.449,0.91,1.59,1.17,2.518,1.105c0.675-0.043,1.353-0.207,1.95-0.521
		c0.359-0.188,0.783-0.445,0.786-0.896c0,0.021,0.048-0.296-0.04-0.168c0.488-0.705-0.417-0.851-0.964-0.824
		c-0.514,0.021-1.029,0.142-1.509,0.324c-0.333,0.128-0.851,0.336-1.063,0.646c-0.249,0.359-0.285,0.623-0.288,1.057
		c0.912-0.473,1.824-0.942,2.736-1.414c-0.177,0.009-0.146,0.011,0.099,0.004c0.308,0.029,0.017-0.021-0.062-0.059
		c0.088,0.039,0.079,0.025-0.028-0.037c-0.083-0.059-0.155-0.131-0.225-0.203c-0.071-0.071-0.103-0.152-0.143-0.305
		c-0.047-0.174-0.045,0.061-0.006-0.113c0.037-0.162-0.052,0.027-0.134,0.098c-0.549,0.354-1.165,0.518-1.847,0.477
		c-0.072-0.008-0.351-0.142-0.198-0.018c0.062,0.052,0.109,0.189,0.146,0.376c0.072,0.339-0.029,0.67-0.196,0.979
		c-0.379,0.707,1.376,0.582,1.593,0.547C335.125,306.577,336.208,306.281,336.604,305.545L336.604,305.545z"/>
</g>
<path d="M384.908,287.731c-3.335-0.14-6.397-5.292-5.247-8.35c0.396-1.058,1.168-0.261-1.089-0.159
	c0.586-0.026,1.126,0.231,1.605,0.528c0.948,0.583,1.312,1.82,1.536,2.833c0.472,2.114,0.137,4.406-0.131,6.525
	c-0.046,0.36,3.724,0.07,3.863-1.035c0.354-2.792,0.89-6.206-0.735-8.706c-1.603-2.465-5.518-1.726-7.66-0.549
	c-2.189,1.205-1.511,4.166-0.681,6.001c1.112,2.46,3.263,4.271,6.001,4.387c0.896,0.038,1.962-0.284,2.73-0.732
	C385.755,288.097,385.613,287.761,384.908,287.731L384.908,287.731z"/>
<path d="M385.457,288.256c0.02-1.545,0.281-3.071,0.686-4.56c0.324-1.191,0.957-3.269,2.187-3.861
	c-0.269,0.127,0.036,0.069,0.245,0.117c0.592,0.136,1.094,0.5,1.479,0.95c0.663,0.775,0.221,2.108-0.158,2.889
	c-1.098,2.279-3.697,3.111-6.017,3.5c-0.765,0.128-1.993,0.477-2.174,1.39c-0.174,0.878,1.118,1.064,1.705,0.965
	c3.787-0.635,7.713-1.916,9.907-5.292c1.934-2.977,0.616-5.963-2.771-6.739c-6.29-1.44-8.907,6.23-8.968,11.066
	C381.556,290.434,385.439,289.672,385.457,288.256L385.457,288.256z"/>
<path d="M383.463,289.858c2.854-0.093,5.627-1.479,8.507-1.08c1.798,0.25,1.408,2.977-0.264,3.212
	c-2.784,0.392-4.688-2.253-6.418-3.999c-1.212-1.222-4.871,0.347-3.541,1.688c2.876,2.901,5.235,5.367,9.603,5.088
	c3.301-0.21,6.136-2.327,5.599-5.823c-0.853-5.527-9.951-1.968-13.125-1.866C381.642,287.15,380.829,289.943,383.463,289.858
	L383.463,289.858z"/>
<path d="M387.652,289.509c1.39,2.093,2.305,5.783,1.044,8.104c-0.729,1.343-2.09-2.387-2.089-3.025
	c0.006-2.201,2.188-4.17,3.937-5.173c0.62-0.356,1.071-1.266,0.284-1.713c-0.855-0.486-1.968-0.142-2.75,0.308
	c-2.575,1.48-5.348,4.278-5.356,7.438c-0.009,3.158,2.396,4.935,5.349,4.862c6.495-0.159,5.637-8.65,3.147-12.393
	C390.398,286.682,386.668,288.027,387.652,289.509L387.652,289.509z"/>
<path d="M383.163,287.854c-1.423,0.434-2.709,1.062-4.021,1.763c-0.85,0.455-1.673,0.882-2.585,0.3
	c-0.796-0.507-1.104-1.454-1.023-2.351c0.076-0.421,0.229-0.812,0.466-1.174c0.391-0.322,0.425-0.451,0.104-0.386
	c0.735,0.103,1.52,0.591,2.14,0.972c1.034,0.635,1.973,1.414,2.976,2.094c1.062,0.719,4.523-0.832,3.604-1.455
	c-1.872-1.268-3.663-2.934-5.921-3.465c-2.399-0.565-5.007,0.255-6.473,2.268c-1.634,2.25-0.506,4.957,2.073,5.682
	c3.443,0.967,6.078-1.602,9.119-2.53c0.478-0.146,1.907-0.612,1.702-1.376C385.126,287.453,383.64,287.709,383.163,287.854
	L383.163,287.854z"/>
<g>
	<path d="M383.89,289.447c0.497-0.856,0.249-2.327-0.995-1.837c-1.363,0.49-0.244,1.96,0.871,1.837c0-0.244,0-0.489,0.124-0.612"/>
	<path d="M385.806,289.145c0.333-0.619,0.387-1.435-0.05-2.013c-0.761-1.018-2.771-0.415-3.688-0.045
		c-0.803,0.323-2.146,1.083-1.623,2.149c0.445,0.915,1.59,1.17,2.518,1.11c0.675-0.044,1.352-0.208,1.95-0.522
		c0.359-0.188,0.783-0.446,0.786-0.894c0,0.02,0.048-0.295-0.04-0.168c0.488-0.705-0.417-0.847-0.964-0.825
		c-0.518,0.021-1.029,0.141-1.509,0.324c-0.335,0.128-0.851,0.337-1.063,0.649c-0.249,0.36-0.285,0.624-0.288,1.055
		c0.912-0.472,1.824-0.944,2.736-1.417c-0.179,0.01-0.146,0.011,0.1,0.004c0.303,0.032,0.012-0.022-0.062-0.055
		c0.088,0.039,0.078,0.026-0.028-0.037c-0.084-0.058-0.155-0.131-0.226-0.204c-0.07-0.074-0.102-0.154-0.142-0.303
		c-0.047-0.174-0.045,0.056-0.006-0.115c0.038-0.164-0.052,0.029-0.134,0.096c-0.549,0.356-1.165,0.514-1.851,0.473
		c-0.068-0.004-0.347-0.138-0.194-0.014c0.062,0.052,0.105,0.193,0.146,0.376c0.072,0.339-0.033,0.67-0.2,0.981
		c-0.379,0.706,1.376,0.581,1.597,0.547C384.327,290.177,385.409,289.881,385.806,289.145L385.806,289.145z"/>
</g>
<path d="M385.771,271.33c-3.339-0.14-6.397-5.292-5.247-8.349c0.396-1.058,1.168-0.261-1.093-0.159
	c0.589-0.026,1.126,0.231,1.609,0.528c0.948,0.583,1.312,1.82,1.536,2.833c0.47,2.114,0.137,4.406-0.131,6.525
	c-0.046,0.36,3.724,0.07,3.86-1.035c0.354-2.792,0.893-6.206-0.732-8.706c-1.604-2.465-5.521-1.725-7.66-0.549
	c-2.193,1.205-1.511,4.165-0.681,6c1.108,2.46,3.263,4.271,6.001,4.387c0.896,0.038,1.962-0.284,2.729-0.732
	C386.618,271.696,386.476,271.36,385.771,271.33L385.771,271.33z"/>
<path d="M386.32,271.855c0.02-1.545,0.277-3.071,0.686-4.56c0.324-1.191,0.956-3.269,2.187-3.861
	c-0.269,0.127,0.032,0.069,0.241,0.117c0.596,0.136,1.098,0.5,1.479,0.95c0.663,0.775,0.219,2.107-0.157,2.889
	c-1.098,2.279-3.701,3.111-6.017,3.5c-0.769,0.128-1.993,0.477-2.174,1.39c-0.178,0.878,1.114,1.064,1.701,0.965
	c3.787-0.635,7.717-1.916,9.907-5.292c1.938-2.977,0.619-5.963-2.769-6.739c-6.29-1.44-8.907,6.229-8.968,11.066
	C382.419,274.033,386.303,273.271,386.32,271.855L386.32,271.855z"/>
<path d="M384.327,273.457c2.854-0.093,5.627-1.479,8.507-1.08c1.797,0.249,1.408,2.977-0.264,3.212
	c-2.784,0.392-4.688-2.252-6.418-3.999c-1.212-1.223-4.871,0.346-3.541,1.688c2.876,2.902,5.231,5.367,9.603,5.089
	c3.297-0.21,6.131-2.328,5.594-5.823c-0.849-5.527-9.947-1.968-13.125-1.866C382.505,270.75,381.692,273.542,384.327,273.457
	L384.327,273.457z"/>
<path d="M382.473,273.108c1.394,2.092,2.309,5.783,1.044,8.104c-0.729,1.343-2.09-2.387-2.089-3.025
	c0.006-2.201,2.191-4.17,3.938-5.172c0.62-0.356,1.067-1.266,0.284-1.713c-0.855-0.486-1.972-0.142-2.75,0.308
	c-2.576,1.479-5.352,4.278-5.356,7.437c-0.009,3.158,2.396,4.935,5.346,4.862c6.494-0.16,5.642-8.65,3.151-12.392
	C385.219,270.282,381.489,271.627,382.473,273.108L382.473,273.108z"/>
<path d="M384.026,271.454c-1.427,0.434-2.709,1.061-4.021,1.762c-0.85,0.456-1.672,0.882-2.584,0.301
	c-0.796-0.507-1.104-1.455-1.027-2.351c0.076-0.421,0.231-0.812,0.47-1.174c0.391-0.322,0.425-0.451,0.104-0.386
	c0.737,0.103,1.521,0.591,2.142,0.972c1.03,0.635,1.973,1.415,2.976,2.095c1.061,0.719,4.523-0.832,3.604-1.455
	c-1.869-1.268-3.66-2.934-5.922-3.466c-2.396-0.564-5.007,0.255-6.469,2.268c-1.635,2.25-0.506,4.957,2.073,5.682
	c3.442,0.968,6.078-1.603,9.119-2.53c0.478-0.146,1.903-0.612,1.702-1.376C385.989,271.053,384.503,271.309,384.026,271.454
	L384.026,271.454z"/>
<g>
	<path d="M384.753,273.047c0.497-0.856,0.249-2.327-0.995-1.837c-1.367,0.49-0.248,1.96,0.871,1.837c0-0.245,0-0.489,0.124-0.612"/>
	<path d="M386.669,272.744c0.333-0.619,0.383-1.435-0.05-2.013c-0.761-1.018-2.775-0.415-3.689-0.045
		c-0.799,0.323-2.146,1.083-1.623,2.149c0.449,0.915,1.594,1.17,2.521,1.11c0.675-0.044,1.349-0.208,1.95-0.522
		c0.355-0.188,0.779-0.446,0.786-0.894c0,0.02,0.048-0.296-0.04-0.169c0.484-0.705-0.417-0.847-0.968-0.825
		c-0.514,0.021-1.025,0.141-1.509,0.324c-0.333,0.128-0.847,0.337-1.062,0.649c-0.249,0.36-0.285,0.624-0.288,1.056
		c0.912-0.472,1.824-0.944,2.732-1.417c-0.177,0.01-0.144,0.011,0.104,0.004c0.303,0.032,0.012-0.022-0.065-0.055
		c0.088,0.039,0.079,0.026-0.024-0.037c-0.084-0.058-0.155-0.131-0.229-0.204c-0.067-0.074-0.099-0.154-0.139-0.303
		c-0.047-0.174-0.045,0.056-0.006-0.115c0.038-0.164-0.056,0.029-0.138,0.096c-0.549,0.356-1.161,0.514-1.847,0.473
		c-0.072-0.004-0.347-0.138-0.198-0.014c0.062,0.052,0.109,0.193,0.148,0.376c0.072,0.339-0.033,0.67-0.2,0.981
		c-0.379,0.706,1.376,0.581,1.593,0.547C385.19,273.776,386.272,273.481,386.669,272.744L386.669,272.744z"/>
</g>
<path d="M385.519,239.874c-2.987-0.126-5.724-4.81-4.695-7.535c0.392-1.042,1.188-0.153-1.283-0.042
	c0.514-0.023,0.985,0.21,1.407,0.469c0.854,0.526,1.18,1.645,1.382,2.558c0.426,1.917,0.125,3.995-0.119,5.917
	c-0.046,0.361,3.724,0.07,3.863-1.035c0.317-2.532,0.807-5.627-0.667-7.893c-1.518-2.329-5.265-1.55-7.266-0.45
	c-2.02,1.109-1.431,3.785-0.657,5.49c1.021,2.261,2.989,3.892,5.503,3.998c0.896,0.038,1.962-0.284,2.729-0.732
	C386.365,240.24,386.223,239.903,385.519,239.874L385.519,239.874z"/>
<path d="M386.079,240.399c0.018-1.4,0.255-2.784,0.622-4.134c0.271-1.011,0.827-2.893,1.872-3.397
	c-0.276,0.133-0.271,0.056,0.041,0.127c0.516,0.119,0.943,0.438,1.283,0.83c0.574,0.676,0.182,1.857-0.146,2.537
	c-0.964,2-3.229,2.731-5.264,3.072c-0.769,0.128-1.993,0.477-2.175,1.39c-0.177,0.878,1.115,1.063,1.702,0.965
	c3.507-0.586,7.146-1.774,9.178-4.899c1.788-2.751,0.556-5.508-2.57-6.225c-5.844-1.339-8.364,5.609-8.421,10.159
	C382.178,242.576,386.062,241.814,386.079,240.399L386.079,240.399z"/>
<path d="M384.074,242c2.566-0.083,5.076-1.339,7.667-0.979c1.408,0.195,1.188,2.464-0.16,2.654c-2.449,0.344-4.149-2.04-5.671-3.575
	c-1.212-1.223-4.871,0.346-3.541,1.688c2.653,2.676,4.829,4.919,8.854,4.664c3.082-0.195,5.772-2.182,5.271-5.457
	c-0.785-5.115-9.119-1.869-12.064-1.773C382.252,239.293,381.439,242.086,384.074,242L384.074,242z"/>
<path d="M382.243,241.629c1.241,1.868,2.07,5.189,0.944,7.264c-0.227,0.208-0.217,0.256,0.024,0.142
	c-0.327,0.059-0.76-0.537-0.927-0.737c-0.471-0.562-0.646-1.442-0.646-2.155c0.01-1.964,1.945-3.712,3.505-4.607
	c0.618-0.356,1.069-1.266,0.282-1.713c-0.854-0.486-1.968-0.142-2.75,0.308c-2.356,1.356-4.914,3.932-4.922,6.829
	c-0.009,2.958,2.256,4.57,5.007,4.502c6.032-0.147,5.395-7.894,3.044-11.425C384.989,238.802,381.259,240.147,382.243,241.629
	L382.243,241.629z"/>
<path d="M383.796,239.975c-1.321,0.403-2.516,0.982-3.729,1.633c-0.701,0.375-1.316,0.728-2.067,0.25
	c-0.706-0.45-0.991-1.291-0.919-2.089c0.062-0.373,0.203-0.72,0.41-1.041c0.408-0.396,0.346-0.481-0.188-0.258
	c0.647,0.09,1.338,0.524,1.883,0.858c0.938,0.576,1.788,1.283,2.698,1.9c0.729,0.491,1.78,0.268,2.537-0.037
	c0.275-0.111,1.78-0.934,1.066-1.418c-1.719-1.164-3.354-2.678-5.426-3.166c-2.262-0.532-4.769,0.251-6.146,2.148
	c-1.502,2.068-0.479,4.564,1.9,5.232c3.206,0.9,5.604-1.433,8.436-2.296c0.479-0.146,1.907-0.612,1.702-1.376
	C385.759,239.573,384.273,239.829,383.796,239.975L383.796,239.975z"/>
<g>
	<path d="M384.477,241.5c0.451-0.778,0.229-2.11-0.897-1.666c-1.24,0.444-0.229,1.777,0.789,1.666c0-0.223,0-0.445,0.108-0.556"/>
	<path d="M386.393,241.197c0.312-0.576,0.354-1.345-0.062-1.875c-0.753-0.958-2.693-0.376-3.583-0.012
		c-0.758,0.31-2.106,1.06-1.554,2.082c0.453,0.84,1.484,1.059,2.363,1.006c0.677-0.04,1.354-0.208,1.95-0.522
		c0.36-0.189,0.781-0.445,0.786-0.894c0.001-0.14,0.021-0.221,0.096-0.341c0.435-0.68-1.417-0.575-1.593-0.547
		c-0.809,0.128-1.773,0.427-2.234,1.152c-0.146,0.225-0.13,0.511-0.132,0.771c0.912-0.472,1.824-0.944,2.736-1.417
		c0.22-0.013,0.465,0.105,0.134-0.025c0.085,0.042,0.075,0.031-0.027-0.034c-0.084-0.058-0.155-0.132-0.228-0.206
		c-0.018-0.02-0.091-0.206-0.105-0.31c-0.021,0.076-0.019,0.066,0.01-0.031c0.011-0.026,0.021-0.052,0.034-0.079
		c-0.112,0.274-0.35,0.438-0.702,0.493c-0.657,0.406-1.239,0.45-1.745,0.133c0.045,0.03,0.086,0.065,0.122,0.106
		c-0.047-0.047,0.063,0.205,0.086,0.3c0.06,0.298-0.033,0.574-0.183,0.854c-0.382,0.707,1.375,0.582,1.593,0.547
		C384.912,242.229,385.999,241.934,386.393,241.197L386.393,241.197z"/>
</g>
<path d="M387.071,254.674c-2.436-1.936-2.229-6.828,0.076-8.821c-1.434,1.238-2.465,0.054-1.323,0.623
	c0.473,0.237,0.854,0.69,1.146,1.112c0.568,0.818,0.431,1.897,0.145,2.778c-0.648,2.002-2.343,3.676-3.769,5.153
	c-0.579,0.602,0.52,0.572,0.89,0.534c0.773-0.081,2.018-0.3,2.593-0.897c1.854-1.928,3.988-4.049,4.389-6.81
	c0.438-2.992-2.909-3.854-5.109-3.264c-2.351,0.629-3.717,2.103-4.319,4.438c-0.588,2.265-0.286,4.904,1.636,6.433
	C384.211,256.58,387.536,255.043,387.071,254.674L387.071,254.674z"/>
<path d="M386.97,255.345c0.947-1.224,3.799-4.492,5.562-3.645c1.431,0.688,1.688,2.685,0.416,3.573
	c-1.749,1.221-4.552-0.156-6.183-0.952c-1.24-0.609-4.758,1.144-3.045,1.982c3.362,1.646,6.795,2.328,10.374,0.99
	c2.944-1.101,4.562-3.764,2.688-6.529c-1.559-2.291-4.868-1.706-7.021-0.854c-2.542,1.008-4.771,3.107-6.422,5.238
	c-0.592,0.765,0.499,1.258,1.088,1.291C385.392,256.492,386.378,256.108,386.97,255.345L386.97,255.345z"/>
<path d="M383.753,256.415c2.224,1.528,5.438,1.924,7.197,4.094c0.316,0.395,0.413,0.851,0.222,1.326
	c-0.406,1.016-1.057,0.352-1.908-0.219c-2.104-1.411-2.052-4.373-2.377-6.619c-0.253-1.753-4.127-0.789-3.859,1.035
	c0.483,3.37,0.793,6.39,4.003,8.254c2.811,1.632,6.646,0.924,7.93-2.278c1.812-4.526-5.695-6.064-8.218-7.798
	C385.357,253.261,381.951,255.176,383.753,256.415L383.753,256.415z"/>
<path d="M382.989,255.563c-0.067,1.322-0.505,2.572-1.104,3.743c-0.344,0.675-0.769,1.291-1.293,1.837
	c-0.093,0.097-0.268,0.277-0.399,0.349c0.188-0.102,0.294,0.088-0.146-0.113c-1.425-0.653-1.077-2.765-0.271-3.759
	c0.942-1.17,2.983-1.259,4.35-1.101c1.659,0.192,4.043-2.147,1.434-2.45c-3.019-0.35-6.417,0.462-8.726,2.48
	c-1.795,1.569-2.398,4.866-0.373,6.467c2.267,1.792,5.382,0.767,7.291-1.027c1.751-1.646,3.003-4.437,3.125-6.832
	C386.964,253.376,383.064,254.086,382.989,255.563L382.989,255.563z"/>
<path d="M386.483,254.48c-1.855-0.655-3.906-0.522-5.702-1.326c-0.855-0.382-1.278-1.181-1.391-2.069
	c-0.057-0.46,0.2-1.381,0.71-1.539c-0.312,0.097-0.311,0.011,0.021,0.158c0.234,0.104,0.429,0.331,0.603,0.511
	c0.453,0.467,0.734,1.073,0.993,1.66c0.504,1.142,0.787,2.365,1.206,3.537c0.44,1.233,4.271,0.094,3.863-1.035
	c-0.587-1.644-0.949-3.375-1.902-4.864c-1.251-1.955-3.385-2.26-5.514-1.601c-2.286,0.708-4.747,2.65-3.535,5.292
	c1.272,2.774,5.161,2.196,7.539,3.036c0.867,0.306,1.952,0.039,2.727-0.4C386.536,255.596,387.36,254.79,386.483,254.48
	L386.483,254.48z"/>
<g>
	<path d="M384.893,256.16c0.831-0.363,1.452-1.568,0.276-1.868c-1.266-0.366-1.25,1.299-0.367,1.803
		c0.134-0.18,0.271-0.358,0.425-0.382"/>
	<path d="M386.039,256.537c0.695-0.334,1.58-0.981,1.693-1.813c0.148-1.118-1.22-1.417-2.081-1.383
		c-1.078,0.043-3.079,0.471-3.375,1.749c-0.148,0.643,0.164,1.352,0.717,1.7c0.435,0.274,1.002,0.231,1.487,0.154
		c0.657-0.104,1.652-0.353,2.091-0.924c0.128-0.127,0.145-0.163,0.048-0.107c-0.271,0.139-0.534,0.279-0.801,0.418
		c0.038-0.015,0.072-0.03,0.11-0.044c0.279-0.109,1.723-0.769,1.105-1.27c-0.612-0.501-1.884-0.125-2.517,0.121
		c-0.592,0.23-1.104,0.523-1.486,1.031c1.189-0.256,2.386-0.513,3.578-0.77c-0.292-0.184-0.374-0.313-0.467-0.624
		c-0.017-0.057-0.024-0.115-0.031-0.173c-0.003-0.019,0.013-0.269-0.008-0.118c0.109-0.792,0.189,0.816-2.39,0.65
		c-0.162-0.036-0.159-0.03,0.009,0.016c-0.104-0.032,0.098,0.075,0.119,0.098c-0.049-0.046,0.031,0.24,0.04,0.168
		c-0.012,0.061-0.025,0.12-0.051,0.177c-0.009,0.027-0.163,0.271-0.052,0.117c-0.038,0.053-0.283,0.281-0.036,0.072
		c-0.28,0.237,0.323-0.156-0.003,0c-0.41,0.197-1.271,0.919-0.422,1.196C384.19,257.263,385.261,256.91,386.039,256.537
		L386.039,256.537z"/>
</g>
<path d="M309.663,118.191c-6.498-0.273-12.609-9.741-10.308-15.859c0.759-2.018,2.431-1.245,4.174-0.173
	c1.808,1.112,2.519,3.439,2.949,5.375c0.874,3.934,0.259,8.197-0.241,12.14c-0.046,0.36,3.724,0.07,3.859-1.035
	c0.659-5.195,1.656-11.546-1.368-16.196c-2.39-3.675-7.937-3.324-11.327-1.462c-3.783,2.078-2.237,7.679-0.866,10.714
	c1.943,4.3,5.752,7.768,10.593,7.972C307.884,119.698,311.526,118.27,309.663,118.191L309.663,118.191z"/>
<path d="M310.104,118.716c0.063-4.992,1.214-14.158,6.325-16.625c1.771-0.854,4.358,0.836,5.432,2.087
	c1.438,1.685,0.557,4.418-0.271,6.134c-2.337,4.849-8.052,6.618-12.957,7.439c-1.92,0.321-3.121,2.799-0.47,2.355
	c6.391-1.07,12.971-3.223,16.669-8.916c3.283-5.055,1.214-10.153-4.588-11.482c-10.31-2.362-13.923,12.014-14.021,19.433
	C306.203,120.894,310.087,120.132,310.104,118.716L310.104,118.716z"/>
<path d="M308.218,120.318c5.477-0.178,10.715-2.771,16.255-2.002c1.396,0.193,2.432,1.041,2.962,2.311
	c1.374,3.268-1.073,5.612-4.188,6.05c-5.86,0.825-9.653-4.219-13.312-7.908c-1.212-1.222-4.871,0.347-3.541,1.688
	c4.937,4.975,8.989,9.474,16.496,8.997c5.29-0.336,9.441-3.668,8.597-9.192c-1.433-9.306-17.646-2.893-22.909-2.722
	C306.396,117.61,305.583,120.403,308.218,120.318L308.218,120.318z"/>
<path d="M306.15,120.18c2.766,4.164,4.473,11.262,1.974,15.863c-2.908,5.356-7.131-2.762-7.123-5.553
	c0.012-4.389,4.459-8.408,7.935-10.404c2.271-1.302-1.064-2.208-2.467-1.405c-4.562,2.621-9.34,7.475-9.355,13.059
	c-0.014,4.981,3.702,8.292,8.468,8.175c10.684-0.261,7.887-15.679,4.134-21.328C308.896,117.354,305.166,118.699,306.15,120.18
	L306.15,120.18z"/>
<path d="M307.703,118.526c-2.363,0.721-4.49,1.79-6.663,2.953c-2.28,1.221-4.948,2.315-7.37,0.772
	c-1.624-1.034-2.178-2.964-2.015-4.767c0.775-8.603,10.708-0.141,13.783,1.944c1.061,0.719,4.523-0.831,3.604-1.455
	c-5.744-3.895-14.213-10.79-19.967-2.868c-2.846,3.918-0.776,8.582,3.655,9.826c5.575,1.565,10.502-3.183,15.434-4.688
	C310.423,119.553,309.992,117.828,307.703,118.526L307.703,118.526z"/>
<g>
	<path d="M308.858,120.752c0.925-1.595,0.463-4.33-1.854-3.418c-2.544,0.912-0.462,3.646,1.619,3.418c0-0.456,0-0.912,0.231-1.139"
		/>
	<path d="M310.774,120.449c0.506-0.924,0.688-2.239,0.146-3.187c-0.935-1.628-3.419-0.974-4.796-0.433
		c-1.251,0.491-2.786,1.599-2.007,3.102c0.686,1.325,2.306,1.825,3.704,1.72c0.742-0.056,2.729-0.374,2.732-1.417
		c0.001-0.175-0.046-0.542,0.068-0.696c0.517-0.699-0.443-0.846-0.964-0.825c-0.783,0.033-2.066,0.29-2.572,0.973
		c-0.371,0.501-0.393,0.974-0.395,1.583c0.912-0.472,1.821-0.944,2.732-1.417c-0.188,0.009-0.202,0.014-0.029,0.015
		c-0.166-0.021-0.2-0.024-0.104-0.011c-0.146-0.036-0.311-0.091-0.443-0.165c-0.334-0.184-0.613-0.452-0.849-0.751
		c-0.133-0.172-0.263-0.542-0.241-0.761c0.009-0.083,0.09-0.313,0.093-0.318c0.154-0.218-0.021-0.002-0.143,0.046
		c-0.291,0.114-0.676,0.214-0.986,0.129c0.125,0.034,0.102,0.042,0.24,0.169c0.214,0.192,0.291,0.508,0.354,0.779
		c0.157,0.708-0.034,1.447-0.375,2.069c-0.39,0.704,1.381,0.581,1.593,0.547C309.301,121.48,310.37,121.185,310.774,120.449
		L310.774,120.449z"/>
</g>
<path d="M247.513,117.328c-6.498-0.273-12.609-9.742-10.308-15.859c0.759-2.018,2.431-1.245,4.174-0.173
	c1.808,1.112,2.519,3.439,2.949,5.375c0.874,3.934,0.255,8.197-0.245,12.14c-0.046,0.36,3.724,0.07,3.863-1.035
	c0.659-5.195,1.656-11.546-1.368-16.196c-2.39-3.675-7.937-3.324-11.327-1.462c-3.783,2.078-2.237,7.679-0.866,10.714
	c1.943,4.3,5.752,7.768,10.593,7.972C245.734,118.835,249.377,117.407,247.513,117.328L247.513,117.328z"/>
<path d="M247.955,117.854c0.063-4.992,1.21-14.158,6.325-16.625c1.77-0.854,4.358,0.836,5.428,2.087
	c1.441,1.685,0.557,4.418-0.27,6.134c-2.337,4.849-8.052,6.618-12.957,7.439c-1.92,0.322-3.121,2.8-0.47,2.355
	c6.391-1.07,12.97-3.223,16.669-8.917c3.284-5.055,1.213-10.152-4.588-11.482c-10.307-2.362-13.923,12.014-14.017,19.433
	C244.054,120.031,247.938,119.269,247.955,117.854L247.955,117.854z"/>
<path d="M246.068,119.455c5.473-0.178,10.715-2.771,16.255-2.002c1.394,0.193,2.428,1.041,2.962,2.311
	c1.374,3.268-1.077,5.612-4.188,6.05c-5.86,0.825-9.653-4.219-13.312-7.908c-1.212-1.222-4.871,0.347-3.541,1.688
	c4.933,4.975,8.989,9.474,16.496,8.997c5.29-0.336,9.441-3.668,8.593-9.192c-1.429-9.306-17.646-2.892-22.909-2.722
	C244.247,116.748,243.434,119.541,246.068,119.455L246.068,119.455z"/>
<path d="M244,119.317c2.766,4.164,4.473,11.262,1.974,15.863c-2.908,5.356-7.131-2.762-7.123-5.553
	c0.012-4.389,4.459-8.408,7.935-10.404c2.267-1.302-1.068-2.208-2.467-1.405c-4.563,2.621-9.339,7.475-9.355,13.059
	c-0.014,4.981,3.702,8.292,8.468,8.175c10.684-0.261,7.887-15.679,4.134-21.328C246.747,116.49,243.016,117.835,244,119.317
	L244,119.317z"/>
<path d="M245.554,117.663c-2.363,0.721-4.49,1.79-6.663,2.953c-2.28,1.221-4.949,2.315-7.37,0.772
	c-1.624-1.034-2.178-2.964-2.016-4.767c0.775-8.603,10.709-0.141,13.783,1.944c1.061,0.719,4.523-0.831,3.604-1.455
	c-5.744-3.895-14.213-10.79-19.968-2.868c-2.846,3.918-0.776,8.582,3.656,9.826c5.575,1.565,10.502-3.183,15.434-4.688
	C248.273,118.69,247.842,116.964,245.554,117.663L245.554,117.663z"/>
<g>
	<path d="M246.709,119.889c0.924-1.595,0.462-4.33-1.85-3.418c-2.544,0.911-0.462,3.646,1.619,3.418c0-0.456,0-0.912,0.231-1.139"/>
	<path d="M248.625,119.586c0.506-0.924,0.691-2.239,0.147-3.187c-0.935-1.628-3.418-0.974-4.795-0.433
		c-1.251,0.491-2.786,1.599-2.007,3.102c0.686,1.325,2.306,1.825,3.704,1.72c0.741-0.056,2.731-0.374,2.736-1.417
		c0.001-0.175-0.046-0.542,0.068-0.696c0.517-0.699-0.443-0.846-0.964-0.825c-0.783,0.033-2.066,0.29-2.572,0.973
		c-0.371,0.501-0.393,0.974-0.395,1.583c0.912-0.472,1.824-0.944,2.736-1.417c-0.192,0.009-0.203,0.014-0.033,0.015
		c-0.166-0.021-0.2-0.024-0.102-0.011c-0.148-0.036-0.311-0.091-0.444-0.165c-0.334-0.184-0.616-0.452-0.848-0.751
		c-0.133-0.172-0.263-0.542-0.241-0.761c0.008-0.083,0.089-0.313,0.092-0.318c0.155-0.218-0.02-0.001-0.142,0.047
		c-0.291,0.114-0.676,0.213-0.988,0.128c0.125,0.034,0.099,0.042,0.241,0.169c0.214,0.192,0.292,0.508,0.353,0.779
		c0.159,0.708-0.034,1.447-0.375,2.069c-0.386,0.704,1.381,0.581,1.593,0.547C247.151,120.617,248.221,120.322,248.625,119.586
		L248.625,119.586z"/>
</g>
<path d="M385.922,449.318c-6.072-4.831-5.396-16.666,0.299-21.604c1.282-1.105,4.16,2.465,4.646,3.16
	c1.394,2.007,0.984,4.671,0.291,6.822c-1.574,4.854-5.729,8.915-9.171,12.494c-0.737,0.766,2.871,0.269,3.479-0.363
	c4.263-4.432,9.247-9.383,10.168-15.729c0.757-5.213-4.602-9.006-9.296-7.747c-9.547,2.561-11.32,18.468-4.062,24.237
	C383.062,451.225,386.387,449.688,385.922,449.318L385.922,449.318z"/>
<path d="M385.695,449.898c3.495-4.518,11.541-12.912,17.812-9.896c4.686,2.25,4.408,8.109,0.579,10.782
	c-5.48,3.828-13.187,0.766-18.471-1.819c-1.244-0.604-4.758,1.146-3.045,1.982c6.872,3.358,14.087,5.232,21.473,2.474
	c6.069-2.271,8.778-7.646,5.013-13.195c-6.978-10.272-22.464,3.628-26.989,9.479C380.93,451.172,384.856,450.981,385.695,449.898
	L385.695,449.898z"/>
<path d="M382.604,451.059c5.486,3.771,13.137,4.718,17.488,10.092c1.111,1.366,1.272,2.991,0.629,4.601
	c-1.749,4.37-6.144,2.711-9.13,0.711c-5.423-3.632-5.416-10.737-6.256-16.538c-0.253-1.753-4.127-0.789-3.863,1.035
	c1.108,7.657,1.623,14.584,8.912,18.816c5.333,3.098,11.857,1.808,14.255-4.188c3.732-9.327-13.969-13.24-19.05-16.729
	C384.208,447.905,380.802,449.82,382.604,451.059L382.604,451.059z"/>
<path d="M381.405,450.272c-0.248,4.889-4.869,18.649-11.759,15.492c-4.337-1.981-3.117-7.957-0.732-10.904
	c2.915-3.607,9.241-4.219,13.501-3.727c1.659,0.192,4.043-2.146,1.434-2.448c-6.03-0.695-12.936,0.729-17.583,4.79
	c-3.542,3.1-5.083,10.146-0.97,13.397c10.146,8.018,19.57-8.618,19.995-17.009C385.38,448.087,381.48,448.796,381.405,450.272
	L381.405,450.272z"/>
<path d="M384.899,449.19c-4.415-1.562-9.262-1.231-13.557-3.153c-4.85-2.17-5.203-9.293,0.209-10.971
	c5.963-1.853,8.417,10.854,9.689,14.414c0.438,1.229,4.267,0.094,3.862-1.035c-2.521-7.052-4.652-17.998-14.65-14.898
	c-4.729,1.466-8.358,5.674-6.062,10.688c2.811,6.117,12.154,4.862,17.397,6.718C382.869,451.33,386.383,449.714,384.899,449.19
	L384.899,449.19z"/>
<g>
	<path d="M383.257,451.971c1.979-0.857,3.45-3.727,0.657-4.438c-3.008-0.873-2.973,3.087-0.873,4.283
		c0.318-0.43,0.635-0.854,1.011-0.906"/>
	<path d="M384.403,452.347c1.32-0.62,2.828-1.869,2.969-3.433c0.171-1.897-2.091-2.438-3.581-2.402
		c-1.59,0.037-3.843,0.825-4.136,2.616c-0.214,1.306,0.457,2.695,1.576,3.382c0.898,0.554,2.944,0.062,3.574-0.77
		c0.063-0.084,0.127-0.168,0.191-0.252c0.324-0.331,0.243-0.333-0.244-0.006c0.289-0.103,1.712-0.774,1.105-1.271
		c-0.628-0.514-1.864-0.102-2.519,0.121c-0.888,0.303-1.516,0.818-2.07,1.555c1.189-0.257,2.386-0.513,3.574-0.77
		c-0.725-0.445-1.133-1.09-1.312-1.914c-0.071-0.322-0.07-0.643,0.003-0.959c0.022-0.107,0.096-0.312,0.138-0.367
		c0.107-0.116,0.112-0.13,0.019-0.04c-0.497,0.311-1.027,0.466-1.594,0.466c0.829,0.045,1.55,0.671,1.396,1.532
		c-0.138,0.794-0.771,1.468-1.388,1.758c-0.414,0.194-1.271,0.919-0.424,1.195C382.559,453.075,383.618,452.715,384.403,452.347
		L384.403,452.347z"/>
</g>
<path d="M384.646,488.87c-7.58-0.319-14.738-11.271-12.046-18.437c0.973-2.571,3.593-1.483,5.43-0.354
	c2.103,1.293,2.934,3.994,3.434,6.246c1.013,4.558,0.295,9.496-0.283,14.062c-0.046,0.36,3.728,0.07,3.863-1.031
	c0.762-6.021,1.918-13.38-1.585-18.767c-2.652-4.079-8.776-3.867-12.584-1.771c-4.325,2.375-2.485,8.885-0.929,12.324
	c2.229,4.934,6.604,8.97,12.167,9.199C382.867,490.377,386.509,488.948,384.646,488.87L384.646,488.87z"/>
<path d="M385.051,489.396c0.075-5.928,1.462-16.521,7.509-19.438c2.205-1.062,5.334,0.843,6.697,2.438
	c1.709,1.993,0.673,5.21-0.308,7.242c-2.766,5.729-9.541,7.819-15.334,8.788c-1.921,0.321-3.121,2.799-0.474,2.355
	c7.284-1.218,14.771-3.67,18.986-10.157c3.746-5.767,1.418-11.588-5.212-13.105c-11.663-2.674-15.642,14.008-15.746,22.301
	C381.149,491.572,385.033,490.811,385.051,489.396L385.051,489.396z"/>
<path d="M383.201,490.996c6.37-0.206,12.459-3.213,18.91-2.317c1.708,0.237,2.976,1.257,3.631,2.815
	c1.67,3.973-1.451,6.785-5.188,7.311c-6.912,0.976-11.354-4.895-15.673-9.248c-1.212-1.223-4.871,0.35-3.541,1.688
	c5.636,5.686,10.277,10.882,18.858,10.338c5.973-0.378,10.576-4.127,9.621-10.347c-1.628-10.601-20.287-3.211-26.266-3.021
	C381.379,488.289,380.566,491.082,383.201,490.996L383.201,490.996z"/>
<path d="M381.059,490.933c3.237,4.873,5.221,13.142,2.293,18.521c-1.724,3.175-5.325,1.635-7.098-0.479
	c-1.331-1.59-1.756-3.938-1.75-5.938c0.014-5.139,5.236-9.859,9.304-12.196c2.271-1.302-1.064-2.208-2.467-1.403
	c-5.244,3.016-10.707,8.569-10.725,14.984c-0.019,5.604,4.146,9.442,9.538,9.312c12.103-0.301,8.651-18.095,4.471-24.393
	C383.805,488.105,380.074,489.451,381.059,490.933L381.059,490.933z"/>
<path d="M382.612,489.278c-2.688,0.815-5.104,2.039-7.569,3.356c-2.775,1.486-6.069,2.812-9.01,0.938
	c-1.907-1.215-2.545-3.481-2.354-5.596c0.938-10.378,12.864-0.41,16.562,2.096c1.061,0.72,4.521-0.831,3.604-1.455
	c-6.458-4.379-16.065-12.384-22.562-3.44c-3.265,4.489-0.869,9.822,4.194,11.244c6.297,1.769,12.031-3.729,17.601-5.427
	C385.332,490.306,384.9,488.58,382.612,489.278L382.612,489.278z"/>
<g>
	<path d="M383.914,491.721c1.071-1.848,0.536-5.018-2.143-3.959c-2.947,1.059-0.536,4.227,1.875,3.959c0-0.525,0-1.057,0.268-1.316"
		/>
	<path d="M385.83,491.418c0.583-1.062,0.795-2.567,0.169-3.658c-1.01-1.761-3.641-1.079-5.138-0.491
		c-1.4,0.553-2.983,1.773-2.131,3.423c0.762,1.471,2.557,2.049,4.109,1.932c0.741-0.056,2.731-0.373,2.736-1.416
		c0.001-0.244-0.055-0.664,0.104-0.877c0.52-0.699-0.438-0.847-0.964-0.824c-0.782,0.032-2.063,0.289-2.571,0.973
		c-0.406,0.558-0.429,1.096-0.432,1.768c0.912-0.473,1.824-0.944,2.736-1.416c-0.545,0.04-1.352-0.49-1.813-1.09
		c-0.174-0.229-0.321-0.656-0.296-0.943c0.016-0.123,0.062-0.303,0.13-0.404c0.155-0.218,0.106-0.089,0.004-0.049
		c-0.228,0.09-0.539,0.178-0.78,0.11c0.134,0.036,0.205,0.114,0.313,0.216c0.257,0.23,0.354,0.604,0.429,0.93
		c0.188,0.829-0.036,1.702-0.438,2.436c-0.386,0.703,1.381,0.58,1.593,0.547C384.356,492.449,385.426,492.153,385.83,491.418
		L385.83,491.418z"/>
</g>
<path d="M509.922,450.318c-6.071-4.831-5.396-16.666,0.299-21.604c1.281-1.105,4.16,2.465,4.646,3.16
	c1.395,2.007,0.986,4.671,0.292,6.822c-1.574,4.854-5.729,8.915-9.172,12.494c-0.736,0.766,2.871,0.269,3.479-0.363
	c4.265-4.432,9.247-9.383,10.168-15.729c0.758-5.213-4.602-9.006-9.296-7.747c-9.547,2.561-11.318,18.468-4.062,24.237
	C507.062,452.225,510.387,450.688,509.922,450.318L509.922,450.318z"/>
<path d="M509.695,450.898c3.494-4.518,11.54-12.912,17.812-9.896c4.686,2.25,4.408,8.109,0.579,10.782
	c-5.48,3.828-13.187,0.766-18.471-1.819c-1.244-0.604-4.758,1.146-3.045,1.982c6.871,3.358,14.088,5.232,21.473,2.474
	c6.069-2.271,8.778-7.646,5.013-13.195c-6.978-10.272-22.464,3.628-26.989,9.479C504.93,452.172,508.856,451.981,509.695,450.898
	L509.695,450.898z"/>
<path d="M506.604,452.059c5.485,3.771,13.136,4.718,17.487,10.092c1.111,1.366,1.272,2.991,0.63,4.601
	c-1.748,4.37-6.145,2.711-9.13,0.711c-5.424-3.632-5.416-10.737-6.256-16.538c-0.254-1.753-4.128-0.789-3.863,1.035
	c1.108,7.657,1.623,14.584,8.912,18.816c5.334,3.098,11.857,1.808,14.255-4.188c3.732-9.327-13.969-13.24-19.051-16.729
	C508.208,448.905,504.802,450.82,506.604,452.059L506.604,452.059z"/>
<path d="M505.405,451.272c-0.248,4.889-4.868,18.649-11.759,15.492c-4.337-1.981-3.117-7.957-0.732-10.904
	c2.915-3.607,9.241-4.219,13.501-3.727c1.658,0.192,4.043-2.146,1.434-2.448c-6.03-0.695-12.936,0.729-17.583,4.79
	c-3.543,3.1-5.084,10.146-0.971,13.397c10.146,8.018,19.569-8.618,19.995-17.009C509.38,449.087,505.48,449.796,505.405,451.272
	L505.405,451.272z"/>
<path d="M508.899,450.19c-4.415-1.562-9.262-1.231-13.557-3.153c-4.85-2.17-5.203-9.293,0.21-10.971
	c5.963-1.853,8.416,10.854,9.688,14.414c0.438,1.229,4.267,0.094,3.862-1.035c-2.521-7.052-4.652-17.998-14.65-14.898
	c-4.729,1.466-8.357,5.674-6.062,10.688c2.812,6.117,12.155,4.862,17.398,6.718C506.869,452.33,510.384,450.714,508.899,450.19
	L508.899,450.19z"/>
<g>
	<path d="M507.257,452.971c1.979-0.857,3.45-3.727,0.657-4.438c-3.008-0.873-2.973,3.087-0.873,4.283
		c0.318-0.43,0.635-0.854,1.011-0.906"/>
	<path d="M508.402,453.347c1.32-0.62,2.828-1.869,2.97-3.433c0.171-1.897-2.091-2.438-3.581-2.402
		c-1.59,0.037-3.843,0.825-4.136,2.616c-0.214,1.306,0.457,2.695,1.575,3.382c0.898,0.554,2.944,0.062,3.574-0.77
		c0.064-0.084,0.128-0.168,0.191-0.252c0.324-0.331,0.243-0.333-0.244-0.006c0.289-0.103,1.713-0.774,1.106-1.271
		c-0.629-0.514-1.865-0.102-2.519,0.121c-0.889,0.303-1.517,0.818-2.07,1.555c1.188-0.257,2.385-0.513,3.574-0.77
		c-0.726-0.445-1.134-1.09-1.312-1.914c-0.071-0.322-0.07-0.643,0.003-0.959c0.024-0.107,0.096-0.312,0.138-0.367
		c0.108-0.116,0.113-0.13,0.019-0.04c-0.496,0.311-1.026,0.466-1.594,0.466c0.829,0.045,1.55,0.671,1.396,1.532
		c-0.138,0.794-0.771,1.468-1.388,1.758c-0.415,0.194-1.271,0.919-0.426,1.195C506.559,454.075,507.618,453.715,508.402,453.347
		L508.402,453.347z"/>
</g>
<path d="M508.646,489.87c-7.58-0.319-14.737-11.271-12.046-18.437c0.973-2.571,3.593-1.483,5.43-0.354
	c2.103,1.293,2.933,3.994,3.434,6.246c1.013,4.558,0.295,9.496-0.283,14.062c-0.046,0.36,3.728,0.07,3.863-1.031
	c0.763-6.021,1.918-13.38-1.585-18.767c-2.651-4.079-8.776-3.867-12.584-1.771c-4.325,2.375-2.485,8.885-0.929,12.324
	c2.229,4.934,6.604,8.97,12.167,9.199C506.866,491.377,510.51,489.948,508.646,489.87L508.646,489.87z"/>
<path d="M509.051,490.396c0.075-5.928,1.462-16.521,7.509-19.438c2.204-1.062,5.334,0.843,6.697,2.438
	c1.708,1.993,0.673,5.21-0.309,7.242c-2.766,5.729-9.54,7.819-15.335,8.788c-1.92,0.321-3.12,2.799-0.473,2.355
	c7.283-1.218,14.771-3.67,18.984-10.157c3.747-5.767,1.419-11.588-5.211-13.105c-11.663-2.674-15.642,14.008-15.746,22.301
	C505.149,492.572,509.033,491.811,509.051,490.396L509.051,490.396z"/>
<path d="M507.2,491.996c6.37-0.206,12.46-3.213,18.91-2.317c1.708,0.237,2.976,1.257,3.631,2.815
	c1.67,3.973-1.451,6.785-5.188,7.311c-6.911,0.976-11.354-4.895-15.673-9.248c-1.212-1.223-4.871,0.35-3.541,1.688
	c5.636,5.686,10.276,10.882,18.857,10.338c5.974-0.378,10.575-4.127,9.621-10.347c-1.632-10.601-20.287-3.211-26.266-3.021
	C505.38,489.289,504.566,492.082,507.2,491.996L507.2,491.996z"/>
<path d="M505.059,491.933c3.237,4.873,5.221,13.142,2.294,18.521c-1.725,3.175-5.325,1.635-7.098-0.479
	c-1.331-1.59-1.757-3.938-1.751-5.938c0.014-5.139,5.235-9.859,9.304-12.196c2.271-1.302-1.064-2.208-2.467-1.403
	c-5.243,3.016-10.707,8.569-10.725,14.984c-0.019,5.604,4.146,9.442,9.538,9.312c12.103-0.301,8.651-18.095,4.471-24.393
	C507.805,489.105,504.074,490.451,505.059,491.933L505.059,491.933z"/>
<path d="M506.611,490.278c-2.688,0.815-5.104,2.039-7.568,3.356c-2.775,1.486-6.069,2.812-9.01,0.938
	c-1.907-1.215-2.545-3.481-2.354-5.596c0.938-10.378,12.864-0.41,16.562,2.096c1.061,0.72,4.521-0.831,3.604-1.455
	c-6.457-4.379-16.065-12.384-22.562-3.44c-3.265,4.489-0.868,9.822,4.194,11.244c6.297,1.769,12.031-3.729,17.602-5.427
	C509.332,491.306,508.9,489.58,506.611,490.278L506.611,490.278z"/>
<g>
	<path d="M507.914,492.721c1.071-1.848,0.536-5.018-2.143-3.959c-2.947,1.059-0.536,4.227,1.875,3.959c0-0.525,0-1.057,0.268-1.316"
		/>
	<path d="M509.829,492.418c0.584-1.062,0.796-2.567,0.169-3.658c-1.01-1.761-3.641-1.079-5.137-0.491
		c-1.401,0.553-2.983,1.773-2.132,3.423c0.762,1.471,2.557,2.049,4.108,1.932c0.742-0.056,2.731-0.373,2.736-1.416
		c0.001-0.244-0.054-0.664,0.104-0.877c0.521-0.699-0.438-0.847-0.963-0.824c-0.782,0.032-2.063,0.289-2.568,0.973
		c-0.41,0.558-0.433,1.096-0.436,1.768c0.912-0.473,1.824-0.944,2.736-1.416c-0.546,0.04-1.353-0.49-1.813-1.09
		c-0.174-0.229-0.321-0.656-0.296-0.943c0.013-0.123,0.062-0.303,0.13-0.404c0.154-0.218,0.106-0.089,0.004-0.049
		c-0.228,0.09-0.539,0.178-0.779,0.11c0.134,0.036,0.204,0.114,0.312,0.216c0.258,0.23,0.354,0.604,0.429,0.93
		c0.188,0.829-0.035,1.702-0.438,2.436c-0.386,0.703,1.38,0.58,1.593,0.547C508.356,493.449,509.426,493.153,509.829,492.418
		L509.829,492.418z"/>
</g>
<path d="M379.921,413.227c-7.581-0.315-14.736-11.268-12.041-18.433c0.969-2.576,3.589-1.487,5.426-0.358
	c2.104,1.295,2.938,3.994,3.438,6.246c1.013,4.562,0.295,9.496-0.285,14.064c-0.046,0.359,3.723,0.07,3.863-1.035
	c0.764-6.019,1.92-13.376-1.583-18.764c-2.652-4.077-8.776-3.866-12.584-1.774c-4.325,2.376-2.486,8.885-0.933,12.328
	c2.229,4.93,6.605,8.967,12.166,9.2C378.142,414.733,381.785,413.305,379.921,413.227L379.921,413.227z"/>
<path d="M380.326,413.752c0.075-5.925,1.463-16.52,7.511-19.438c2.205-1.062,5.333,0.843,6.697,2.437
	c1.708,1.997,0.673,5.21-0.312,7.246c-2.762,5.729-9.542,7.819-15.336,8.789c-1.92,0.321-3.121,2.8-0.47,2.354
	c7.284-1.219,14.773-3.67,18.987-10.154c3.746-5.771,1.418-11.591-5.211-13.107c-11.664-2.671-15.646,14.006-15.748,22.3
	C376.425,415.929,380.309,415.167,380.326,413.752L380.326,413.752z"/>
<path d="M378.476,415.353c6.371-0.202,12.46-3.213,18.911-2.313c1.708,0.236,2.979,1.256,3.631,2.812
	c1.674,3.977-1.447,6.785-5.186,7.312c-6.913,0.973-11.357-4.896-15.675-9.248c-1.212-1.223-4.872,0.347-3.541,1.688
	c5.637,5.688,10.273,10.887,18.855,10.342c5.977-0.383,10.575-4.128,9.62-10.352c-1.627-10.597-20.288-3.21-26.263-3.016
	C376.655,412.646,375.842,415.438,378.476,415.353L378.476,415.353z"/>
<path d="M376.336,415.288c3.236,4.874,5.216,13.139,2.292,18.521c-1.724,3.179-5.33,1.639-7.098-0.479
	c-1.331-1.59-1.756-3.94-1.75-5.94c0.015-5.14,5.231-9.854,9.304-12.192c2.267-1.306-1.068-2.208-2.467-1.404
	c-5.245,3.013-10.706,8.569-10.729,14.985c-0.016,5.602,4.15,9.438,9.538,9.31c12.104-0.297,8.654-18.09,4.476-24.389
	C379.083,412.461,375.352,413.807,376.336,415.288L376.336,415.288z"/>
<path d="M377.889,413.634c-2.685,0.819-5.101,2.039-7.566,3.361c-2.775,1.486-6.069,2.808-9.014,0.935
	c-1.903-1.215-2.545-3.479-2.354-5.595c0.935-10.375,12.864-0.412,16.559,2.094c1.062,0.724,4.523-0.831,3.604-1.455
	c-6.457-4.379-16.069-12.383-22.564-3.438c-3.261,4.489-0.869,9.823,4.197,11.245c6.294,1.767,12.033-3.729,17.599-5.432
	C380.609,414.661,380.178,412.936,377.889,413.634L377.889,413.634z"/>
<g>
	<path d="M379.191,416.076c1.066-1.852,0.531-5.021-2.146-3.959c-2.947,1.055-0.536,4.223,1.874,3.959c0-0.529,0-1.061,0.271-1.32"
		/>
	<path d="M381.107,415.773c0.583-1.063,0.794-2.567,0.168-3.658c-1.014-1.76-3.645-1.079-5.142-0.491
		c-1.396,0.549-2.979,1.773-2.131,3.419c0.761,1.471,2.556,2.049,4.112,1.932c0.742-0.056,2.729-0.373,2.732-1.416
		c0.002-0.241-0.053-0.659,0.106-0.877c0.52-0.694-0.445-0.847-0.964-0.82c-0.784,0.028-2.064,0.29-2.572,0.973
		c-0.412,0.553-0.43,1.092-0.433,1.764c0.911-0.472,1.821-0.94,2.732-1.416c-0.544,0.04-1.348-0.486-1.812-1.09
		c-0.174-0.225-0.324-0.654-0.296-0.939c0.012-0.123,0.058-0.307,0.13-0.404c0.154-0.218,0.104-0.089,0.004-0.049
		c-0.229,0.09-0.54,0.177-0.784,0.106c0.134,0.036,0.205,0.115,0.317,0.22c0.257,0.229,0.354,0.604,0.427,0.931
		c0.188,0.828-0.037,1.701-0.438,2.431c-0.386,0.703,1.383,0.58,1.596,0.547C379.634,416.805,380.704,416.51,381.107,415.773
		L381.107,415.773z"/>
</g>
<path d="M504.921,413.227c-7.58-0.315-14.736-11.268-12.041-18.433c0.969-2.576,3.589-1.487,5.426-0.358
	c2.104,1.295,2.938,3.994,3.438,6.246c1.013,4.562,0.296,9.496-0.284,14.064c-0.046,0.359,3.724,0.07,3.863-1.035
	c0.765-6.019,1.92-13.376-1.583-18.764c-2.652-4.077-8.776-3.866-12.585-1.774c-4.325,2.376-2.485,8.885-0.933,12.328
	c2.229,4.93,6.605,8.967,12.166,9.2C503.142,414.733,506.785,413.305,504.921,413.227L504.921,413.227z"/>
<path d="M505.326,413.752c0.075-5.925,1.463-16.52,7.511-19.438c2.204-1.062,5.333,0.843,6.696,2.437
	c1.709,1.997,0.674,5.21-0.312,7.246c-2.762,5.729-9.542,7.819-15.337,8.789c-1.92,0.321-3.12,2.8-0.469,2.354
	c7.283-1.219,14.771-3.67,18.986-10.154c3.744-5.771,1.418-11.591-5.211-13.107c-11.664-2.671-15.646,14.006-15.748,22.3
	C501.425,415.929,505.309,415.167,505.326,413.752L505.326,413.752z"/>
<path d="M503.476,415.353c6.371-0.202,12.462-3.213,18.911-2.313c1.708,0.236,2.979,1.256,3.631,2.812
	c1.67,3.977-1.447,6.785-5.186,7.312c-6.913,0.973-11.357-4.896-15.675-9.248c-1.212-1.223-4.871,0.347-3.541,1.688
	c5.638,5.688,10.273,10.887,18.855,10.342c5.977-0.383,10.575-4.128,9.62-10.352c-1.627-10.597-20.288-3.21-26.263-3.016
	C501.655,412.646,500.842,415.438,503.476,415.353L503.476,415.353z"/>
<path d="M501.336,415.288c3.236,4.874,5.216,13.139,2.292,18.521c-1.724,3.179-5.329,1.639-7.098-0.479
	c-1.33-1.59-1.755-3.94-1.749-5.94c0.015-5.14,5.23-9.854,9.304-12.192c2.267-1.306-1.068-2.208-2.467-1.404
	c-5.245,3.013-10.706,8.569-10.729,14.985c-0.017,5.602,4.149,9.438,9.537,9.31c12.104-0.297,8.654-18.09,4.476-24.389
	C504.082,412.461,500.352,413.807,501.336,415.288L501.336,415.288z"/>
<path d="M502.889,413.634c-2.685,0.819-5.101,2.039-7.565,3.361c-2.775,1.486-6.069,2.808-9.014,0.935
	c-1.903-1.215-2.545-3.479-2.354-5.595c0.935-10.375,12.864-0.412,16.559,2.094c1.062,0.724,4.523-0.831,3.604-1.455
	c-6.457-4.379-16.068-12.383-22.564-3.438c-3.261,4.489-0.865,9.823,4.198,11.245c6.294,1.767,12.032-3.729,17.599-5.432
	C505.609,414.661,505.178,412.936,502.889,413.634L502.889,413.634z"/>
<g>
	<path d="M504.191,416.076c1.066-1.852,0.531-5.021-2.146-3.959c-2.947,1.055-0.536,4.223,1.874,3.959c0-0.529,0-1.061,0.271-1.32"
		/>
	<path d="M506.106,415.773c0.583-1.063,0.795-2.567,0.168-3.658c-1.014-1.76-3.645-1.079-5.141-0.491
		c-1.397,0.549-2.979,1.773-2.132,3.419c0.761,1.471,2.559,2.049,4.111,1.932c0.742-0.056,2.729-0.373,2.732-1.416
		c0.001-0.241-0.054-0.659,0.105-0.877c0.52-0.694-0.444-0.847-0.963-0.82c-0.785,0.028-2.064,0.29-2.572,0.973
		c-0.412,0.553-0.431,1.092-0.434,1.764c0.911-0.472,1.821-0.94,2.732-1.416c-0.545,0.04-1.349-0.486-1.812-1.09
		c-0.175-0.225-0.324-0.654-0.296-0.939c0.012-0.123,0.058-0.307,0.13-0.404c0.151-0.218,0.104-0.089,0.004-0.049
		c-0.229,0.09-0.539,0.177-0.783,0.106c0.134,0.036,0.205,0.115,0.316,0.22c0.258,0.229,0.354,0.604,0.428,0.931
		c0.188,0.828-0.037,1.701-0.438,2.431c-0.388,0.703,1.382,0.58,1.595,0.547C504.634,416.805,505.703,416.51,506.106,415.773
		L506.106,415.773z"/>
</g>
<path d="M404.704,398.856c11.078,6.743,20.912,13.896,26.604,25.975c5.701,12.092,6.021,26.087,10.384,38.649
	c0.626-0.192,1.252-0.39,1.879-0.578c-26.767-12.779-31.211-45.771-40.622-70.74c-0.157-0.418-2.059,0.189-1.936,0.518
	c9.437,25.028,13.903,58.057,40.729,70.861c0.271,0.131,2.021-0.156,1.879-0.578c-4.548-13.109-5.073-27.396-11.033-40.035
	c-5.386-11.424-15.629-18.354-26.059-24.71C406.073,397.939,404.506,398.736,404.704,398.856L404.704,398.856z"/>
<path d="M407.902,402.517c16.715,9.101,19.123,30.447,26.312,46.271c0.407,0.896,2.323,0.345,1.936-0.521
	c-7.299-16.053-9.79-37.67-26.771-46.908C408.593,400.93,406.927,401.986,407.902,402.517L407.902,402.517z"/>
<path d="M447.457,457.106c1.603-13.891,4.383-26.558,14.289-37.02c8.552-9.03,19.889-14.922,28.841-23.541
	c-0.612,0.117-1.225,0.233-1.836,0.354c-0.418,29.627-28.429,47.424-47.161,66.42c-0.37,0.376,1.436,0.132,1.74-0.186
	c18.805-19.066,46.933-36.996,47.353-66.756c0.01-0.383-1.674,0.193-1.836,0.353c-9.315,8.974-21.312,15.021-29.942,24.714
	c-9.271,10.399-11.827,22.765-13.375,36.18C445.504,457.812,447.394,457.657,447.457,457.106L447.457,457.106z"/>
<path d="M449.293,453.133c1.271-18.964,19.677-30.093,31.027-43.238c0.81-0.938-1.025-1.334-1.633-0.631
	c-11.547,13.368-30.063,24.68-31.357,43.994C447.26,454.308,449.23,454.062,449.293,453.133L449.293,453.133z"/>
<g>
	<path d="M215.806,321.459c3.115,1.025,5.864,1.582,8.013,1.582c3.731,0,6.661-1.086,8.591-2.707
		c1.084-0.911,1.839-1.982,2.219-3.102c0.354-1.045,0.38-2.146,0.037-3.193c-0.455-1.395-1.567-2.748-3.43-3.863
		c-2.82-1.688-5.738-3.613-8.681-5.554c-6.987-4.608-14.116-9.312-20.975-11.356c-2.102-0.626-4.201-1.288-6.239-1.929
		c-15.913-5.011-27.913-8.79-38.904,7.198c-8.725,12.691-18.195,25.146-27.615,37.537c-1.631,2.146-3.261,4.287-7.089,9.355
		c-5.035,6.666-3.195,27.586,1.455,50.088c2.804,13.562,12.894,55.479,23.282,67.163c2.094,2.354-1.487,5.539-3.581,3.188
		c-0.566-0.637-1.154-1.415-1.76-2.322c-3.692,16.094-12.028,35.75-22.593,48.413c-2.02,2.414-5.695-0.661-3.675-3.075
		c10.959-13.136,19.807-34.94,22.676-51.758c-6.63-13.562-14.323-37.847-19.036-60.656c-4.892-23.67-6.566-46.021-0.593-53.93
		c0.881-1.168,3.993-5.259,7.108-9.354c9.341-12.287,18.73-24.64,27.483-37.372c12.994-18.902,26.438-14.669,44.267-9.055
		c1.98,0.624,4.019,1.266,6.183,1.911c7.492,2.233,14.936,7.144,22.231,11.957c2.849,1.879,5.673,3.742,8.512,5.441
		c2.93,1.754,4.729,4.039,5.53,6.482c0.672,2.062,0.627,4.197-0.057,6.213c-0.658,1.941-1.91,3.752-3.682,5.24
		c-2.236,1.877-5.319,3.248-9.074,3.684c8.709,5.086,16.777,11.412,23.965,21.75c4.365,6.277,0.658,13.734-5.563,16.772
		c14.688,7.593,11.904,25.177-2.572,26.984c14.425,6.432,7.948,26.17-8.73,24.926c-21.214-1.583-32.993-1.863-41.945-0.126
		c-8.787,1.704-15.09,5.458-25.333,11.944c-1.118,0.704-2.596,0.367-3.3-0.75c-0.704-1.118-0.369-2.6,0.75-3.302
		c10.732-6.8,17.363-10.733,26.983-12.603c9.455-1.834,21.554-1.562,43.201,0.051c13.053,0.977,17.209-15.514,1.024-17.104
		c-5.956-0.585-10.696-1.646-15.214-2.654c-5.591-1.25-10.827-2.421-17.664-2.421c-2.724,0-6.183,0.201-9.998,0.423
		c-10.375,0.604-23.281,1.354-30.46-1.196c-2.689-0.699-2.197-4.726,0.605-4.726c4.727,0,14.797-1.121,23.808-2.992
		c6.479-1.344,12.321-3.035,14.984-4.899c1.497-1.045,3.54-0.088,3.744,1.686c4.799,1.572,10.291,2.896,15.794,4.227
		c5.464,1.316,10.939,2.642,15.814,4.203c12.039,3.866,20.65-10.814,5.346-17.886c-3.219-1.487-6.312-3.017-9.479-4.569
		c-9.188-4.504-19.274-9.451-27.688-11.728c-13.525-2.999-36.394,2.101-51.131,3.883c-1.315,0.156-2.507-0.784-2.663-2.101
		c-0.155-1.313,0.785-2.506,2.1-2.661c6.576-0.796,14.344-2.703,20.928-4.897c4.584-1.527,8.534-3.146,10.998-4.57
		c-0.363-0.481-0.543-1.104-0.457-1.754c0.176-1.31,1.381-2.229,2.691-2.053c1.631,0.223,4.832,1.562,8.456,3.312
		c4.509,2.183,9.88,5.084,13.507,7.164c8.045,2.621,17.061,7.041,25.357,11.107c1.05,0.518,2.087,1.021,3.118,1.524
		c5.593,1.188,12.842-5.03,9.05-10.48c-10.357-14.896-22.984-21.05-36.775-27.767c-5.571-2.715-11.327-5.521-17.285-9.057
		c-3.77-2.232-7.244-2.896-10.644-2.516c-3.533,0.402-7.095,1.928-10.861,4.021c-2.686,1.49-5.724,3.276-8.895,5.143
		c-6.994,4.111-14.618,8.596-20.182,10.984c-1.217,0.521-2.627-0.041-3.15-1.258c-0.523-1.218,0.04-2.627,1.256-3.148
		c5.39-2.314,12.832-6.689,19.657-10.703c3.236-1.9,6.336-3.727,8.988-5.197c4.276-2.375,8.394-4.115,12.662-4.602
		c4.402-0.5,8.85,0.331,13.606,3.15C200.645,314.697,209.418,319.357,215.806,321.459L215.806,321.459z M227.556,390.359
		c-6.717-1.75-21.067-4.367-26.619-7.139c-3.147,1.44-7.503,2.711-12.223,3.76c1.031-0.06,2.045-0.115,3.036-0.174
		c3.985-0.23,7.597-0.44,10.26-0.44C211.21,386.366,218.776,388.725,227.556,390.359z M195.308,348.154
		c-0.672-0.336-1.336-0.663-1.984-0.979c-1.26-0.608-2.441-1.159-3.477-1.612c-1.126,0.978-2.855,2.021-5.009,3.069
		C188.445,348.341,192.006,348.157,195.308,348.154z"/>
</g>
</svg>
