<?xml version="1.0" encoding="utf-8"?>
<!-- Generator: Adobe Illustrator 15.1.0, SVG Export Plug-In . SVG Version: 6.00 Build 0)  -->
<!DOCTYPE svg PUBLIC "-//W3C//DTD SVG 1.1//EN" "http://www.w3.org/Graphics/SVG/1.1/DTD/svg11.dtd">
<svg version="1.1" id="Calque_1" xmlns="http://www.w3.org/2000/svg" xmlns:xlink="http://www.w3.org/1999/xlink" x="0px" y="0px"
	 width="489px" height="182px" viewBox="0 0 489 182" enable-background="new 0 0 489 182" xml:space="preserve">
<g>
	<path d="M52.813,13.611c5.725,0,11.253-0.275,16.586-0.822c0.236,0.353,0.361,1.057,0.382,2.115c0.02,1.06-0.108,1.806-0.382,2.236
		c-4.627,0.353-7.138,1.06-7.529,2.117c-0.627,1.568-0.94,5.255-0.94,11.059v43.523c0,13.332-3.108,23.743-9.322,31.231
		c-6.215,7.49-14.714,11.236-25.498,11.236c-1.059,0-2.294-0.236-3.706-0.707c-1.412-0.473-2.411-0.94-3-1.41
		c-0.039-0.08-0.157-0.256-0.354-0.53c-0.196-0.274-0.323-0.479-0.382-0.618c-0.059-0.136-0.166-0.344-0.323-0.615
		c-0.156-0.273-0.273-0.511-0.353-0.708c-0.078-0.194-0.156-0.44-0.235-0.735c-0.079-0.293-0.138-0.588-0.178-0.881
		c-0.038-0.293-0.058-0.617-0.058-0.972c0-2.038,0.715-3.86,2.147-5.471c1.432-1.606,3.068-2.41,4.912-2.41
		c1.881,0,4.116,1.293,6.705,3.882c0.079,0.078,0.265,0.274,0.559,0.589c0.293,0.312,0.49,0.521,0.588,0.615
		c0.097,0.101,0.273,0.274,0.529,0.531c0.254,0.255,0.45,0.431,0.588,0.528c0.137,0.1,0.323,0.254,0.559,0.471
		c0.236,0.216,0.421,0.361,0.559,0.441c0.137,0.075,0.313,0.188,0.53,0.321c0.214,0.138,0.401,0.231,0.559,0.293
		c0.156,0.062,0.324,0.106,0.5,0.146c0.176,0.039,0.362,0.061,0.559,0.061c0.902,0,1.714-0.205,2.44-0.617
		c0.726-0.41,1.353-1.098,1.883-2.057c0.529-0.962,0.98-1.962,1.353-3.002c0.372-1.039,0.676-2.451,0.912-4.233
		c0.234-1.784,0.431-3.432,0.588-4.94c0.156-1.51,0.264-3.487,0.322-5.938c0.06-2.452,0.098-4.589,0.118-6.413
		c0.019-1.822,0.029-4.206,0.029-7.145V30.316c0-5.804-0.314-9.491-0.941-11.059c-0.392-1.057-2.902-1.764-7.528-2.117
		c-0.274-0.431-0.403-1.176-0.382-2.236c0.02-1.058,0.147-1.762,0.382-2.115C41.324,13.336,46.931,13.611,52.813,13.611z"/>
	<path d="M89.516,62.194c0,3.138,0.412,5.921,1.234,8.352c0.824,2.431,1.833,4.333,3.029,5.707c1.196,1.373,2.579,2.5,4.147,3.381
		c1.566,0.883,3,1.472,4.293,1.765c1.293,0.295,2.549,0.44,3.764,0.44c5.214,0,9.607-1.959,13.175-5.88
		c0.392,0.117,0.726,0.402,1,0.853c0.273,0.452,0.412,0.872,0.412,1.265c0,1.137-0.118,1.881-0.353,2.233
		c-0.628,0.982-1.529,2.049-2.706,3.206c-1.176,1.158-2.667,2.384-4.47,3.677c-1.804,1.294-3.951,2.371-6.44,3.234
		c-2.491,0.863-5.05,1.296-7.677,1.296c-4.431,0-8.508-0.962-12.233-2.885c-3.725-1.92-6.734-4.772-9.028-8.556
		c-2.294-3.784-3.44-8.166-3.44-13.146c0-4.863,1.225-9.538,3.676-14.029c2.45-4.488,5.706-8.116,9.764-10.881
		s8.283-4.146,12.675-4.146c2.941,0,5.617,0.402,8.029,1.205c2.411,0.804,4.372,1.833,5.881,3.088
		c1.51,1.255,2.784,2.685,3.824,4.294c1.038,1.606,1.773,3.175,2.206,4.706c0.431,1.529,0.647,3.019,0.647,4.47
		c0,1.293-0.314,2.431-0.94,3.411c-0.628,0.98-1.375,1.49-2.236,1.529C110.689,61.409,101.278,61.88,89.516,62.194z M89.633,57.488
		c0.508,0.039,2.812-0.057,6.911-0.293c4.097-0.236,6.852-0.451,8.263-0.647c1.02-0.079,1.529-0.706,1.529-1.882
		c0-3.138-0.588-5.882-1.764-8.235c-1.176-2.353-2.981-3.529-5.412-3.529c-1.608,0-3.068,0.56-4.382,1.677
		c-1.315,1.117-2.323,2.5-3.029,4.146c-0.706,1.647-1.235,3.235-1.588,4.765C89.81,55.019,89.633,56.351,89.633,57.488z"/>
	<path d="M166.39,60.077c0-5.098-0.353-8.313-1.058-9.647c-0.393-0.744-1.5-1.322-3.324-1.733c-1.824-0.412-3.186-0.62-4.087-0.62
		c-0.197-0.117-0.294-0.754-0.294-1.91c0-1.158,0.137-1.736,0.411-1.736c4.079-0.313,8.265-1.098,12.558-2.353
		c4.293-1.254,7.754-2.548,10.381-3.882c0.392,0.117,0.824,0.433,1.294,0.941c0.47,0.51,0.706,0.862,0.706,1.059
		c-0.156,0.47-0.374,1.501-0.647,3.089c-0.273,1.586-0.451,2.793-0.529,3.615c-0.08,1.726-0.118,4.198-0.118,7.411v23.645
		c0,2.197,0.353,3.687,1.059,4.47c0.706,0.785,2.47,1.177,5.294,1.177c0.234,0.235,0.353,0.745,0.353,1.528
		c0,0.785-0.235,1.531-0.706,2.235c-2,0.197-4.587,0.638-7.764,1.325c-3.176,0.686-5.951,1.321-8.323,1.909
		c-2.372,0.588-3.754,0.884-4.146,0.884c-0.274,0-0.521-0.265-0.735-0.796c-0.215-0.528-0.323-1.204-0.323-2.028v-1.88
		c0-0.55-0.118-0.745-0.353-0.589c-0.941,0.628-2.05,1.275-3.324,1.941c-1.273,0.666-3.176,1.353-5.705,2.06
		c-2.528,0.704-5.048,1.058-7.558,1.058c-2.744,0-5.126-0.567-7.146-1.706c-2.021-1.137-3.587-2.715-4.706-4.733
		c-1.117-2.021-1.931-4.236-2.44-6.647c-0.509-2.413-0.764-5.069-0.764-7.97V60.077c0-5.098-0.354-8.313-1.059-9.647
		c-0.393-0.744-1.501-1.322-3.324-1.733c-1.824-0.412-3.186-0.62-4.087-0.62c-0.197-0.117-0.294-0.754-0.294-1.91
		c0-1.158,0.137-1.736,0.411-1.736c4.079-0.313,8.264-1.098,12.559-2.353c4.293-1.254,7.754-2.548,10.38-3.882
		c0.391,0.117,0.824,0.433,1.294,0.941c0.47,0.51,0.706,0.862,0.706,1.059c-0.157,0.47-0.375,1.501-0.648,3.089
		c-0.273,1.586-0.451,2.793-0.529,3.615c-0.079,1.726-0.118,4.198-0.118,7.411v10.588c0,6.628,0.656,11.479,1.971,14.557
		c1.313,3.079,3.714,4.618,7.205,4.618c1.608,0,3.265-0.5,4.97-1.5c1.706-1,2.559-1.952,2.559-2.853V60.077H166.39z"/>
</g>
<g>
	<path d="M201.444,112.229c3.802,0,6.813,0.754,9.028,2.268c2.215,1.51,4.029,4.129,5.44,7.854c2.666-2.629,5.892-4.972,9.676-7.026
		c3.785-2.062,6.99-3.089,9.616-3.089c2.667,0,4.942,0.382,6.824,1.146c1.883,0.768,3.419,1.844,4.617,3.233
		c1.196,1.393,2.127,3.266,2.795,5.616c0.664,2.354,1.125,4.91,1.386,7.678c0.254,2.765,0.38,6.125,0.38,10.087v7.646
		c0,5.805,0.312,9.486,0.939,11.06c0.393,1.06,2.899,1.766,7.528,2.116c0.272,0.433,0.401,1.178,0.384,2.231
		c-0.021,1.062-0.146,1.767-0.384,2.12c-5.372-0.549-10.746-0.825-16.115-0.825c-4.433,0-9.334,0.276-14.706,0.825
		c-0.235-0.354-0.363-1.062-0.382-2.12c-0.021-1.058,0.108-1.803,0.382-2.231c3.646-0.272,5.685-0.979,6.117-2.116
		c0.626-1.569,0.941-5.255,0.941-11.06v-9.293c0-11.059-2.626-16.589-7.881-16.589c-2.274,0-4.686,0.776-7.235,2.325
		c-2.55,1.546-3.824,2.934-3.824,4.146v0.705c0.315,4.393,0.472,8.075,0.472,11.059v7.646c0,5.805,0.313,9.485,0.94,11.059
		c0.392,1.06,2.823,1.766,7.293,2.117c0.274,0.432,0.402,1.177,0.382,2.23c-0.02,1.062-0.146,1.768-0.382,2.12
		c-5.372-0.549-10.667-0.825-15.88-0.825c-4.588,0-9.568,0.276-14.939,0.825c-0.235-0.354-0.363-1.062-0.382-2.12
		c-0.021-1.058,0.107-1.803,0.382-2.23c3.803-0.273,5.92-0.979,6.353-2.117c0.625-1.569,0.94-5.254,0.94-11.059v-9.293
		c0-11.06-2.626-16.59-7.882-16.59c-2.234,0-4.52,0.786-6.852,2.354c-2.333,1.568-3.5,2.979-3.5,4.232v19.295
		c0,5.805,0.313,9.486,0.942,11.06c0.431,1.098,2.666,1.804,6.705,2.116c0.273,0.433,0.401,1.178,0.382,2.231
		c-0.021,1.062-0.147,1.767-0.382,2.12c-5.373-0.549-10.47-0.825-15.292-0.825c-5.373,0-10.744,0.276-16.116,0.825
		c-0.236-0.354-0.363-1.062-0.382-2.12c-0.021-1.058,0.107-1.803,0.382-2.231c4.625-0.354,7.136-1.061,7.529-2.116
		c0.626-1.569,0.941-5.255,0.941-11.06v-13.527c0-5.096-0.353-8.312-1.059-9.646c-0.393-0.743-1.5-1.323-3.323-1.731
		c-1.823-0.411-3.187-0.618-4.088-0.618c-0.197-0.116-0.294-0.755-0.294-1.91c0-1.156,0.137-1.736,0.412-1.736
		c4.078-0.312,8.264-1.098,12.558-2.352c4.293-1.255,7.754-2.552,10.381-3.884c0.39,0.117,0.823,0.433,1.293,0.938
		c0.47,0.513,0.706,0.862,0.706,1.062c-0.157,0.433-0.412,1.638-0.765,3.619c-0.354,1.979-0.491,3.008-0.412,3.084
		c0,0.396,0.038,0.629,0.118,0.709c0.156,0,0.432-0.196,0.823-0.59c1.844-2.078,4.421-4.068,7.735-5.972
		C196.024,113.18,198.935,112.229,201.444,112.229z"/>
	<path d="M289.729,111.875c4.939,0,9.116,1.695,12.526,5.087c3.413,3.394,5.12,7.695,5.12,12.91v22c0,1.528,0.262,2.715,0.792,3.558
		c0.531,0.842,1.207,1.266,2.031,1.266c0.391,0,0.785-0.062,1.176-0.178c0.391-0.117,0.705-0.216,0.94-0.295
		c0.232-0.154,0.509-0.312,0.82-0.47l0.475-0.235c0.547,0.274,0.818,0.941,0.818,2c0,0.668-0.154,1.254-0.469,1.769
		c-0.824,0.741-1.756,1.521-2.795,2.317c-1.037,0.811-2.479,1.643-4.322,2.502c-1.842,0.863-3.511,1.293-4.999,1.293
		c-1.881,0-3.702-0.604-5.472-1.818c-1.766-1.219-2.919-2.568-3.468-4.062c-0.982,0.862-2.98,2.101-6.003,3.707
		c-3.021,1.605-5.447,2.409-7.293,2.409c-4.313,0-7.959-1.479-10.938-4.44c-2.979-2.959-4.472-6.264-4.472-9.906
		c0-2.197,0.616-4.188,1.852-5.973c1.239-1.781,2.657-2.932,4.269-3.438c1.293-0.437,3.271-1.146,5.938-2.146
		c2.666-0.998,5.615-2.125,8.854-3.385c3.236-1.254,5.559-2.152,6.972-2.701v-2.474v-3.062c0-3.06-0.659-5.779-1.972-8.178
		c-1.313-2.392-2.971-3.584-4.971-3.584c-0.863,0-1.641,0.188-2.322,0.56c-0.688,0.37-1.245,0.819-1.676,1.354
		c-0.436,0.529-0.834,1.285-1.205,2.269c-0.373,0.979-0.668,1.852-0.883,2.615c-0.219,0.767-0.464,1.797-0.736,3.09
		c-0.746,3.451-2.939,5.177-6.586,5.177c-1.648,0-3.08-0.54-4.295-1.619c-1.215-1.077-1.821-2.421-1.821-4.026
		c0-1.296,0.547-2.902,1.646-4.826c1.49-1.489,4.5-3.371,9.028-5.646S285.298,111.875,289.729,111.875z M287.257,157.398
		c1.333,0,2.472-0.307,3.413-0.909c0.939-0.609,1.413-1.13,1.413-1.562v-16.47c-0.235,0.119-1.353,0.63-3.353,1.531
		c-2.002,0.9-3.476,1.646-4.412,2.23c-2.979,1.924-4.396,4.551-4.236,7.885c0.04,2.312,0.804,4.105,2.293,5.383
		C283.868,156.761,285.495,157.398,287.257,157.398z"/>
	<path d="M343.312,128.343v19.293c0,5.804,0.312,9.488,0.938,11.06c0.434,1.1,2.667,1.806,6.706,2.117
		c0.272,0.434,0.402,1.179,0.383,2.232c-0.021,1.061-0.146,1.766-0.383,2.12c-5.371-0.549-10.471-0.825-15.291-0.825
		c-5.375,0-10.746,0.276-16.118,0.825c-0.234-0.354-0.363-1.06-0.381-2.12c-0.021-1.059,0.107-1.803,0.381-2.232
		c4.625-0.354,7.136-1.06,7.53-2.117c0.625-1.567,0.938-5.256,0.938-11.06v-13.526c0-5.098-0.353-8.312-1.058-9.646
		c-0.396-0.744-1.5-1.323-3.324-1.733c-1.821-0.41-3.185-0.619-4.087-0.619c-0.197-0.113-0.295-0.754-0.295-1.907
		c0-1.156,0.139-1.736,0.414-1.736c4.077-0.312,8.264-1.098,12.555-2.353c4.297-1.256,7.756-2.551,10.383-3.883
		c0.393,0.115,0.823,0.433,1.292,0.938c0.475,0.513,0.708,0.862,0.708,1.062c-0.154,0.471-0.37,1.496-0.646,3.086
		c-0.274,1.591-0.451,2.799-0.529,3.617C343.35,122.657,343.312,125.127,343.312,128.343z M328.489,98.23
		c-1.647-1.648-2.476-3.648-2.476-6.002c0-2.354,0.824-4.354,2.476-6c1.646-1.646,3.646-2.47,6.001-2.47
		c2.35,0,4.37,0.824,6.056,2.47c1.688,1.647,2.531,3.647,2.531,6c0,2.353-0.844,4.354-2.531,6.002
		c-1.686,1.646-3.706,2.47-6.056,2.47C332.137,100.7,330.137,99.876,328.489,98.23z"/>
	<path d="M397.895,112.229c2.668,0,4.94,0.383,6.823,1.147c1.882,0.765,3.419,1.842,4.615,3.233
		c1.197,1.393,2.128,3.266,2.796,5.617c0.665,2.354,1.125,4.907,1.382,7.676c0.253,2.766,0.38,6.125,0.38,10.088v7.646
		c0,5.804,0.317,9.488,0.944,11.06c0.389,1.062,2.898,1.768,7.527,2.117c0.271,0.434,0.397,1.179,0.384,2.232
		c-0.021,1.061-0.147,1.766-0.384,2.12c-5.372-0.549-10.746-0.825-16.115-0.825c-4.433,0-9.334,0.276-14.705,0.825
		c-0.235-0.354-0.362-1.06-0.383-2.12c-0.021-1.059,0.104-1.803,0.383-2.232c3.646-0.271,5.684-0.979,6.118-2.117
		c0.624-1.567,0.938-5.256,0.938-11.06v-9.292c0-11.058-2.626-16.588-7.881-16.588c-2.232,0-4.52,0.786-6.852,2.354
		c-2.333,1.567-3.5,2.979-3.5,4.233v19.293c0,5.804,0.312,9.488,0.94,11.06c0.433,1.1,2.664,1.806,6.703,2.117
		c0.273,0.434,0.401,1.179,0.383,2.232c-0.021,1.061-0.146,1.766-0.383,2.12c-5.371-0.549-10.471-0.825-15.292-0.825
		c-5.374,0-10.745,0.276-16.113,0.825c-0.236-0.354-0.363-1.06-0.385-2.12c-0.021-1.059,0.106-1.803,0.385-2.232
		c4.625-0.354,7.137-1.06,7.526-2.117c0.625-1.567,0.938-5.256,0.938-11.06v-13.526c0-5.098-0.354-8.312-1.062-9.646
		c-0.394-0.744-1.5-1.323-3.325-1.733c-1.818-0.41-3.185-0.619-4.086-0.619c-0.192-0.113-0.295-0.754-0.295-1.907
		c0-1.156,0.144-1.736,0.414-1.736c4.076-0.312,8.266-1.098,12.557-2.353c4.297-1.256,7.757-2.551,10.384-3.883
		c0.353,0,0.771,0.254,1.265,0.766c0.49,0.511,0.735,0.923,0.735,1.234c-0.08,0.272-0.22,0.959-0.413,2.06
		c-0.197,1.101-0.373,2.14-0.529,3.116c-0.155,0.979-0.229,1.488-0.229,1.527c0,0.396,0.033,0.627,0.113,0.707
		c0.156,0,0.436-0.197,0.822-0.588c1.845-2.078,4.422-4.068,7.736-5.972S395.385,112.229,397.895,112.229z"/>
	<path d="M449.594,111.992c1.647,0,3.188,0.109,4.617,0.324c1.434,0.213,3.109,0.564,5.03,1.06c1.92,0.489,3.096,0.772,3.523,0.853
		c0.514,2.156,1.053,4.873,1.619,8.146s0.854,5.383,0.854,6.323c0,0.235-0.233,0.433-0.704,0.59
		c-0.474,0.155-0.943,0.231-1.413,0.231c-0.552,0-1.292-0.312-2.236-0.939c-1.762-7.921-5.918-11.88-12.468-11.88
		c-2.002,0-3.616,0.548-4.854,1.647c-1.233,1.094-1.854,2.666-1.854,4.7c0,0.981,0.188,1.896,0.562,2.736
		c0.372,0.841,0.821,1.549,1.354,2.114c0.529,0.566,1.255,1.146,2.175,1.735c0.921,0.589,1.736,1.048,2.441,1.382
		s1.646,0.754,2.824,1.267c1.176,0.511,2.059,0.923,2.646,1.233c3.768,1.883,6.294,3.354,7.588,4.409
		c3.412,2.744,5.117,6.569,5.117,11.472c0,2.822-0.627,5.312-1.881,7.472c-1.257,2.153-2.975,3.854-5.149,5.089
		c-2.176,1.23-4.611,2.157-7.316,2.766c-2.705,0.605-5.649,0.909-8.824,0.909c-1.214,0-2.566-0.104-4.062-0.321
		c-1.486-0.217-2.675-0.42-3.559-0.617c-0.881-0.195-2.086-0.488-3.614-0.881c-1.528-0.396-2.373-0.607-2.526-0.646
		c-0.195-1.178-0.403-3.754-0.619-7.734c-0.215-3.979-0.323-6.498-0.323-7.56c0-0.55,0.589-0.823,1.765-0.823
		c0.476,0,0.979,0.119,1.531,0.354c0.547,0.233,0.901,0.512,1.061,0.82c0.392,2.438,1.05,4.521,1.973,6.271
		c0.918,1.739,2.008,3.058,3.262,3.938c1.256,0.883,2.49,1.521,3.706,1.909c1.216,0.396,2.472,0.591,3.768,0.591
		c1.996,0,3.615-0.63,4.853-1.884c1.236-1.255,1.853-2.745,1.853-4.471c0-1.138-0.226-2.146-0.677-3.028
		c-0.45-0.884-1.138-1.667-2.057-2.353c-0.924-0.688-1.808-1.269-2.649-1.736c-0.841-0.47-1.979-1.039-3.408-1.705
		c-1.435-0.666-2.541-1.215-3.322-1.646c-1.96-1.06-3.6-2.062-4.91-3c-1.312-0.938-2.586-2.051-3.822-3.322
		c-1.236-1.273-2.165-2.705-2.794-4.294c-0.627-1.589-0.942-3.345-0.942-5.265c0-2.783,0.697-5.268,2.091-7.438
		c1.394-2.179,3.193-3.888,5.413-5.117c2.214-1.233,4.548-2.153,6.994-2.765C444.662,112.296,447.124,111.992,449.594,111.992z"/>
</g>
<path d="M235.676,25.406c-0.24,22.53-5.108,54.328,21.844,63.375c6.361,2.135,15.313,1.142,19.067-5.139
	c3.465-5.793,5.218-18.304-1.513-22.686c-5.518-3.593-12.998-0.233-14.969,5.95c-2.943,9.242,3.441,18.478,12.26,21.457
	c25.676,8.667,40.669-14.081,34.852-37.481c-0.875-3.515-6.294-2.025-5.417,1.492c3.714,14.949-1.206,32.181-19.149,32.374
	c-8.303,0.088-21.842-6.914-16.715-17.046c3.217-6.363,7.528-0.065,7.854,4.103c0.258,3.351-0.392,6.895-2.513,9.565
	c-6.762,8.505-21.075-1.552-25.217-7.747c-8.901-13.33-4.927-33.167-4.768-48.216C241.333,21.78,235.714,21.784,235.676,25.406
	L235.676,25.406z"/>
<path d="M237.662,63.375c-8.377-6.831-20.958-4.642-23.015,6.977c-1.702,9.618,7.579,16.289,16.158,16.838
	c10.087,0.65,14.121-8.901,12.163-17.441c-2.216-9.668-15.227-14.165-23.381-8.53c-2.959,2.045-0.154,6.917,2.836,4.851
	c4.79-3.308,12.749-1.318,14.797,4.072c1.925,5.07,0.514,11.035-5.557,11.43c-4.314,0.282-8.729-2.216-10.833-5.921
	c-1.912-3.368-0.289-8.067,2.86-9.981c3.031-1.845,7.503-0.356,10,1.678C236.471,69.617,240.472,65.668,237.662,63.375
	L237.662,63.375z"/>
</svg>
