<?xml version="1.0" encoding="utf-8"?>
<!-- Generator: Adobe Illustrator 15.1.0, SVG Export Plug-In . SVG Version: 6.00 Build 0)  -->
<!DOCTYPE svg PUBLIC "-//W3C//DTD SVG 1.1//EN" "http://www.w3.org/Graphics/SVG/1.1/DTD/svg11.dtd">
<svg version="1.1"
	 id="Calque_1" xmlns:inkscape="http://www.inkscape.org/namespaces/inkscape" xmlns:sodipodi="http://sodipodi.sourceforge.net/DTD/sodipodi-0.dtd" xmlns:svg="http://www.w3.org/2000/svg" xmlns:rdf="http://www.w3.org/1999/02/22-rdf-syntax-ns#" xmlns:cc="http://creativecommons.org/ns#" xmlns:dc="http://purl.org/dc/elements/1.1/"
	 xmlns="http://www.w3.org/2000/svg" xmlns:xlink="http://www.w3.org/1999/xlink" x="0px" y="0px" width="1200px" height="1200px"
	 viewBox="0 0 1200 1200" enable-background="new 0 0 1200 1200" xml:space="preserve">
<g transform="translate(0,-952.36218)">
	<path fill="#235B6A" d="M231.606,1281.966c-15.07,0-27.289,14.938-27.289,33.363s12.218,33.364,27.289,33.364h736.789
		c15.07,0,27.289-14.938,27.289-33.364s-12.219-33.363-27.289-33.363H231.606L231.606,1281.966z M231.606,1518.288
		c-15.07,0-27.289,14.938-27.289,33.365c0,18.425,12.218,33.363,27.289,33.363h736.789c15.07,0,27.289-14.938,27.289-33.363
		c0-18.428-12.219-33.365-27.289-33.365H231.606L231.606,1518.288z M231.606,1756.031c-15.07,0-27.289,14.936-27.289,33.363
		c0,18.426,12.218,33.364,27.289,33.364h736.789c15.07,0,27.289-14.938,27.289-33.364c0-18.429-12.219-33.363-27.289-33.363H231.606
		L231.606,1756.031z"/>
</g>
</svg>
