<?xml version="1.0" encoding="utf-8"?>
<!-- Generator: Adobe Illustrator 15.1.0, SVG Export Plug-In . SVG Version: 6.00 Build 0)  -->
<!DOCTYPE svg PUBLIC "-//W3C//DTD SVG 1.1//EN" "http://www.w3.org/Graphics/SVG/1.1/DTD/svg11.dtd">
<svg version="1.1"
	 id="Calque_1" xmlns:inkscape="http://www.inkscape.org/namespaces/inkscape" xmlns:rdf="http://www.w3.org/1999/02/22-rdf-syntax-ns#" xmlns:sodipodi="http://sodipodi.sourceforge.net/DTD/sodipodi-0.dtd" xmlns:svg="http://www.w3.org/2000/svg" xmlns:cc="http://creativecommons.org/ns#" xmlns:dc="http://purl.org/dc/elements/1.1/"
	 xmlns="http://www.w3.org/2000/svg" xmlns:xlink="http://www.w3.org/1999/xlink" x="0px" y="0px" width="800px" height="600px"
	 viewBox="0 0 800 600" enable-background="new 0 0 800 600" xml:space="preserve">
<g transform="translate(0,-952.36218)">
	<path fill="#FFFFFF" d="M528.977,1063.386c-7.498-7.498-19.652-7.498-27.15,0L400,1165.209l-101.824-101.823
		c-7.498-7.498-19.654-7.498-27.153,0c-7.498,7.499-7.498,19.655,0,27.153l101.823,101.823l-101.823,101.822
		c-7.498,7.498-7.499,19.652,0,27.15c7.498,7.499,19.655,7.498,27.153,0L400,1219.515l101.823,101.823
		c7.498,7.499,19.651,7.499,27.15,0c7.498-7.498,7.498-19.652,0-27.15l-101.821-101.822l101.821-101.824
		C536.475,1083.04,536.475,1070.884,528.977,1063.386L528.977,1063.386z"/>
</g>
</svg>
