<?xml version="1.0" encoding="utf-8"?>
<!-- Generator: Adobe Illustrator 15.1.0, SVG Export Plug-In . SVG Version: 6.00 Build 0)  -->
<!DOCTYPE svg PUBLIC "-//W3C//DTD SVG 1.1//EN" "http://www.w3.org/Graphics/SVG/1.1/DTD/svg11.dtd">
<svg version="1.1" id="Calque_1" xmlns="http://www.w3.org/2000/svg" xmlns:xlink="http://www.w3.org/1999/xlink" x="0px" y="0px"
	 width="1353px" height="1280px" viewBox="0 0 1353 1280" enable-background="new 0 0 1353 1280" xml:space="preserve">
<path d="M480.176,987.62c2.884-65.604,2.651-131.282,4.667-196.907c0.993-32.329,3.875-64.641,3.949-96.979
	c0.071-31.687-2.072-63.315-3.175-94.969c-1.98-56.943,0.411-116.823,24.518-168.646c18.993-40.832,49.281-73.749,86.574-97.562
	c19.145-12.225,39.896-22.144,61.099-29.673c21.438-7.613,44.151-13.467,66.773-16.079c27.213-3.142,55.891-3.951,82.979,0.419
	c28.117,4.535,55.312,14.221,80.75,26.881c21.944,10.92,42.62,24.911,62.738,38.859c18.336,12.712,35.754,27.152,49.142,45.146
	c16.324,21.943,26.193,47.833,33.554,73.973c8.008,28.448,12.248,58.032,13.321,87.547c0.587,16.113-0.352,32.199-0.643,48.312
	c-0.298,16.47-0.299,32.94-0.183,49.414c0.229,32.856,1.027,65.713,1.321,98.568c0.536,60.111-3.351,119.98-4.894,180.04
	c-0.466,18.077-0.817,36.162-0.828,54.246c-0.009,15.458,20.836,5.729,20.843-5.588c0.028-53.152,3.179-106.138,5.012-159.229
	c2.271-65.763-0.812-131.555-0.681-197.324c0.065-32.241,2.166-64.399-0.347-96.6c-2.321-29.748-8.164-59.145-17.564-87.465
	c-8.595-25.879-19.871-49.678-37.293-70.791c-14.562-17.649-32.923-31.564-51.808-44.255
	c-21.143-14.208-42.554-28.124-65.562-39.145c-26.172-12.535-53.953-21.049-82.659-25.242c-27.104-3.958-55.627-2.94-82.776,0.333
	c-23.551,2.839-46.94,8.638-69.314,16.48c-45.248,15.861-86.688,40.917-120.146,75.404c-35.03,36.11-57.306,82.161-67.533,131.151
	c-12.979,62.166-6.052,125.573-4.372,188.434c0.862,32.285-1.47,64.286-2.804,96.516c-1.351,32.604-1.914,65.23-2.442,97.854
	c-0.662,40.83-1.27,81.665-3.062,122.465c-0.248,5.643,3.781,9.481,9.479,7.954C474.495,999.639,479.911,993.641,480.176,987.62
	L480.176,987.62z"/>
<path d="M659.02,487.738c-1.919-62.699,2.947-125.314,3-188c0.011-9.275-12.5-3.437-12.506,3.353c-0.053,62.686-4.919,125.302-3,188
	C646.798,500.358,659.229,494.539,659.02,487.738L659.02,487.738z"/>
<g>
	<g>
		<path d="M653.056,494.635c2.188,0,4.214-4.438,1.423-4.438C652.291,490.193,650.265,494.635,653.056,494.635L653.056,494.635z"/>
	</g>
</g>
<g>
	<g>
		<path d="M652.056,495.635c2.188,0,4.214-4.438,1.423-4.438C651.291,491.193,649.265,495.635,652.056,495.635L652.056,495.635z"/>
	</g>
</g>
<path d="M650.634,496.078c37.477-1.844,75.008-1.146,112.496-0.188c37.498,0.958,75.009,0.207,112.504,1.188
	c6.57,0.172,12.67-13.108,4.269-13.328c-37.495-0.979-75.006-0.22-112.503-1.188c-37.487-0.97-75.023-1.656-112.497,0.188
	c-3.726,0.183-6.936,3.184-8.039,6.65C645.96,492.223,646.954,496.259,650.634,496.078L650.634,496.078z"/>
<path d="M884.02,485.738c0.021-59.68,1.853-119.338,3-179c0.182-9.271-12.375-3.423-12.506,3.353c-1.147,59.662-2.979,119.323-3,179
	C871.511,498.365,884.017,492.527,884.02,485.738L884.02,485.738z"/>
<path d="M871.579,997.562c62.7-11.979,126.538,13.431,189-1c2.188-0.509,3.385-4.993,0.377-4.302
	c-62.384,14.411-126.281-10.979-189,1C869.735,993.688,868.542,998.143,871.579,997.562L871.579,997.562z"/>
<path d="M467.798,993.409c-0.003,0.011-0.007,0.021-0.01,0.03c-0.229,0.676-0.163,1.403,0.36,1.92
	c1.344,1.312,5.875,0.721,7.504,0.771c5.954,0.188,11.913,0.245,17.867,0.312c13.636,0.144,27.271,0.179,40.901,0.189
	c17.104,0.021,34.194,0.457,51.296,0.483c21.257,0.031,43.35-0.357,63.856-6.554c2.13-0.645,3.312-5.188,0.378-4.301
	c-20.207,6.104-41.872,6.396-62.812,6.408c-16.863,0.012-33.729-0.469-50.595-0.481c-12.85-0.013-25.697-0.053-38.546-0.163
	c-6.06-0.057-12.118-0.122-18.177-0.267c-2.03-0.047-4.062-0.104-6.092-0.198c-0.653-0.026-1.309-0.066-1.957-0.116
	c-0.741-0.061-0.807-0.297-0.414,0.086c0.121,0.64,0.238,1.277,0.359,1.92c0.003-0.013,0.007-0.021,0.013-0.03
	C472.775,990.306,468.566,991.109,467.798,993.409L467.798,993.409z"/>
<path d="M659.248,600.737c-0.316-18.97,0.005-37.938,0.128-56.901c0.124-19.202,1.467-38.528-0.417-57.68
	c-0.362-3.688-4.68-3.896-7.231-2.56c-3.291,1.729-5.521,5.346-5.15,9.071c1.775,18.086,0.396,36.38,0.298,54.52
	c-0.106,18.969-0.445,37.934-0.13,56.898C646.896,613.363,659.361,607.535,659.248,600.737L659.248,600.737z"/>
<path d="M651.959,984.156c-1.336-10.479-0.421-20.974,0.354-31.456c0.847-11.383,0.818-22.79,1.228-34.192
	c0.839-23.579,2.592-47.118,2.765-70.719c0.353-47.595-3.533-95.044,0.102-142.602c0.703-9.221-11.993-3.354-12.506,3.354
	c-3.634,47.543,0.121,95.013-0.101,142.601c-0.108,23.6-1.881,47.146-2.766,70.722c-0.43,11.4-0.399,22.807-1.227,34.188
	c-0.835,11.55-1.706,23.081-0.232,34.619c0.467,3.653,4.604,3.938,7.229,2.559C650.023,991.538,652.431,987.852,651.959,984.156
	L651.959,984.156z"/>
<path d="M880.852,608.737c1.524-40.986,3.145-81.979,3.168-123c0.009-9.275-12.5-3.438-12.506,3.353
	c-0.023,41.021-1.644,82.014-3.168,123C868.002,621.352,880.6,615.495,880.852,608.737L880.852,608.737z"/>
<path d="M879.02,989.737c0.976-103.227-2.953-206.455-0.068-309.667c0.26-9.271-12.315-3.414-12.506,3.354
	c-2.887,103.211,1.044,206.443,0.068,309.667C866.427,1002.364,878.954,996.521,879.02,989.737L879.02,989.737z"/>
<path d="M209.579,1000.562c42.19-7.021,85.276-2.141,127.725-0.975c43.946,1.207,87.818-2.896,131.753-2.956
	c2.188-0.003,4.213-4.444,1.422-4.439c-43.938,0.061-87.8,4.058-131.753,2.956c-42.867-1.074-86.159-5.977-128.77,1.112
	C207.721,996.636,206.529,1001.071,209.579,1000.562L209.579,1000.562z"/>
<path d="M1055.056,995.721c28.418,0.054,56.839,2.237,85,5.987c2.177,0.289,4.229-4.069,1.423-4.443
	c-28.16-3.749-56.582-5.938-85-5.983C1054.291,991.273,1052.264,995.716,1055.056,995.721L1055.056,995.721z"/>
<path d="M1067.245,825.23c9.271-2.92,20.082,0.575,29.479,1.401c13.889,1.224,28.067,1.305,42,1.333
	c2.188,0.004,4.214-4.438,1.423-4.439c-14.013-0.029-28.008-0.667-42-1.333c-10.018-0.479-20.604-4.385-30.521-1.265
	C1065.507,821.598,1064.322,826.15,1067.245,825.23L1067.245,825.23z"/>
<path d="M1058.723,749.303c26.422-2.182,52.907,1.91,79.333,2c2.188,0.008,4.216-4.434,1.423-4.439
	c-26.427-0.092-52.909-4.185-79.334-2C1057.988,745.037,1055.988,749.528,1058.723,749.303L1058.723,749.303z"/>
<path d="M1056.579,672.562c12.546-4.058,26.562-0.924,39.385-0.016c14.199,1.006,28.534,0.751,42.76,0.752
	c2.188,0,4.214-4.439,1.423-4.439c-14.725,0-29.523,0.186-44.223-0.854c-12.796-0.906-26.437-3.791-38.968,0.26
	C1054.849,668.945,1053.666,673.505,1056.579,672.562L1056.579,672.562z"/>
<g>
	<g>
		<path d="M1063.393,588.634c2.188,0,4.213-4.438,1.422-4.438C1062.628,584.192,1060.602,588.634,1063.393,588.634L1063.393,588.634
			z"/>
	</g>
</g>
<path d="M1062.911,588.559c13.582,3.451,27.778,4.997,41.729,5.909c12.562,0.821,28.061,2.114,39.811-3.45
	c2.218-1.05,2.271-5.276-0.692-3.875c-10.974,5.195-25.979,3.592-37.69,2.886c-13.63-0.821-27.514-2.395-40.77-5.761
	C1063.124,583.715,1060.493,587.945,1062.911,588.559L1062.911,588.559z"/>
<g>
	<g>
		<path d="M1052.061,514.634c2.188,0,4.215-4.438,1.424-4.438C1051.295,510.192,1049.27,514.634,1052.061,514.634L1052.061,514.634z
			"/>
	</g>
</g>
<path d="M1052.061,514.634c28.931-3.184,58.618,6.396,87.188-0.737c2.177-0.543,3.368-5.047,0.377-4.3
	c-28.159,7.03-57.604-2.547-86.146,0.599C1051.342,510.427,1049.354,514.933,1052.061,514.634L1052.061,514.634z"/>
<g>
	<g>
		<path d="M1034.061,447.301c2.188,0,4.215-4.438,1.424-4.438C1033.295,442.859,1031.27,447.301,1034.061,447.301L1034.061,447.301z
			"/>
	</g>
</g>
<path d="M1035.117,447.018c31.764-17.794,69.562-11.146,104.272-11.05c2.188,0.006,4.218-4.435,1.424-4.438
	c-35.561-0.104-73.857-6.608-106.393,11.614C1032.314,444.324,1032.255,448.622,1035.117,447.018L1035.117,447.018z"/>
<path d="M993.915,380.562c9.575-3.06,17.154-10.174,25.01-16.144c2.562-1.947,5.279-3.698,7.945-5.498
	c1.716-1.158,5.049-3.815,6.264-4.196c-0.51-0.909-1.021-1.817-1.53-2.726c0.776-0.853,0.88-1.024,0.305-0.513
	c-2.123,1.746-0.818,5.285,1.729,3.188c0.546-0.448,1.051-0.9,1.406-1.523c0.695-1.214,0.264-3.288-1.531-2.725
	c-4.291,1.345-8.538,5.421-12.229,7.919c-8.814,5.958-16.652,14.617-26.985,17.919C992.182,376.938,990.998,381.495,993.915,380.562
	L993.915,380.562z"/>
<path d="M1029.783,357.018c7.102-3.49,15.68-3.192,23.387-2.841c8.248,0.375,16.444,1.54,24.637,2.522
	c21.143,2.536,42.396,1.135,63.587,2.602c2.189,0.152,4.231-4.248,1.423-4.442c-21.607-1.497-43.244-0.163-64.807-2.749
	c-15.29-1.834-34.396-6.104-48.919,1.032C1026.895,354.221,1026.837,358.466,1029.783,357.018L1029.783,357.018z"/>
<path d="M939.521,328.522c-0.096-3.805,4.937-7.75,7.382-10.201c3.235-3.245,6.663-6.25,9.401-9.945
	c7.401-9.98,13.916-23.362,24.812-30.024c2.041-1.249,2.102-5.584-0.692-3.876c-12.215,7.471-19.358,21.624-27.66,32.813
	c-3.129,4.219-7.47,7.598-11.089,11.39c-2.688,2.818-6.425,6.756-6.318,10.96C935.428,332.729,939.576,330.789,939.521,328.522
	L939.521,328.522z"/>
<path d="M979.248,277.23c4.361-1.531,9.329-0.719,13.854-0.504c6.104,0.291,12.333-0.377,18.438-0.598
	c14.004-0.507,28.002-0.792,42.016-0.833c26.229-0.076,52.812-1.217,78.688,3.932c2.188,0.436,4.796-3.812,2.388-4.292
	c-26.207-5.214-53.081-4.201-79.651-4.083c-14.015,0.063-28.011,0.336-42.017,0.833c-6.123,0.217-12.312,0.791-18.438,0.598
	c-4.936-0.156-10.135-1.026-14.899,0.648C977.549,273.66,976.37,278.24,979.248,277.23L979.248,277.23z"/>
<g>
	<g>
		<path d="M868.059,296.635c2.188,0,4.216-4.442,1.425-4.442C867.294,292.193,865.268,296.635,868.059,296.635L868.059,296.635z"/>
	</g>
</g>
<path d="M870.738,294.419c3.248-11.632,8.896-23.513,16.036-33.271c1.805-2.467-0.843-4.767-2.685-2.25
	c-7.646,10.453-13.808,23.029-17.292,35.511C865.918,297.57,870.079,296.779,870.738,294.419L870.738,294.419z"/>
<path d="M803.521,277.855c0.191-1.806,2.062-5.524,2.967-7.758c1.234-3.059,2.701-6.132,3.582-9.32
	c0.873-3.163-3.285-2.373-3.938-0.01c-0.88,3.188-2.344,6.262-3.582,9.321c-1.119,2.765-2.874,5.873-3.197,8.884
	C799.024,282.028,803.282,280.071,803.521,277.855L803.521,277.855z"/>
<g>
	<g>
		<path d="M726.059,281.969c2.188,0,4.216-4.442,1.425-4.442C725.294,277.526,723.268,281.969,726.059,281.969L726.059,281.969z"/>
	</g>
</g>
<path d="M728.676,278.2c-2.396-6.153-4.646-12.759-5.845-19.263c-0.508-2.749-4.525,0.02-4.13,2.172
	c1.258,6.821,3.646,13.73,6.161,20.187C725.755,283.583,729.486,280.281,728.676,278.2L728.676,278.2z"/>
<path d="M640.038,261.858c3.132,13.917,9.119,27.158,13.663,40.642c0.904,2.681,4.828-0.096,4.13-2.172
	c-4.545-13.486-10.532-26.726-13.663-40.642C643.551,256.945,639.558,259.719,640.038,261.858L640.038,261.858z"/>
<path d="M211.577,284.56c26.494,4.437,53.446,2.137,80.052,0.047c28.79-2.262,57.574-2.788,86.443-2.738
	c57.113,0.098,114.209-1.209,171.318-1.233c2.188-0.001,4.215-4.444,1.424-4.442c-56.457,0.023-112.896,1.387-169.356,1.237
	c-28.303-0.075-56.574,0.269-84.804,2.452c-27.419,2.121-55.366,4.962-82.69,0.386C211.768,279.9,209.181,284.158,211.577,284.56
	L211.577,284.56z"/>
<path d="M546.726,281.968c3.669,0.214,7.001,4.801,9.078,7.365c3.716,4.587,6.891,9.627,9.998,14.634
	c5.467,8.796,10.078,18.429,16.396,26.66c1.569,2.047,5.151-1.347,3.812-3.096c-7.024-9.155-12.109-19.919-18.272-29.658
	c-3.114-4.921-6.411-9.748-10.224-14.161c-2.384-2.762-5.494-5.961-9.363-6.187C545.957,277.398,543.917,281.805,546.726,281.968
	L546.726,281.968z"/>
<path d="M210.911,361.226c19.07,6.958,41.094,3.181,60.629,0.497c25.161-3.457,50.367-5.328,75.744-6.394
	c28.176-1.184,56.381-1.36,84.576-1.36c12.859,0,25.818,0.462,38.671-0.136c4.938-0.23,9.867-0.625,14.812-0.725
	c4.191-0.085,9.405-0.311,13.151,1.888c2.055,1.205,5.174-2.681,3.216-3.83c-6.628-3.888-15.927-2.574-23.229-2.156
	c-11.896,0.681-23.787,0.517-35.7,0.517c-28.736,0-57.475,0.068-86.195,1.059c-25.781,0.89-51.651,2.252-77.217,5.799
	c-21.08,2.924-45.417,8.087-66.072,0.551C211.192,356.166,208.517,360.352,210.911,361.226L210.911,361.226z"/>
<path d="M502.495,355.662c9.188,8.038,18.98,17.524,30.414,22.23c2.062,0.85,4.758-3.315,2.388-4.291
	c-11.09-4.566-20.666-13.966-29.586-21.77C503.94,350.284,500.717,354.105,502.495,355.662L502.495,355.662z"/>
<path d="M212.726,437.301c41.966,0.017,83.926,0.82,125.889,1.214c21.053,0.197,42.104,0.271,63.16,0.099
	c10.56-0.088,21.113-0.257,31.672-0.495c9.501-0.216,19.079,0.16,28.47-1.556c2.226-0.403,3.418-4.854,0.377-4.3
	c-9.021,1.646-18.294,1.192-27.425,1.409c-10.556,0.25-21.112,0.399-31.672,0.495c-21.056,0.191-42.106,0.095-63.16-0.095
	c-41.963-0.38-83.922-1.201-125.889-1.214C211.961,432.858,209.935,437.301,212.726,437.301L212.726,437.301z"/>
<path d="M462.726,437.968c9.436-0.441,18.697,6.664,27.521,9.257c2.152,0.637,4.803-3.58,2.388-4.291
	c-9.208-2.708-18.598-9.875-28.479-9.405C461.975,433.628,459.962,438.099,462.726,437.968L462.726,437.968z"/>
<path d="M217.117,515.02c6.911-3.125,14.91-3.003,22.333-2.646c8.475,0.408,16.902,1.718,25.284,2.967
	c19.805,2.953,39.374,3.128,59.389,2.781c23.626-0.41,47.23-1.577,70.857-2.008c23.903-0.438,47.837-0.146,71.743-0.146
	c2.188,0,4.216-4.438,1.425-4.438c-23.911,0-47.841-0.249-71.746,0.145c-24.938,0.411-49.854,1.688-74.793,2.072
	c-11.481,0.179-23.001,0.241-34.479-0.262c-7.958-0.352-15.887-1.83-23.752-2.996c-14.845-2.2-32.685-5.792-46.957,0.653
	C214.182,512.156,214.128,516.369,217.117,515.02L217.117,515.02z"/>
<path d="M215.393,593.302c83.775-0.688,167.554-1.328,251.333-1.333c2.188,0,4.216-4.439,1.425-4.438
	c-83.779,0.005-167.56,0.641-251.333,1.333C214.629,588.878,212.605,593.325,215.393,593.302L215.393,593.302z"/>
<g>
	<g>
		<path d="M216.727,671.303c2.187,0,4.213-4.439,1.422-4.439C215.961,666.859,213.935,671.303,216.727,671.303L216.727,671.303z"/>
	</g>
</g>
<path d="M216.727,671.303c42.696,2.352,85.462,1.043,128.194,1.698c20.479,0.313,40.938,1.332,61.417,1.703
	c10.247,0.186,20.622,0.468,30.845-0.339c10.771-0.854,21.366-2.848,32.211-2.396c2.19,0.092,4.229-4.327,1.425-4.439
	c-10.186-0.422-20.22,1.19-30.314,2.222c-10.194,1.038-20.589,0.684-30.82,0.544c-21.117-0.289-42.219-1.379-63.337-1.734
	c-42.734-0.719-85.494,0.65-128.194-1.694C215.958,666.739,213.918,671.148,216.727,671.303L216.727,671.303z"/>
<path d="M215.915,747.23c19.933-3.031,40.216-0.485,60.239,0.012c20.692,0.514,41.25,1.252,61.905,2.727
	c41.821,2.985,84.107,1.334,126,1.334c2.188,0,4.216-4.439,1.425-4.439c-42.532,0-85.408,1.562-127.867-1.471
	c-20.62-1.472-41.148-2.125-61.805-2.637c-19.854-0.493-39.749-2.83-59.518,0.176C214.051,743.271,212.859,747.695,215.915,747.23
	L215.915,747.23z"/>
<path d="M215.393,822.636c41.243,0.007,82.484,0.453,123.727,0.615c19.961,0.078,39.912,0.175,59.872,0.487
	c20.598,0.319,41.219,0.299,61.731-1.771c-0.448-0.379-0.899-0.757-1.354-1.136c0.021,0.098,0.042,0.194,0.062,0.292
	c0.929-1.104,1.854-2.205,2.775-3.308c-1.188,0.088-2.024,0.19-3.12,0.655c-2.271,0.967-2.32,5.154,0.692,3.875
	c0.334-0.043,0.669-0.069,1.005-0.092c1.485-0.105,3.117-1.715,2.772-3.307c-0.021-0.101-0.042-0.194-0.062-0.292
	c-0.135-0.621-0.656-1.206-1.354-1.138c-19.881,2.007-39.852,2.073-59.812,1.8c-20.604-0.285-41.191-0.439-61.793-0.52
	c-41.243-0.147-82.484-0.604-123.727-0.614C214.627,818.192,212.601,822.635,215.393,822.636L215.393,822.636z"/>
<path d="M212.451,994.428c-0.016-125.166-3.07-250.311-2.998-375.476c0.032-55.845,2.738-111.665,1.636-167.518
	c-1.095-55.53-6.168-111.042-0.138-166.475c0.333-3.055-3.927-1.098-4.168,1.117c-7.1,65.263,0.412,130.975,0.419,196.388
	c0.004,33.243-0.979,66.479-1.542,99.711c-0.542,32.017-0.387,64.031-0.193,96.046c0.64,105.775,2.802,211.54,2.816,317.319
	C208.283,998.637,212.451,996.69,212.451,994.428L212.451,994.428z"/>
<path d="M1142.851,998.928c4.283-59.466,2.423-119.274,2.648-178.855c0.24-63.43-2.786-126.827-1.791-190.254
	c0.819-52.238,0.729-104.473,0.302-156.717c-0.513-62.07-0.675-124.332-4.138-186.328c-0.392-6.98-0.801-13.983-1.663-20.924
	c-0.248-1.996-0.314-7.794-3.179-8.048c-2.188-0.194-4.231,4.193-1.422,4.442c-0.863-0.077-0.882-0.731-0.516,0.241
	c-0.062-0.16,0.351,1.447,0.448,1.978c0.493,2.602,0.753,5.252,1.008,7.886c0.892,9.158,1.323,18.364,1.743,27.553
	c1.354,29.537,1.938,59.113,2.463,88.674c1.161,65.272,1.671,130.578,1.404,195.86c-0.11,27.325-0.915,54.643-0.812,81.969
	c0.113,31.506,0.924,63.006,1.468,94.506c0.557,32.272,0.375,64.522,0.271,96.805c-0.148,47.503,1.012,94.91-2.404,142.33
	C1138.461,1003.12,1142.689,1001.165,1142.851,998.928L1142.851,998.928z"/>
<path d="M205.183,267.973c-1.11,5.761,1.351,11.691,1,17.5c-0.186,3.08,4.033,1.125,4.168-1.117c0.35-5.793-2.097-11.804-1-17.5
	C209.925,263.876,205.596,265.828,205.183,267.973L205.183,267.973z"/>
<path d="M207.207,267.147c1.392-1.606,5.583-1.739,7.49-1.982c4.518-0.576,9.099-0.703,13.646-0.814
	c8.961-0.219,17.929,0.045,26.889-0.221c29.673-0.883,59.311-2.76,89.013-3.229c65.99-1.042,132.06-0.156,198.058-0.156
	c131.935,0,263.842-2.021,395.771-2.779c33.592-0.193,67.188-0.442,100.779-0.038c31.465,0.378,62.916,1.267,94.384,1.281
	c2.188,0.001,4.214-4.441,1.422-4.442c-29.683-0.014-59.354-0.782-89.026-1.21c-32.104-0.464-64.215-0.246-96.315-0.086
	c-65.74,0.328-131.479,1.093-197.216,1.741c-132.159,1.303-264.318,0.18-396.479,1.131c-33.314,0.24-66.534,2.38-99.811,3.37
	c-10.182,0.303-20.372-0.054-30.555,0.337c-6.056,0.232-16.291-0.269-20.728,4.849C202.495,267.241,205.185,269.479,207.207,267.147
	L207.207,267.147z"/>
<path d="M476.851,989.855c0.188-2.519,4.903-5.854,6.59-7.371c4.751-4.283,9.854-8.188,14.984-11.995
	c9.384-6.97,19.183-14.193,29.731-19.317c5.648-2.745,12.854-3.346,18.999-4.021c9.122-1.011,18.338-1.148,27.506-1.117
	c17.477,0.058,34.921,1.397,52.395,1.442c2.188,0.008,4.214-4.438,1.423-4.44c-18.979-0.048-37.922-1.522-56.903-1.443
	c-9.168,0.038-18.396,0.39-27.482,1.664c-6.185,0.869-12.524,1.901-18.124,4.796c-11.583,5.99-22.404,14.016-32.761,21.873
	c-5.005,3.799-9.94,7.746-14.447,12.131c-2.354,2.292-5.812,5.388-6.073,8.92C472.456,994.047,476.688,992.092,476.851,989.855
	L476.851,989.855z"/>
<path d="M659.579,949.562c9.363-3.188,19.755-1.978,29.478-1.931c2.188,0.011,4.218-4.43,1.422-4.439
	c-10.078-0.051-20.804-1.237-30.521,2.068C657.867,945.977,656.688,950.548,659.579,949.562L659.579,949.562z"/>
<path d="M689.579,947.562c9.991-2.278,20.603-2.152,30.794-2.188c13.331-0.045,26.663,0.456,39.986,0.881
	c10.859,0.346,21.771,0.84,32.632,0.279c19.355-0.998,38.665-2.838,58.062-2.899c2.188-0.007,4.212-4.452,1.422-4.439
	c-19.395,0.062-38.712,1.847-58.062,2.896c-10.857,0.594-21.774,0.063-32.633-0.276c-13.325-0.425-26.652-0.893-39.986-0.884
	c-10.544,0.011-21.503-0.022-31.839,2.332C687.761,943.765,686.568,948.25,689.579,947.562L689.579,947.562z"/>
<path d="M887.579,945.562c15.791-4.149,32.341-4.324,48.567-4.232c15.075,0.086,30.867-0.874,45.671,2.403
	c26.842,5.939,45.061,27.429,61.043,48.229c1.57,2.047,5.152-1.349,3.812-3.096c-16.572-21.564-34.916-42.817-62.469-49.424
	c-15.037-3.605-31.288-2.434-46.637-2.559c-16.562-0.135-33.501,0.146-49.612,4.377C885.79,941.834,884.6,946.347,887.579,945.562
	L887.579,945.562z"/>
<path d="M212.955,997.265c-10.735,2.116-25.278,10.149-27.565,21.694c-1.206,6.084-0.078,12.839,0.636,18.912
	c0.654,5.561,2.77,13.095,0.772,18.538c-1.129,3.078,3.108,2.271,3.938,0.01c1.413-3.851,0.782-8.354,0.396-12.332
	c-0.589-6.081-1.542-12.114-1.901-18.218c-0.4-6.807,0.537-11.404,6.007-15.838c4.826-3.911,11.212-7.263,17.34-8.472
	C214.794,1001.127,215.988,996.667,212.955,997.265L212.955,997.265z"/>
<path d="M187.579,1060.562c9.568-3.567,20.907-2.56,30.899-1.994c11.184,0.629,22.319,1.906,33.5,2.581
	c31.774,1.909,64.078,0.967,95.88,0.046c32.575-0.943,65.104-3.185,97.698-3.628c32.078-0.439,64.207,0.938,96.289,1.165
	c56.735,0.396,113.475-0.095,170.208-0.101c2.188-0.001,4.214-4.439,1.423-4.439c-63.82,0.007-127.646,0.602-191.468-0.095
	c-32.178-0.352-64.312-1.506-96.489-0.473c-32.551,1.044-65.058,3.252-97.631,3.541c-27.973,0.249-56.036,0.992-83.955-1.12
	c-9.88-0.748-19.727-1.801-29.632-2.19c-8.602-0.343-18.147-0.649-26.348,2.405C185.904,1057.029,184.731,1061.625,187.579,1060.562
	L187.579,1060.562z"/>
<path d="M712.056,1058.636c31.25-0.012,62.498-0.524,93.749-0.43c32.004,0.101,63.869,0.694,95.868-0.543
	c32.536-1.257,64.986-2.497,97.553-1.585c32.212,0.902,64.343,1.558,96.568,1.558c16.468,0,32.938-0.087,49.402-0.092
	c2.188-0.001,4.213-4.444,1.422-4.442c-22.844,0.01-45.688,0.095-68.53,0.095c-32.296,0-64.521-1.575-96.807-1.957
	c-32.562-0.39-65.086,1.687-97.621,2.661c-31.766,0.951-63.533-0.229-95.307-0.135c-24.959,0.073-49.918,0.418-74.88,0.428
	C711.291,1054.193,709.265,1058.637,712.056,1058.636L712.056,1058.636z"/>
<path d="M1143.255,1019.375c1.079,12.15,1.812,24.479,0.428,36.633c-0.348,3.053,3.916,1.096,4.168-1.115
	c1.427-12.488,0.645-25.2-0.467-37.688C1147.142,1014.473,1143.062,1017.222,1143.255,1019.375L1143.255,1019.375z"/>
<path d="M1138.86,1002.962c2.515,5.224,3.31,10.872,4.842,16.413c0.754,2.721,4.715-0.057,4.13-2.172
	c-1.622-5.86-2.5-11.812-5.158-17.337C1141.585,997.604,1137.888,1000.94,1138.86,1002.962L1138.86,1002.962z"/>
<g>
	<g>
		<path d="M185.056,1021.636c2.187,0,4.213-4.439,1.422-4.439C184.291,1017.192,182.265,1021.636,185.056,1021.636L185.056,1021.636
			z"/>
	</g>
</g>
<path d="M188.056,1018.636c32.306,2.082,64.678,0.751,96.998-0.231c32.621-0.995,65.147-0.609,97.764,0.328
	c33.042,0.947,65.968,0.75,99.014,0.625c32.599-0.125,65.19,1.023,97.789,0.324c38.854-0.834,77.589,0.953,116.436,0.954
	c2.188,0,4.213-4.439,1.422-4.439c-31.774,0-63.493-1.746-95.268-1.211c-32.438,0.546-64.837,0.317-97.276,0.012
	c-33.003-0.314-65.971,0.688-98.975-0.111c-32.659-0.794-65.294-2.1-97.969-1.479c-39.499,0.746-79.026,3.337-118.512,0.792
	C187.288,1014.052,185.246,1018.454,188.056,1018.636L188.056,1018.636z"/>
<path d="M696.056,1020.636c32.226,1.421,64.627,0.818,96.869,0.72c40.927-0.128,81.829-1.355,122.756-1.595
	c69.739-0.397,139.528-0.465,209.268,0.335c4.438,0.055,8.874,0.109,13.312,0.223c1.354,0.029,2.704,0.069,4.058,0.138
	c1.614,0.078,1.215,0.507,0.55-0.49c1.427,2.14,5.048-1.242,3.812-3.096c-0.892-1.338-4.053-0.908-5.397-0.95
	c-4.497-0.141-8.997-0.188-13.496-0.246c-15.002-0.188-30.006-0.251-45.01-0.312c-30.435-0.125-60.864-0.159-91.298-0.165
	c-84.298-0.021-168.561,2.161-252.854,1.645c-13.705-0.084-27.443-0.041-41.141-0.646
	C695.288,1016.096,693.249,1020.512,696.056,1020.636L696.056,1020.636z"/>
<path d="M561.766,702.09c-11.304-5.99-13.981-21.89-14.225-33.396c-0.262-12.485,1.982-27.104,11.385-36.162
	c7.269-7.001,15.441-3.417,19.531,4.825c1.488,3,2.428,6.931,1.602,10.241c-0.698,2.812-3.354,3.358-7.298,3.081
	c0.916,1.108,1.831,2.221,2.746,3.325c0.498-8.999,9.354-11.688,17.174-11.678c9.689,0.016,19.326,4.954,23.41,13.966
	c5.961,13.153-2.996,27.284-14.876,32.722c-7.239,3.314-15.895,4.72-23.618,2.609c-3.164-0.862-6.571-2.473-8.538-5.2
	c-2.553-3.545,2.065-6.167,4.685-7.773c2.008-1.236,3.887-3.515,3.436-6.049c-0.403-2.288-3.025-2.811-4.818-1.703
	c-7.248,4.463-16.894,13.426-10.373,22.477c5.832,8.102,18.158,8.969,27.079,7.487c21.187-3.521,37.856-19.434,36.849-41.785
	c-1.418-31.351-56.937-35.424-58.736-2.834c-0.104,1.841,0.856,3.192,2.746,3.325c13.515,0.952,21.171-11.271,17.924-23.633
	c-3.144-11.968-14.164-19.806-26.087-14.209c-15.706,7.364-21.357,27.593-22.414,43.333c-1.071,16.038,1.97,37.305,17.651,45.613
	C560.881,712.734,566.327,704.508,561.766,702.09L561.766,702.09z"/>
<path d="M623.596,680.361c3.735,12.811,20.296,11.057,27.862,3c8.24-8.775,5.646-25.96,0.58-35.606
	c-2.201-4.196-7.804,1.294-7.979,4.213c-0.566,9.403,3.036,20.293,8.2,28.046c2.292,3.44,5.684,6.807,10.021,7.157
	c5.562,0.454,10.136-3.548,13.402-7.586c3.888-4.797-1.457-9.321-5.358-4.5c-1.77,2.181-3.69,4.295-6.572,2.599
	c-2.925-1.723-4.721-4.979-6.225-7.895c-2.994-5.797-5.527-13.441-5.131-20.056c-2.657,1.4-5.317,2.809-7.979,4.213
	c3.283,6.258,4.77,14.649,3.146,21.591c-1.64,7-13.656,7.521-15.713,0.479C630.271,670.593,622.366,676.146,623.596,680.361
	L623.596,680.361z"/>
<path d="M644.06,628.048c-0.368,3.287,0.48,6.929,4.056,7.942c3.451,0.978,7.361-0.793,10.205-2.621
	c2.272-1.466,5.104-5.187,2.521-7.706c-1.694-1.654-3.59-3.087-5.86-3.844c-2.343-0.78-4.858-0.479-7.228-0.042
	c-4.448,0.816-6.834,9.719-0.754,8.598c3.169-0.584,5.192,0.782,7.413,2.948c0.841-2.568,1.682-5.138,2.521-7.706
	c-0.846,0.545-1.706,1.028-2.618,1.45c-0.479,0.221-1.27,0.289-1.617,0.288c0.312,0.084,0.257,0.064-0.161-0.051
	c-0.604-0.172-0.182-0.108,0.041,0.166c-0.438-0.552-0.081,0.226-0.244-0.571c0.041,0.202,0.065-1.072,0.067-1.085
	c0.258-2.282-1.632-3.765-3.791-3.186C646.212,623.273,644.333,625.619,644.06,628.048L644.06,628.048z"/>
<path d="M664.646,664.625c-0.248,7.694,6.353,9.168,12.405,6.429c7.666-3.468,11.006-12.71,8.599-20.427
	c-1.904-6.099-6.938-10.693-13.025-6.471c-5.301,3.674-7.536,11.013-8.021,17.124c-0.562,7.138,2.066,13.877,8.535,17.304
	c6.485,3.438,14.143,3.313,19.123-2.424c4.377-5.039,4.933-12.682,6.03-18.957c0.57-3.256,2.634-14.155,8.37-10.09
	c3.49,2.473,4.627,8.165,5.482,12.033c0.954,4.307,1.493,8.803,1.527,13.214c0.044,5.57,7.471,2.052,7.504-2.016
	c0.042-5.292,0.836-26.308,10.462-20.925c4.082,2.282,4.195,8.489,4.66,12.533c0.538,4.679,1.054,10.229,4.496,13.812
	c7.242,7.534,18.965,3.461,23.049-5.046c3.884-8.088,3.229-18.348,1.722-26.953c-0.865-4.944-8.107,0.032-7.433,3.909
	c1.05,5.988,3.245,18.902-2.139,23.419c-3.508,2.94-9.226-1.375-10.646-4.48c-2.104-4.615-1.578-10.47-2.664-15.376
	c-2.095-9.471-12.354-14.265-20.068-7.32c-7.402,6.659-8.868,19.062-8.943,28.442c2.501-0.672,5.003-1.343,7.504-2.015
	c-0.068-8.882-1.417-32.909-14.771-31.95c-14.819,1.062-14.602,19.815-17.479,30.188c-0.332,1.197-0.889,3.623-2.2,4.114
	c-2.934,1.099-6.666-0.686-9.294-1.842c-5.922-2.613-6.018-10.943-4.525-16.166c0.416-1.459,1.438-3.921,2.33-4.425
	c0.815-0.463,3.128,4.729,3.347,5.428c0.882,2.817,0.595,6.316-2.104,8.02c-1.571,0.992-4.41,1.513-4.325-1.103
	C672.329,657.055,664.776,660.567,664.646,664.625L664.646,664.625z"/>
<path d="M764.541,648.298c0.197-0.993,0.485-1.96,0.861-2.896c-1.001,0.174-1.021,0.356-0.058,0.561
	c1.28,0.731,2.195,2.035,3.005,3.219c2.018,2.945,2.909,6.457,4.073,9.78c1.49,4.255,3.625,8.937,7.306,11.752
	c6.23,4.773,12.879-1.274,16.276-6.377c5.823-8.736,12.267-36.173-3.815-38.702c-2.998-0.472-5.475,1.987-5.898,4.868
	c-2.163,14.587,16.986,18.803,27.821,18.364c6.424-0.264,12.848-2.154,17.34-6.935c1.937-2.057,3.026-4.938,3.229-7.726
	c0.313-4.329-1.466-6.097-5.297-7.59c-25.603-9.981-27.968,39.354-5.073,42.646c5.414,0.778,10.185-2.039,14.357-5.135
	c6.917-5.124,6.716-14.362,7.779-21.99c0.49-3.518,2.214-5.486,6.017-4.771c3.167,0.595,4.852,3.566,6.006,6.271
	c2.461,5.761,2.416,13.255,1.292,19.32c2.489-0.987,4.979-1.975,7.471-2.961c-0.598-5.438-1.706-10.805-1.396-16.3
	c0.251-4.464,4.896-11.015,9.849-6.901c2.951,2.448,2.854,9.226,3.751,12.666c1.3,4.979,3.749,10.253,7.743,13.612
	c7.373,6.2,16.145-1.596,19.565-8.155c4.754-9.104,3.875-20.172-2.746-28.021c-2.415-2.862-6.354,2.406-6.646,4.45
	c-1.959,13.772,5.771,33.646,22.435,30.878c16.708-2.771,17.062-27.097,9.522-38.086c-2.069-3.021-6.279,0.182-6.975,2.777
	c-3.377,12.681-2.29,27.634,11.672,32.898c10.75,4.056,24.188-0.095,31.934-8.183c4.09-4.271,6.631-9.879,6.735-15.822
	c0.123-6.82-2.898-16.056-9.323-19.246c-7.278-3.619-13.182,7.275-14.598,12.556c-2.459,9.161,0.157,18.5,7.618,24.452
	c8.828,7.044,20.922,3.754,29.835-1.188c10.05-5.565,19.067-14.46,24.78-24.425c2.957-5.158-3.733-6.357-6.19-2.072
	c-7.521,13.12-29.521,32.702-44.438,19.261c-3.372-3.035-4.938-7.334-4.976-11.8c-0.021-2.388,0.391-7.729,2.752-9.198
	c2.305-1.436,5.506,6.822,5.96,8.012c1.019,2.656,1.245,5.582,0.875,8.376c-1.282,9.694-13.725,13.304-21.925,12.643
	c-13.972-1.126-16.673-14.798-13.623-26.246c-2.325,0.93-4.647,1.854-6.976,2.778c4.232,6.173,8.233,23.96-3.244,24.918
	c-11.534,0.964-15.553-16.825-14.35-25.293c-2.216,1.484-4.431,2.969-6.646,4.453c3.327,3.943,4.403,8.862,3.848,13.902
	c-0.327,2.967-1.888,8.129-5.062,9.345c-4.114,1.577-7.104-4.312-8.451-7.124c-2.206-4.598-2.506-9.596-3.948-14.414
	c-3.261-10.902-15.456-8.458-21.875-1.577c-7.306,7.831-3.946,20.618-2.925,29.985c0.565,5.177,6.97-0.276,7.468-2.961
	c1.793-9.685,1.12-30.371-12.198-31.604c-8.129-0.75-14.108,5.177-15.734,12.764c-1.567,7.312,0.141,15.104-7.776,18.741
	c-8.828,4.062-14.226-9.093-15.291-15.414c-0.572-3.406-0.521-8.521,1.224-10.837c1.897-2.521,7.612-0.437,10.803,1.17
	c-0.521-0.636-1.046-1.271-1.568-1.905c2.158,7.591-9.979,7.268-15.076,6.933c-6.49-0.426-19.145-3.557-17.846-12.312
	c-1.967,1.621-3.935,3.243-5.896,4.866c12.062,1.896,6.235,25.889,0.22,30.77c-0.261,0.211-0.662,0.305-1.225,0.292
	c-0.975-0.021-1.991-1.062-2.672-1.726c-3.373-3.278-4.603-8.673-6.124-12.918c-1.617-4.51-4.552-10.956-9.876-11.954
	c-6.104-1.146-9.556,5.611-10.769,10.463C756.021,654.004,763.466,652.597,764.541,648.298L764.541,648.298z"/>
</svg>
